<ttFont>
          <CharString index="0">
            rmoveto
            -46 callgsubr
            -76 16 -22 callgsubr
            39 111 rlineto
            241 hlineto
            43 -111 rlineto
            -18 vlineto
            -71 -16 rlineto
            -41 239 41 vlineto
            -64 16 -230 596 rlineto
            -48 hlineto
            -221 -596 rlineto
            331 186 rmoveto
            -200 hlineto
            91 255 6 18 2 -5 4 -11 rlineto
            return
          </CharString>
          <CharString index="1">
            rmoveto
            103 61 66 0 hvcurveto
            -14 28 rlineto
            0 -41 -24 -79 -117 -40 81 91 vhcurveto
            251 hlineto
            37 11 17 72 92 -47 90 -117 -129 -94 -111 -160 -133 69 -109 146 hvcurveto
            -126 288 rmoveto
            108 1 36 59 82 hhcurveto
            77 21 -44 -75 -15 -1 -13 -2 -12 hvcurveto
            return
          </CharString>
          <CharString index="2">
            rmoveto
            216 91 156 195 193 -105 129 -180 -206 -115 -156 -191 -201 103 -125 196 hvcurveto
            20 57 rmoveto
            -142 -76 74 201 258 94 23 112 115 83 -47 -234 -172 -52 -103 -134 hvcurveto
            return
          </CharString>
          <CharString index="3">
            rmoveto
            152 81 120 152 146 -72 95 -143 -142 -87 -123 -141 -151 73 -98 138 hvcurveto
            19 58 rmoveto
            -108 -32 77 119 128 21 73 112 99 32 -65 -136 -123 -29 -73 -95 hvcurveto
            return
          </CharString>
          <CharString index="4">
            rmoveto
            39 22 32 36 37 -22 23 -34 -36 -25 -31 -35 -37 22 -25 34 hvcurveto
            return
          </CharString>
          <CharString index="5">
            rmoveto
            25 -36 126 63 122 -65 33 41 -74 61 rlineto
            32 -39 -22 22 -16 hhcurveto
            -14 -16 -17 -37 -46 hvcurveto
            return
          </CharString>
          <CharString index="6">
            rmoveto
            28 -32 115 83 118 -84 35 35 -106 110 rlineto
            15 -15 -12 6 -11 hhcurveto
            -12 -16 -9 -18 -18 hvcurveto
            return
          </CharString>
          <CharString index="7">
            rmoveto
            25 21 8 21 15 hvcurveto
            37 49 -23 26 -80 -36 -79 25 rlineto
            8 -25 -25 7 -20 hhcurveto
            -25 -21 -8 -21 -15 hvcurveto
            -37 -49 23 -26 80 36 -62 callsubr
            return
          </CharString>
          <CharString index="8">
            84 -25 rlineto
            -7 25 26 -8 20 hhcurveto
            26 24 14 22 13 hvcurveto
            28 47 -22 20 -68 -34 -84 25 rlineto
            7 -25 -26 8 -20 hhcurveto
            -26 -24 -14 -22 -13 hvcurveto
            return
          </CharString>
          <CharString index="9">
            rmoveto
            -183 vlineto
            -20 -38 -28 -12 -65 hhcurveto
            -153 -55 99 182 179 50 96 150 86 49 -17 0 hvcurveto
            29 -110 rlineto
            48 156 hlineto
            12 -20 -73 18 -106 hhcurveto
            -200 -114 -162 -182 -229 102 -98 182 87 42 22 16 24 hvcurveto
            14 hlineto
            32 -27 rlineto
            41 263 hlineto
            41 8 rlineto
            50 -197 -43 vlineto
            return
          </CharString>
          <CharString index="10">
            rmoveto
            -46 vlineto
            64 -11 rlineto
            -12 vlineto
            -100 -260 -12 -44 -8 34 -103 270 rlineto
            15 vlineto
            66 9 rlineto
            45 -219 -43 vlineto
            58 -16 163 -406 -54 -118 -114 -29 0 callsubr
            21 32 -4 22 hhcurveto
            54 34 19 38 15 hvcurveto
            212 545 54 0 callgsubr
            return
          </CharString>
          <CharString index="11">
            252 43 hlineto
            -83 17 rlineto
            213 86 vlineto
            137 -243 rlineto
            -20 11 22 -10 22 hhcurveto
            104 43 hlineto
            -68 19 -141 231 rlineto
            64 28 77 41 126 vvcurveto
            112 -88 48 -111 vhcurveto
            -284 -44 callgsubr
            285 rmoveto
            258 vlineto
            3 24 33 2 24 hhcurveto
            59 80 -11 -110 -85 -65 -57 -92 hvcurveto
            return
          </CharString>
          <CharString index="12">
            rmoveto
            208 48 101 190 hvcurveto
            306 vlineto
            143 35 32 65 30 -56 callsubr
            -31 -20 -9 -43 vhcurveto
            -193 -45 hlineto
            -74 callgsubr
            return
          </CharString>
          <CharString index="13">
            rmoveto
            -60 -13 rlineto
            0 11 -116 130 113 25 121 0 vhcurveto
            -31 8 rlineto
            0 -26 -68 -78 -66 -18 68 0 vhcurveto
            return
          </CharString>
          <CharString index="14">
            174 120 rlineto
            41 -12 -22 21 -17 hhcurveto
            -14 -12 -13 -18 -16 hvcurveto
            return
          </CharString>
          <CharString index="15">
            rmoveto
            31 hlineto
            0 53 39 67 vvcurveto
            24 -13 28 -35 -13 -18 -6 -16 -14 vhcurveto
            14 -13 12 -19 -25 vvcurveto
            -28 -7 -22 -19 callsubr
          </CharString>
          <CharString index="16">
            rmoveto
            -88 callgsubr
            -35 -28 -33 -32 -26 vhcurveto
            79 -47 -82 47 -108 hhcurveto
            -206 -115 -156 -191 -201 103 -125 196 216 91 156 195 64 -12 57 -22 48 hvcurveto
            85 59 27 52 36 vvcurveto
            -365 -610 -59 callsubr
          </CharString>
          <CharString index="17">
            vlineto
            82 15 rlineto
            44 -251 -44 vlineto
            return
          </CharString>
          <CharString index="18">
            -87 callgsubr
            endchar
          </CharString>
          <CharString index="19">
            rmoveto
            -88 callgsubr
            -26 -17 -26 -21 -22 vhcurveto
            65 -34 -62 39 -91 -47 callsubr
            152 81 120 152 39 -5 35 -10 31 hvcurveto
            68 53 23 46 33 vvcurveto
            -290 -451 -57 callsubr
          </CharString>
          <CharString index="20">
            192 -263 -78 114 vvcurveto
            50 24 23 73 39 43 -15 0 vhcurveto
            14 -80 rlineto
            41 hlineto
            14 125 rlineto
            10 -18 -62 17 -63 hhcurveto
            -102 -80 -46 -95 hvcurveto
            -192 262 88 -126 vvcurveto
            -50 -21 -37 -82 -45 -33 15 13 -17 2 callsubr
            return
          </CharString>
          <CharString index="21">
            -44 callsubr
            -82 -31 callgsubr
            -77 callsubr
            return
          </CharString>
          <CharString index="22">
            98 87 36 119 hvcurveto
            -87 callsubr
            return
          </CharString>
          <CharString index="23">
            rmoveto
            -33 -41 74 -61 rlineto
            -32 39 22 -22 16 hhcurveto
            14 16 17 37 46 hvcurveto
            79 64 -25 36 -126 -63 rlineto
            return
          </CharString>
          <CharString index="24">
            -109 121 rlineto
            18 -16 -12 13 -14 hhcurveto
            -17 -22 -21 -41 -12 hvcurveto
            return
          </CharString>
          <CharString index="25">
            669 rmoveto
            22 -12 -9 29 -27 hhcurveto
            -13 -19 -14 -33 -20 hvcurveto
            128 -137 30 22 rlineto
            103 111 rmoveto
            22 -12 -9 29 -27 hhcurveto
            -13 -19 -14 -33 -20 hvcurveto
            128 -137 30 22 rlineto
            return
          </CharString>
          <CharString index="26">
            -31 callsubr
            430 -78 callsubr
            -356 vlineto
            return
          </CharString>
          <CharString index="27">
            22 35 -131 98 rlineto
            12 -17 -14 10 -11 hhcurveto
            -19 -19 -22 -47 -4 hvcurveto
            return
          </CharString>
          <CharString index="28">
            676 rmoveto
            28 27 -79 103 rlineto
            26 -20 -12 6 -15 hhcurveto
            -18 -18 -21 -39 -10 hvcurveto
            328 -102 rmoveto
            28 27 -79 103 rlineto
            26 -20 -12 6 -15 hhcurveto
            -18 -18 -21 -39 -10 hvcurveto
            return
          </CharString>
          <CharString index="29">
            vlineto
            -72 callgsubr
            return
          </CharString>
          <CharString index="30">
            -90 callsubr
            82 -15 rlineto
            return
          </CharString>
          <CharString index="31">
            200 42 hlineto
            -70 16 rlineto
            458 9 vlineto
            325 -516 -47 callgsubr
            -13 20 -315 499 rlineto
            -153 -44 hlineto
            65 -14 rlineto
            -532 vlineto
            -70 -16 rlineto
            return
          </CharString>
          <CharString index="32">
            rlineto
            -41 vlineto
            80 -14 rlineto
            return
          </CharString>
          <CharString index="33">
            309 vlineto
            82 16 rlineto
            45 -229 -45 vlineto
            -73 callgsubr
            return
          </CharString>
          <CharString index="34">
            rmoveto
            -59 489 163 -49 vlineto
            -29 -104 rlineto
            -301 12 hlineto
            370 511 rlineto
            66 -470 -163 49 vlineto
            29 104 rlineto
            272 -19 hlineto
            return
          </CharString>
          <CharString index="35">
            19 -19 37 -8 rlineto
            20 -4 11 -3 -22 vvcurveto
            -20 -20 -10 -39 -23 -16 5 6 -15 vhcurveto
            -16 -37 rlineto
            -10 23 20 -6 31 hhcurveto
            endchar
          </CharString>
          <CharString index="36">
            555 rmoveto
            51 13 rlineto
            0 -9 140 -144 -144 -5 -147 0 vhcurveto
            34 -8 rlineto
            0 9 90 99 101 8 -88 0 vhcurveto
            return
          </CharString>
          <CharString index="37">
            -28 callsubr
            187 52 vlineto
            113 -199 rlineto
            4 -6 3 -8 -11 vvcurveto
            -18 162 41 vlineto
            -82 18 -133 230 116 148 60 16 rlineto
            41 -192 -40 vlineto
            59 -13 rlineto
            -14 vlineto
            -106 -132 rlineto
            -56 return
          </CharString>
          <CharString index="38">
            -68 callgsubr
            endchar
          </CharString>
          <CharString index="39">
            -298 vlineto
            -78 -45 callsubr
            -80 14 rlineto
            return
          </CharString>
          <CharString index="40">
            58 49 -1 hhcurveto
            -10 32 rlineto
            0 -42 -13 -38 -33 -17 8 42 vhcurveto
            328 127 vlineto
            14 25 rlineto
            28 -141 114 -58 vlineto
            -24 -104 -78 -21 rlineto
            -42 return
          </CharString>
          <CharString index="41">
            40 22 33 36 38 -22 23 -35 -37 -25 -31 -36 -37 22 -26 35 hvcurveto
            return
          </CharString>
          <CharString index="42">
            -23 9 -139 -22 -75 callsubr
            -567 vlineto
            return
          </CharString>
          <CharString index="43">
            -6 callsubr
            246 305 -246 vlineto
            -82 -15 rlineto
            -86 callsubr
            -229 -305 229 vlineto
            83 15 rlineto
            44 -252 -44 vlineto
            83 -15 rlineto
            -15 callsubr
            return
          </CharString>
          <CharString index="44">
            -22 -107 rlineto
            -113 hlineto
            -98 8 rlineto
            523 vlineto
            91 15 rlineto
            47 -260 -43 vlineto
            83 -17 rlineto
            -528 vlineto
            return
          </CharString>
          <CharString index="45">
            79 -25 rlineto
            -8 25 25 -7 20 hhcurveto
            return
          </CharString>
          <CharString index="46">
            -41 -36 callgsubr
            vlineto
            return
          </CharString>
          <CharString index="47">
            255 hlineto
            229 119 116 224 198 -110 110 -197 hvcurveto
            -296 -43 hlineto
            83 -18 rlineto
            -527 vlineto
            -12 callgsubr
            683 16 -73 callsubr
            -779 -519 rmoveto
            -35 -41 5 6 -19 hvcurveto
            521 vlineto
            5 26 32 2 38 hhcurveto
            163 74 -79 -174 -203 -69 -83 -169 hvcurveto
            endchar
          </CharString>
          <CharString index="48">
            rmoveto
            -142 -76 74 201 258 94 23 112 115 83 -47 -234 -172 -52 -103 -134 hvcurveto
            endchar
          </CharString>
          <CharString index="49">
            -18 30 rlineto
            -11 -19 -22 -10 -16 hhcurveto
            -28 -15 14 30 return
          </CharString>
          <CharString index="50">
            rmoveto
            -108 -32 77 119 128 21 73 112 99 32 -65 -136 -123 -29 -73 -95 hvcurveto
            endchar
          </CharString>
          <CharString index="51">
            vvcurveto
            -88 callgsubr
            return
          </CharString>
          <CharString index="52">
            666 rmoveto
            131 148 rlineto
            34 -20 -21 14 -16 hhcurveto
            -17 -10 -19 -21 -12 hvcurveto
            -71 -130 rlineto
            return
          </CharString>
          <CharString index="53">
            104 55 hmoveto
            -96 callsubr
            return
          </CharString>
          <CharString index="54">
            -187 rmoveto
            60 63 21 70 44 -34 10 -38 9 hvcurveto
            -17 4 rlineto
            return
          </CharString>
          <CharString index="55">
            rmoveto
            18 19 73 84 66 vvcurveto
            34 -20 28 -35 -29 -16 -18 -20 -13 vhcurveto
            16 -13 14 -20 -31 vvcurveto
            -35 -17 -35 -21 -45 vhcurveto
            return
          </CharString>
          <CharString index="56">
            -8 callsubr
            531 143 vlineto
            20 -106 rlineto
            49 164 -511 -164 49 hlineto
            21 106 rlineto
            142 -531 hlineto
            return
          </CharString>
          <CharString index="57">
            rmoveto
            4 -111 rlineto
            55 hlineto
            4 111 rlineto
            66 9 50 42 0 vvcurveto
            35 vlineto
            0 -53 -19 -83 -90 -52 69 130 131 27 73 107 38 41 -10 0 vhcurveto
            15 -80 rlineto
            50 135 hlineto
            0 -51 19 -65 3 vhcurveto
            -4 106 rlineto
            -56 hlineto
            -4 -111 rlineto
            -133 -25 -55 -128 -125 vvcurveto
            -151 72 -88 117 -15 vhcurveto
            endchar
          </CharString>
          <CharString index="58">
            rmoveto
            111 39 65 91 95 -34 61 -106 -104 -47 -64 -94 -88 31 -66 110 hvcurveto
            5 51 rmoveto
            -66 -13 37 68 73 22 32 56 58 21 -22 -83 -70 -13 -35 -65 hvcurveto
            return
          </CharString>
          <CharString index="59">
            694 -103 callsubr
            return
          </CharString>
          <CharString index="60">
            hhcurveto
            -142 -87 -123 -141 -151 73 -98 138 return
          </CharString>
          <CharString index="61">
            75 66 35 74 57 -44 19 -30 7 hvcurveto
            30 8 31 26 40 vvcurveto
            53 -43 33 -80 -53 -45 -20 -8 -14 vhcurveto
            3 -84 rlineto
            41 hlineto
            8 54 rlineto
            0 23 10 32 33 32 -9 -36 -36 -38 -14 -39 vhcurveto
            -26 -24 hlineto
            8 -21 rlineto
            27 hlineto
            48 29 -14 -48 -39 -29 -15 -46 -35 -19 8 3 -6 hvcurveto
            -5 46 rlineto
            return
          </CharString>
          <CharString index="62">
            -14 rlineto
            -61 callsubr
            return
          </CharString>
          <CharString index="63">
            -44 -27 callgsubr
            vlineto
            return
          </CharString>
          <CharString index="64">
            rmoveto
            -10 callsubr
            -62 callgsubr
            endchar
          </CharString>
          <CharString index="65">
            vlineto
            75 16 rlineto
            41 return
          </CharString>
          <CharString index="66">
            vvcurveto
            -49 35 -25 48 57 44 51 0 vhcurveto
            return
          </CharString>
          <CharString index="67">
            1 1 15 -50 139 20 rlineto
            38 vlineto
            -71 16 rlineto
            return
          </CharString>
          <CharString index="68">
            -214 139 -78 callgsubr
            -111 -18 callgsubr
            return
          </CharString>
          <CharString index="69">
            rmoveto
            -36 -25 -31 -35 -37 22 -25 34 39 22 32 36 37 -22 23 -34 hvcurveto
            endchar
          </CharString>
          <CharString index="70">
            rmoveto
            -84 -158 25 -16 93 104 rlineto
            15 19 33 34 17 vvcurveto
            13 -25 29 -14 16 vhcurveto
            -102 114 -25 -16 rlineto
            return
          </CharString>
          <CharString index="71">
            21 -211 rlineto
            40 hlineto
            23 151 2 13 1 12 1 10 rlinecurve
            15 -2 23 -33 -14 -18 -4 -9 -21 vhcurveto
            return
          </CharString>
          <CharString index="72">
            rmoveto
            67 29 117 -20 rlineto
            -7 30 46 -5 31 hhcurveto
            20 20 8 18 14 hvcurveto
            32 41 -18 25 -67 -31 -119 21 rlineto
            5 -29 -54 7 -23 hhcurveto
            -23 -18 -10 -17 -14 hvcurveto
            -31 -41 rlineto
            return
          </CharString>
          <CharString index="73">
            rmoveto
            -24 callgsubr
            68 34 84 -25 rlineto
            -7 25 26 -8 20 hhcurveto
            return
          </CharString>
          <CharString index="74">
            655 rmoveto
            -21 callgsubr
            28 -30 rlineto
            return
          </CharString>
          <CharString index="75">
            781 rmoveto
            -10 -58 rlineto
            332 hlineto
            10 58 rlineto
            return
          </CharString>
          <CharString index="76">
            -78 14 rlineto
            return
          </CharString>
          <CharString index="77">
            535 rmoveto
            61 36 42 51 50 -30 39 -60 -64 -33 -45 -50 -51 29 -36 61 hvcurveto
            4 43 rmoveto
            -29 -12 9 39 32 8 14 31 28 13 -9 -37 -33 -8 -15 -31 hvcurveto
            return
          </CharString>
          <CharString index="78">
            -28 -47 22 -20 return
          </CharString>
          <CharString index="79">
            41 -21 callsubr
            return
          </CharString>
          <CharString index="80">
            553 rmoveto
            144 5 147 0 hvcurveto
            -34 8 rlineto
            0 -9 -90 -99 -101 -8 88 0 vhcurveto
            -51 -13 rlineto
            0 9 -140 144 vhcurveto
            return
          </CharString>
          <CharString index="81">
            31 11 12 33 37 5 -17 -28 -31 -10 -12 -32 return
          </CharString>
          <CharString index="82">
            16 rlineto
            41 -211 -41 vlineto
            return
          </CharString>
          <CharString index="83">
            -94 callsubr
            endchar
          </CharString>
          <CharString index="84">
            rmoveto
            18 18 79 89 68 vvcurveto
            35 -21 28 -36 -32 -21 -22 -28 -13 vhcurveto
            16 -12 16 -23 -27 vvcurveto
            -27 -16 -43 -24 -42 vhcurveto
            endchar
          </CharString>
          <CharString index="85">
            vvcurveto
            55 23 41 101 36 44 -10 -13 24 vhcurveto
            19 -94 rlineto
            49 151 hlineto
            10 -23 -80 15 -66 hhcurveto
            -132 -82 -73 -110 return
          </CharString>
          <CharString index="86">
            rmoveto
            -15 callgsubr
            return
          </CharString>
          <CharString index="87">
            rlineto
            -153 -44 hlineto
            65 -14 rlineto
            -532 vlineto
            -70 -16 rlineto
            endchar
          </CharString>
          <CharString index="88">
            -10 -29 vhcurveto
            endchar
          </CharString>
          <CharString index="89">
            47 -4 -19 22 -19 hhcurveto
            -11 -14 -10 -12 -17 hvcurveto
            -131 -98 return
          </CharString>
          <CharString index="90" raw="1">
            521d3b7d 050e  
          </CharString>
          <CharString index="91">
            -104 16 rlineto
            380 114 vlineto
            13 26 rlineto
            31 -127 return
          </CharString>
          <CharString index="92">
            -530 vlineto
            return
          </CharString>
          <CharString index="93">
            164 -49 return
          </CharString>
          <CharString index="94">
            rmoveto
            484 703 -49 32 -487 -702 rlineto
            return
          </CharString>
          <CharString index="95">
            rmoveto
            67 171 167 59 -167 170 -67 -170 -166 -59 166 hlineto
            return
          </CharString>
          <CharString index="96">
            -157 338 695 rmoveto
            -365 -835 62 -27 363 835 rlineto
            endchar
          </CharString>
          <CharString index="97">
            -38 vlineto
            0 35 -10 48 70 37 30 52 vhcurveto
            return
          </CharString>
          <CharString index="98">
            60 -39 23 -50 -51 -42 -29 -61 return
          </CharString>
          <CharString index="99">
            -82 15 rlineto
            return
          </CharString>
          <CharString index="100">
            -61 4 rlineto
            296 -54 vlineto
            -79 -10 rlineto
            -41 65 -245 vlineto
            return
          </CharString>
          <CharString index="101">
            rmoveto
            -8 callgsubr
            return
          </CharString>
          <CharString index="102">
            vhcurveto
            -25 callgsubr
            return
          </CharString>
          <CharString index="103">
            hlineto
            27 142 rlineto
            -60 hlineto
            -27 -142 rlineto
            -134 return
          </CharString>
          <CharString index="104">
            vlineto
            -9 callgsubr
            return
          </CharString>
          <CharString index="105">
            -5 callsubr
            -69 -14 rlineto
            return
          </CharString>
          <CharString index="106">
            rmoveto
            -487 -702 52 -33 484 703 rlineto
            return
          </CharString>
          <CharString index="107">
            -50 callgsubr
            -6 return
          </CharString>
          <CharString index="108">
            -44 249 44 vlineto
            -83 -31 callgsubr
            return
          </CharString>
          <CharString index="109">
            vhcurveto
            -14 78 rlineto
            return
          </CharString>
        <CharString name=".notdef">
          -324 endchar
        </CharString>
        <CharString name="A">
          101 -9 41 -107 callsubr
          endchar
        </CharString>
        <CharString name="AE">
          286 -9 41 -58 callgsubr
        </CharString>
        <CharString name="AEacute">
          286 398 681 -95 callgsubr
          -385 -675 -58 callgsubr
        </CharString>
        <CharString name="Aacute">
          101 209 -42 callgsubr
          -349 -773 -107 callsubr
          endchar
        </CharString>
        <CharString name="Abreve">
          101 229 821 -94 callsubr
          -238 -780 -107 callsubr
          endchar
        </CharString>
        <CharString name="Acircumflex">
          101 142 716 -102 callsubr
          -230 -739 -107 callsubr
          endchar
        </CharString>
        <CharString name="Adieresis">
          101 191 686 -103 callgsubr
          -411 -645 -107 callsubr
          endchar
        </CharString>
        <CharString name="Agrave">
          101 164 767 rmoveto
          193 -86 -80 callsubr
          -173 -726 -107 callsubr
          endchar
        </CharString>
        <CharString name="Amacron">
          101 138 -32 callsubr
          -479 -740 -107 callsubr
          endchar
        </CharString>
        <CharString name="Aogonek">
          101 423 hmoveto
          194 41 hlineto
          -64 16 -230 596 rlineto
          -48 hlineto
          -221 -596 -63 -16 rlineto
          -46 callgsubr
          -76 16 -22 callgsubr
          39 111 rlineto
          241 hlineto
          43 -111 rlineto
          -18 vlineto
          -71 -16 rlineto
          -40 vlineto
          -39 -25 -37 -38 -51 -41 callsubr
          -58 callsubr
          34 33 31 22 18 hvcurveto
          -238 243 -19 callgsubr
        </CharString>
        <CharString name="Aring">
          101 553 57 rmoveto
          -228 591 rlineto
          46 8 19 31 51 vvcurveto
          -9 callsubr
          -51 18 -27 47 -7 vhcurveto
          -219 -589 -63 -16 rlineto
          -46 callgsubr
          -76 16 -22 callgsubr
          39 111 rlineto
          241 hlineto
          43 -111 rlineto
          -18 vlineto
          -71 -16 rlineto
          -41 239 41 vlineto
          -361 694 rmoveto
          -26 callsubr
          -39 -5 16 29 vhcurveto
          -71 -492 -19 callgsubr
        </CharString>
        <CharString name="Aringacute">
          101 463 942 -28 callgsubr
          283 -799 rmoveto
          -229 594 rlineto
          39 8 32 27 54 vvcurveto
          -9 callsubr
          -50 24 -25 37 -7 vhcurveto
          -220 -594 -63 -16 rlineto
          -46 callgsubr
          -76 16 -22 callgsubr
          39 111 rlineto
          241 hlineto
          43 -111 rlineto
          -18 vlineto
          -71 -16 rlineto
          -41 239 41 vlineto
          -356 696 rmoveto
          -26 callsubr
          -39 -5 16 29 vhcurveto
          -76 -494 -19 callgsubr
        </CharString>
        <CharString name="Atilde">
          101 124 728 rmoveto
          23 -26 80 36 -62 callsubr
          25 21 8 21 15 hvcurveto
          37 49 -23 26 -80 -36 -79 25 rlineto
          8 -25 -25 7 -20 hhcurveto
          -25 -21 -8 -21 -15 hvcurveto
          -170 -736 -107 callsubr
          endchar
        </CharString>
        <CharString name="B">
          93 59 hmoveto
          277 hlineto
          140 83 66 112 79 -63 71 -86 17 hvcurveto
          80 28 35 45 74 vvcurveto
          96 -79 60 -125 vhcurveto
          -262 -44 callgsubr
          314 rmoveto
          228 vlineto
          3 22 30 2 21 hhcurveto
          89 44 -33 -66 -87 -54 -47 -101 hvcurveto
          41 -302 rmoveto
          -35 -38 3 3 -19 hvcurveto
          241 68 vlineto
          116 48 -35 -86 -82 -49 -44 -91 hvcurveto
          endchar
        </CharString>
        <CharString name="C">
          105 508 184 -86 callgsubr
        </CharString>
        <CharString name="Cacute">
          105 280 -42 callgsubr
          97 -630 -86 callgsubr
        </CharString>
        <CharString name="Cacute.loclPLK">
          105 365 -55 callsubr
          179 -508 -86 callgsubr
        </CharString>
        <CharString name="Ccaron">
          105 224 834 -84 callsubr
          162 -585 -86 callgsubr
        </CharString>
        <CharString name="Ccedilla">
          105 273 -134 rmoveto
          -16 -37 rlineto
          -10 23 20 -6 31 hhcurveto
          60 63 21 70 44 -34 10 -38 9 hvcurveto
          -17 4 -22 callgsubr
          103 4 53 23 36 16 rrcurveto
          152 -49 vlineto
          -20 -102 rlineto
          0 -38 -37 -98 -132 -74 111 163 197 56 84 146 79 56 -16 0 vhcurveto
          21 -110 rlineto
          49 157 hlineto
          18 -45 -65 11 -88 hhcurveto
          -191 -119 -162 -182 -205 87 -114 187 -7 hvcurveto
          -20 -49 19 -19 37 -8 rlineto
          20 -4 11 -3 -22 vvcurveto
          -20 -20 -10 -39 -23 -16 5 6 -15 vhcurveto
          endchar
        </CharString>
        <CharString name="Ccircumflex">
          105 202 716 -102 callsubr
          227 -596 -86 callgsubr
        </CharString>
        <CharString name="Cdotaccent">
          105 352 -48 callsubr
          156 -510 -86 callgsubr
        </CharString>
        <CharString name="D">
          196 55 hmoveto
          -81 callgsubr
          endchar
        </CharString>
        <CharString name="Dcaron">
          200 219 834 -84 callsubr
          -286 -769 rmoveto
          -81 callgsubr
          endchar
        </CharString>
        <CharString name="Dcroat">
          -49 callgsubr
        </CharString>
        <CharString name="E">
          65 55 43 -105 callgsubr
          endchar
        </CharString>
        <CharString name="Eacute">
          65 211 -42 callgsubr
          -287 -771 -105 callgsubr
          endchar
        </CharString>
        <CharString name="Ebreve">
          65 240 821 -94 callsubr
          -185 -778 -105 callgsubr
          endchar
        </CharString>
        <CharString name="Ecaron">
          65 184 834 -84 callsubr
          -251 -726 -105 callgsubr
          endchar
        </CharString>
        <CharString name="Ecircumflex">
          65 149 716 -102 callsubr
          -173 -737 -105 callgsubr
          endchar
        </CharString>
        <CharString name="Edieresis">
          65 204 693 -103 callgsubr
          -360 -650 -105 callgsubr
          endchar
        </CharString>
        <CharString name="Edotaccent">
          65 310 -48 callsubr
          -255 -651 -105 callgsubr
          endchar
        </CharString>
        <CharString name="Egrave">
          65 194 767 rmoveto
          193 -86 -80 callsubr
          -139 -724 -105 callgsubr
          endchar
        </CharString>
        <CharString name="Emacron">
          65 145 -32 callsubr
          -422 -738 -105 callgsubr
          endchar
        </CharString>
        <CharString name="Eng">
          220 481 648 rmoveto
          -45 callgsubr
          -13 20 -315 499 rlineto
          -153 -44 hlineto
          65 -14 rlineto
          -532 vlineto
          -70 -16 rlineto
          -42 200 42 vlineto
          -70 16 rlineto
          458 9 vlineto
          324 -514 rlineto
          -96 vlineto
          -97 -23 rlineto
          -10 callsubr
          673 vlineto
          69 0 callgsubr
          endchar
        </CharString>
        <CharString name="Eogonek">
          65 55 43 rmoveto
          -43 406 vlineto
          -26 -29 -26 -40 -44 -41 callsubr
          -18 30 rlineto
          -11 -19 -19 -10 -19 hhcurveto
          -28 -15 14 30 46 40 45 6 7 hvcurveto
          1 1 13 148 rlineto
          -49 hlineto
          -35 -107 rlineto
          -120 hlineto
          -48 -28 4 6 -31 hvcurveto
          238 158 vlineto
          15 -59 rlineto
          42 171 -42 hlineto
          -15 -59 rlineto
          -158 229 hlineto
          98 6 rlineto
          121 hlineto
          21 -109 rlineto
          49 164 -458 2 callgsubr
        </CharString>
        <CharString name="Eth">
          -49 callgsubr
        </CharString>
        <CharString name="Euro">
          13 367 418 rmoveto
          -200 hlineto
          121 17 54 61 91 hhcurveto
          31 36 -7 -9 19 hvcurveto
          19 -110 rlineto
          49 157 hlineto
          20 -39 -62 9 -43 hhcurveto
          -138 -95 -95 -147 -33 hvcurveto
          -48 hlineto
          -20 -57 rlineto
          342 hlineto
          91 -177 rmoveto
          -19 -102 rlineto
          -23 -24 -40 -14 -36 hhcurveto
          -86 -50 82 129 -13 hvcurveto
          140 hlineto
          20 57 rlineto
          -315 hlineto
          -20 -57 rlineto
          72 hlineto
          -148 12 75 -119 158 hhcurveto
          62 68 18 25 45 hvcurveto
          152 vlineto
          endchar
        </CharString>
        <CharString name="Euro.osf">
          -27 33 335 rmoveto
          -20 -57 rlineto
          324 hlineto
          20 57 rlineto
          -212 hlineto
          77 8 36 58 113 hhcurveto
          55 39 -14 0 hvcurveto
          19 -94 rlineto
          45 138 hlineto
          17 -41 -41 14 -80 hhcurveto
          -145 -70 -91 -105 -23 hvcurveto
          -55 -105 rmoveto
          -20 -57 rlineto
          73 hlineto
          -133 19 75 -49 132 hhcurveto
          110 34 24 15 36 hvcurveto
          136 -45 vlineto
          -18 -93 rlineto
          0 -36 -23 -70 -84 -50 38 85 -12 vhcurveto
          151 hlineto
          20 57 rlineto
          endchar
        </CharString>
        <CharString name="F">
          10 55 43 rmoveto
          -43 283 49 vlineto
          -114 14 rlineto
          222 167 vlineto
          14 -59 rlineto
          42 172 -42 hlineto
          -14 -60 rlineto
          -167 249 hlineto
          98 6 rlineto
          124 hlineto
          21 -109 rlineto
          50 164 -462 2 callgsubr
        </CharString>
        <CharString name="G">
          138 485 260 -98 callsubr
          endchar
        </CharString>
        <CharString name="G_tilde.loclGUA">
          138 422 698 -100 callsubr
          63 -438 -98 callsubr
          endchar
        </CharString>
        <CharString name="Gbreve">
          138 262 821 -94 callsubr
          223 -561 -98 callsubr
          endchar
        </CharString>
        <CharString name="Gcaron">
          138 225 834 -84 callsubr
          138 -509 -98 callsubr
          endchar
        </CharString>
        <CharString name="Gcircumflex">
          138 192 716 -102 callsubr
          214 -520 -98 callsubr
          endchar
        </CharString>
        <CharString name="Gcommaaccent">
          138 485 260 -98 callsubr
          -88 -465 -92 callsubr
        </CharString>
        <CharString name="Gdotaccent">
          138 342 -48 callsubr
          143 -434 -98 callsubr
          endchar
        </CharString>
        <CharString name="H">
          246 55 44 -64 callsubr
          endchar
        </CharString>
        <CharString name="Hbar">
          246 55 hmoveto
          252 44 hlineto
          -83 15 rlineto
          226 305 -226 -3 callsubr
          380 82 55 -82 95 -77 callsubr
          -95 -305 95 vlineto
          83 15 rlineto
          44 -252 -44 vlineto
          83 -15 rlineto
          -95 -78 -55 78 -380 vlineto
          -83 -15 rlineto
          169 296 rmoveto
          99 305 -99 vlineto
          endchar
        </CharString>
        <CharString name="Hcircumflex">
          246 224 716 -102 callsubr
          -248 -736 -64 callsubr
          endchar
        </CharString>
        <CharString name="I">
          -138 59 44 -83 callgsubr
          endchar
        </CharString>
        <CharString name="IJ">
          262 59 44 -83 callgsubr
          238 98 -75 callgsubr
        </CharString>
        <CharString name="Iacute">
          -138 84 -42 callgsubr
          -156 -770 -83 callgsubr
          endchar
        </CharString>
        <CharString name="Iacute_J.loclNLD">
          262 149 681 -95 callgsubr
          445 -35 -95 callgsubr
          -491 -672 -83 callgsubr
          238 98 -75 callgsubr
        </CharString>
        <CharString name="Ibreve">
          -138 105 821 -94 callsubr
          -46 -777 -83 callgsubr
          endchar
        </CharString>
        <CharString name="Icircumflex">
          -138 27 716 -102 callsubr
          -47 -736 -83 callgsubr
          endchar
        </CharString>
        <CharString name="Idieresis">
          -138 77 693 -103 callgsubr
          -229 -693 rmoveto
          251 -33 callgsubr
          -82 -15 rlineto
          endchar
        </CharString>
        <CharString name="Idotaccent">
          -138 182 -48 callsubr
          -123 -650 -83 callgsubr
          endchar
        </CharString>
        <CharString name="Igrave">
          -138 75 767 rmoveto
          193 -86 -80 callsubr
          -16 -723 -83 callgsubr
          endchar
        </CharString>
        <CharString name="Imacron">
          -138 33 723 rmoveto
          292 hlineto
          10 58 rlineto
          -292 hlineto
          16 -781 rmoveto
          251 -33 callgsubr
          -82 -15 rlineto
          endchar
        </CharString>
        <CharString name="Iogonek">
          -138 59 44 rmoveto
          -44 173 vlineto
          -39 -24 -36 -38 -51 -41 callsubr
          -58 callsubr
          34 33 31 23 18 hvcurveto
          31 -33 callgsubr
          endchar
        </CharString>
        <CharString name="Itilde">
          -138 262 698 -100 callsubr
          -203 -654 -83 callgsubr
          endchar
        </CharString>
        <CharString name="J">
          -107 10 157 -75 callgsubr
        </CharString>
        <CharString name="Jcircumflex">
          -107 86 716 -102 callsubr
          -155 -623 -75 callgsubr
        </CharString>
        <CharString name="K">
          93 55 44 rmoveto
          -44 252 44 vlineto
          -43 callgsubr
          endchar
        </CharString>
        <CharString name="Kcommaaccent">
          93 55 hmoveto
          252 44 hlineto
          -43 callgsubr
          -83 -15 rlineto
          253 -231 -92 callsubr
        </CharString>
        <CharString name="L">
          16 55 43 rmoveto
          -43 451 162 -49 vlineto
          -63 callsubr
          endchar
        </CharString>
        <CharString name="Lacute">
          16 152 681 -95 callgsubr
          -75 -716 rmoveto
          451 162 -49 hlineto
          -63 callsubr
          -12 callgsubr
          endchar
        </CharString>
        <CharString name="Lcaron">
          20 383 481 -66 callgsubr
          -324 -481 rmoveto
          451 162 -49 hlineto
          -63 callsubr
          -12 callgsubr
          endchar
        </CharString>
        <CharString name="Lcommaaccent">
          20 59 hmoveto
          451 162 -49 hlineto
          -63 callsubr
          -12 callgsubr
          203 -230 -92 callsubr
        </CharString>
        <CharString name="Ldot">
          16 55 43 rmoveto
          -43 451 162 -49 vlineto
          -63 callsubr
          236 235 rmoveto
          -66 callsubr
          endchar
        </CharString>
        <CharString name="Lslash">
          16 55 43 rmoveto
          -43 451 162 -49 vlineto
          -22 -107 rlineto
          -113 hlineto
          -98 8 rlineto
          238 vlineto
          135 48 rlineto
          63 vlineto
          -135 -50 rlineto
          224 vlineto
          91 15 rlineto
          47 -260 -43 vlineto
          83 -17 rlineto
          -257 vlineto
          -69 -25 rlineto
          -59 vlineto
          69 24 rlineto
          -211 vlineto
          endchar
        </CharString>
        <CharString name="M">
          378 55 hmoveto
          207 42 hlineto
          -73 16 rlineto
          523 12 vlineto
          196 -581 rlineto
          48 hlineto
          188 557 8 24 rlineto
          15 -522 hlineto
          -82 -15 rlineto
          -8 callgsubr
          530 vlineto
          83 15 rlineto
          44 -222 vlineto
          -151 -458 -15 -56 -15 56 -154 458 rlineto
          -205 -44 hlineto
          64 -12 rlineto
          -534 vlineto
          -73 -16 rlineto
          endchar
        </CharString>
        <CharString name="N">
          220 55 hmoveto
          -76 callsubr
          endchar
        </CharString>
        <CharString name="Nacute">
          220 296 681 -95 callgsubr
          -219 -716 rmoveto
          200 42 hlineto
          -70 16 rlineto
          458 9 vlineto
          11 -17 314 -499 -47 callgsubr
          -14 22 -314 497 -20 callsubr
        </CharString>
        <CharString name="Nacute.loclPLK">
          220 374 -55 callsubr
          -283 -692 rmoveto
          -76 callsubr
          endchar
        </CharString>
        <CharString name="Ncaron">
          220 365 -41 callgsubr
          -310 -678 rmoveto
          200 42 hlineto
          -70 16 rlineto
          458 9 vlineto
          10 -16 315 -500 -47 callgsubr
          -14 23 -314 496 -20 callsubr
        </CharString>
        <CharString name="Ncommaaccent">
          220 55 hmoveto
          200 42 hlineto
          -70 16 rlineto
          458 9 vlineto
          10 -16 315 -500 -47 callgsubr
          -13 21 -315 498 rlineto
          -153 -44 hlineto
          65 -14 rlineto
          -532 vlineto
          -70 -16 rlineto
          282 -229 -92 callsubr
        </CharString>
        <CharString name="Ntilde">
          220 448 698 -100 callsubr
          -393 -698 rmoveto
          200 42 hlineto
          -70 16 rlineto
          458 9 vlineto
          8 -13 317 -503 -47 callgsubr
          -14 22 -314 497 -20 callsubr
        </CharString>
        <CharString name="O">
          189 344 -13 -105 callsubr
          endchar
        </CharString>
        <CharString name="OE">
          384 360 hmoveto
          481 -14 callsubr
          hlineto
          -22 -107 rlineto
          -120 hlineto
          -37 -45 4 6 -25 hvcurveto
          238 158 vlineto
          15 -59 rlineto
          42 171 -42 hlineto
          -15 -59 rlineto
          -158 229 hlineto
          98 6 rlineto
          121 hlineto
          21 -109 rlineto
          49 164 -459 hlineto
          -206 -122 -144 -191 -234 130 -79 185 hvcurveto
          14 50 rmoveto
          -142 -86 75 194 249 116 26 112 29 33 -6 -10 21 hvcurveto
          -508 vlineto
          -16 -24 -30 -4 -29 hhcurveto
          endchar
        </CharString>
        <CharString name="Oacute">
          189 272 681 -95 callgsubr
          94 -729 -105 callsubr
          endchar
        </CharString>
        <CharString name="Oacute.loclPLK">
          189 358 -55 callsubr
          22 -705 -105 callsubr
          endchar
        </CharString>
        <CharString name="Obreve">
          189 268 821 -94 callsubr
          76 -834 -105 callsubr
          endchar
        </CharString>
        <CharString name="Ocircumflex">
          189 197 716 -102 callsubr
          68 -793 -105 callsubr
          endchar
        </CharString>
        <CharString name="Odieresis">
          189 246 693 -103 callgsubr
          -113 -706 -105 callsubr
          endchar
        </CharString>
        <CharString name="Ograve">
          189 431 681 rmoveto
          -80 callsubr
          106 -780 -105 callsubr
          endchar
        </CharString>
        <CharString name="Ohorn">
          189 729 654 -91 callsubr
        </CharString>
        <CharString name="Ohungarumlaut">
          189 220 676 -56 callgsubr
          212 -27 -56 callgsubr
          -32 -716 -105 callsubr
          endchar
        </CharString>
        <CharString name="Omacron">
          199 192 723 rmoveto
          332 hlineto
          10 58 rlineto
          -332 hlineto
          147 -794 -105 callsubr
          endchar
        </CharString>
        <CharString name="Oslash">
          189 179 27 -61 callgsubr
        </CharString>
        <CharString name="Oslashacute">
          189 277 681 -95 callgsubr
          -76 -689 -61 callgsubr
        </CharString>
        <CharString name="Otilde">
          189 434 698 -100 callsubr
          -90 -711 -105 callsubr
          endchar
        </CharString>
        <CharString name="P">
          58 55 hmoveto
          280 46 hlineto
          -111 17 rlineto
          523 vlineto
          0 39 5 40 92 60 -37 -100 -115 -72 -38 -115 vhcurveto
          5 -39 rlineto
          -2 12 12 0 12 hhcurveto
          143 95 75 149 121 -101 43 -142 hvcurveto
          -249 -70 callgsubr
          -12 callgsubr
          endchar
        </CharString>
        <CharString name="Q">
          195 390 -43 rmoveto
          129 -92 rlineto
          -15 23 22 -6 27 hhcurveto
          50 55 35 0 hvcurveto
          35 -105 vlineto
          -148 93 rlineto
          165 54 43 168 114 vvcurveto
          192 -105 125 -180 -193 -128 -160 -182 -193 91 -126 171 -8 vhcurveto
          46 -7 22 -16 15 -11 rrcurveto
          -20 88 rmoveto
          -141 -83 88 191 252 95 25 111 112 86 -43 -234 -172 -55 -107 -125 hvcurveto
          endchar
        </CharString>
        <CharString name="R">
          -54 callsubr
          endchar
        </CharString>
        <CharString name="Racute">
          104 221 681 -95 callgsubr
          -144 -716 rmoveto
          -96 callsubr
          endchar
        </CharString>
        <CharString name="Rcaron">
          104 301 -41 callgsubr
          -246 -678 rmoveto
          -96 callsubr
          endchar
        </CharString>
        <CharString name="Rcommaaccent">
          -54 callsubr
          2 -515 -92 callsubr
        </CharString>
        <CharString name="S">
          7 250 -10 -94 callgsubr
          endchar
        </CharString>
        <CharString name="Sacute">
          7 199 681 -95 callgsubr
          73 -726 -94 callgsubr
          endchar
        </CharString>
        <CharString name="Sacute.loclPLK">
          7 267 -55 callsubr
          19 -702 -94 callgsubr
          endchar
        </CharString>
        <CharString name="Scaron">
          7 259 -41 callgsubr
          -9 -688 -94 callgsubr
          endchar
        </CharString>
        <CharString name="Scedilla">
          7 241 -53 callsubr
          20 vlineto
          95 8 99 55 130 vvcurveto
          122 -90 37 -85 32 vhcurveto
          -76 28 -72 25 77 -22 callsubr
          -127 105 -29 90 -33 hvcurveto
          69 -25 60 -28 -73 vvcurveto
          -91 -46 -23 -93 -37 -51 17 22 -29 vhcurveto
          -15 100 rlineto
          -54 -143 hlineto
          27 -25 72 -24 73 -4 -21 -50 rcurveline
          -72 callsubr
        </CharString>
        <CharString name="Scircumflex">
          7 104 716 -102 callsubr
          67 -790 -94 callgsubr
          endchar
        </CharString>
        <CharString name="Scommaaccent">
          7 250 -10 rmoveto
          102 117 53 141 120 -89 37 -84 32 hvcurveto
          -77 29 -73 25 78 -22 callsubr
          -125 102 -30 89 -33 hvcurveto
          70 -25 63 -27 -75 vvcurveto
          -87 -41 -27 -98 -37 -51 17 22 -29 vhcurveto
          -15 100 rlineto
          -54 -143 hlineto
          -27 30 83 -27 79 hhcurveto
          -25 -177 -92 callsubr
        </CharString>
        <CharString name="T">
          34 145 44 rmoveto
          -44 251 -53 callgsubr
          endchar
        </CharString>
        <CharString name="Tbar">
          34 457 590 rmoveto
          20 -106 rlineto
          49 164 -511 -164 49 hlineto
          21 106 rlineto
          142 -228 -177 -57 177 -246 hlineto
          -9 callgsubr
          246 177 57 -177 228 vlineto
          endchar
        </CharString>
        <CharString name="Tcaron">
          34 148 834 -84 callsubr
          -125 -725 rmoveto
          -44 251 -53 callgsubr
          endchar
        </CharString>
        <CharString name="Thorn">
          54 59 hmoveto
          -4 callgsubr
          97 78 vlineto
          149 81 58 143 118 -77 35 -142 hvcurveto
          -89 79 hlineto
          82 15 rlineto
          44 -251 -44 vlineto
          82 -15 rlineto
          -15 callsubr
          -82 -15 rlineto
          169 162 rmoveto
          247 83 vlineto
          86 47 -27 -90 -99 -49 -31 -107 hvcurveto
          endchar
        </CharString>
        <CharString name="U">
          225 127 589 -102 callgsubr
          endchar
        </CharString>
        <CharString name="Uacute">
          225 319 681 -95 callgsubr
          62 -729 rmoveto
          208 48 101 190 hvcurveto
          -74 callsubr
          vhcurveto
          endchar
        </CharString>
        <CharString name="Ubreve">
          225 286 821 -94 callsubr
          -159 -232 -102 callgsubr
          endchar
        </CharString>
        <CharString name="Ucircumflex">
          225 226 716 -102 callsubr
          -178 -191 -102 callgsubr
          endchar
        </CharString>
        <CharString name="Udieresis">
          225 276 703 -103 callgsubr
          -128 -716 rmoveto
          208 48 101 190 hvcurveto
          -74 callsubr
          vhcurveto
          endchar
        </CharString>
        <CharString name="Ugrave">
          225 438 681 rmoveto
          -80 callsubr
          114 -780 rmoveto
          208 48 101 190 hvcurveto
          -74 callsubr
          vhcurveto
          endchar
        </CharString>
        <CharString name="Uhorn">
          225 359 -13 -95 callsubr
          endchar
        </CharString>
        <CharString name="Uhungarumlaut">
          225 250 676 -56 callgsubr
          212 -27 -56 callgsubr
          -47 -716 rmoveto
          208 48 101 190 hvcurveto
          -74 callsubr
          vhcurveto
          endchar
        </CharString>
        <CharString name="Umacron">
          225 218 -32 callsubr
          -423 -192 -102 callgsubr
          endchar
        </CharString>
        <CharString name="Uogonek">
          225 448 -187 rmoveto
          42 40 29 22 19 hvcurveto
          -58 callsubr
          44 59 42 14 10 hvcurveto
          87 41 24 90 134 vvcurveto
          -74 callsubr
          25 22 1 3 21 vhcurveto
          -34 -24 -28 -35 -45 vvcurveto
          -49 35 -25 48 vhcurveto
          endchar
        </CharString>
        <CharString name="Uring">
          225 294 -30 callgsubr
          -259 -103 -102 callgsubr
          endchar
        </CharString>
        <CharString name="Utilde">
          225 443 698 -100 callsubr
          -316 -109 -102 callgsubr
          endchar
        </CharString>
        <CharString name="V">
          95 283 -5 rmoveto
          49 hlineto
          220 596 59 -25 callsubr
          80 -16 rlineto
          -18 -16 callgsubr
          -414 -14 -38 -12 34 -152 421 rlineto
          15 -42 callsubr
          -240 -41 vlineto
          61 -16 rlineto
          endchar
        </CharString>
        <CharString name="W">
          438 256 -5 -92 callgsubr
        </CharString>
        <CharString name="Wacute">
          438 437 681 -95 callgsubr
          -159 -721 -92 callgsubr
        </CharString>
        <CharString name="Wcircumflex">
          438 320 716 -102 callsubr
          -143 -785 -92 callgsubr
        </CharString>
        <CharString name="Wdieresis">
          438 365 686 -103 callgsubr
          -320 -691 -92 callgsubr
        </CharString>
        <CharString name="Wgrave">
          438 523 681 rmoveto
          -80 callsubr
          -74 -772 -92 callgsubr
        </CharString>
        <CharString name="X">
          86 5 45 rmoveto
          -45 208 43 vlineto
          -65 13 -22 callgsubr
          138 198 140 -201 rlineto
          -12 vlineto
          -70 -14 rlineto
          -45 252 45 vlineto
          -71 14 -191 283 180 250 66 14 rlineto
          42 -221 -43 vlineto
          69 -13 rlineto
          -18 vlineto
          -128 -180 -122 177 rlineto
          19 vlineto
          60 13 rlineto
          45 -242 -45 vlineto
          63 -21 180 -259 -183 -265 rlineto
          endchar
        </CharString>
        <CharString name="Y">
          77 179 44 -89 callsubr
        </CharString>
        <CharString name="Y.loclGUA">
          206 413 648 -99 callgsubr
        </CharString>
        <CharString name="Yacute">
          77 244 681 -95 callgsubr
          -47 -716 rmoveto
          251 44 hlineto
          -90 callgsubr
          -82 -15 rlineto
          endchar
        </CharString>
        <CharString name="Yacute.loclGUA">
          206 523 767 -28 callgsubr
          83 -33 -99 callgsubr
        </CharString>
        <CharString name="Ycircumflex">
          77 161 716 -102 callsubr
          -61 -736 -89 callsubr
        </CharString>
        <CharString name="Ycircumflex.loclGUA">
          206 364 743 rmoveto
          122 -65 33 41 -74 61 rlineto
          32 -39 -22 22 -16 hhcurveto
          -14 -16 -17 -37 -46 hvcurveto
          -79 -64 25 -36 rlineto
          175 -32 -99 callgsubr
        </CharString>
        <CharString name="Ydieresis">
          77 202 694 -103 callgsubr
          -238 -650 -89 callsubr
        </CharString>
        <CharString name="Ydieresis.loclGUA">
          206 258 686 -103 callgsubr
          -56 -38 -99 callgsubr
        </CharString>
        <CharString name="Ygrave">
          77 364 681 rmoveto
          -80 callsubr
          8 -723 -89 callsubr
        </CharString>
        <CharString name="Ygrave.loclGUA">
          206 438 716 rmoveto
          -131 98 rlineto
          12 -17 -14 10 -11 hhcurveto
          -19 -19 -22 -47 -4 hvcurveto
          193 -86 rlineto
          -3 -33 -99 callgsubr
        </CharString>
        <CharString name="Z">
          52 35 59 -73 callsubr
          endchar
        </CharString>
        <CharString name="Zacute">
          52 216 681 -95 callgsubr
          -159 -716 rmoveto
          489 163 -49 hlineto
          -29 -104 rlineto
          -301 12 hlineto
          370 511 rlineto
          66 -470 -163 49 vlineto
          29 104 rlineto
          272 -19 hlineto
          -360 -511 rlineto
          endchar
        </CharString>
        <CharString name="Zacute.loclPLK">
          52 290 -55 callsubr
          -219 -633 -73 callsubr
          endchar
        </CharString>
        <CharString name="Zcaron">
          52 160 834 -84 callsubr
          -247 -710 -73 callsubr
          endchar
        </CharString>
        <CharString name="Zdotaccent">
          52 272 687 -103 callsubr
          -237 -628 -73 callsubr
          endchar
        </CharString>
        <CharString name="a">
          -27 180 -7 -107 callgsubr
          endchar
        </CharString>
        <CharString name="aacute">
          -32 166 535 rmoveto
          -93 callsubr
          -109 -121 rlineto
          37 -572 -107 callgsubr
          endchar
        </CharString>
        <CharString name="abreve">
          -32 223 -27 callsubr
          -48 -560 -107 callgsubr
          endchar
        </CharString>
        <CharString name="acircumflex">
          -32 339 544 -37 callgsubr
          -46 -635 -107 callgsubr
          endchar
        </CharString>
        <CharString name="acute">
          -305 565 vmoveto
          28 -30 -93 callsubr
          endchar
        </CharString>
        <CharString name="acutecomb">
          -202 565 rmoveto
          28 -30 -93 callsubr
          endchar
        </CharString>
        <CharString name="acutecomb.case">
          -193 681 -95 callgsubr
          endchar
        </CharString>
        <CharString name="adieresis">
          -32 108 575 -103 callgsubr
          -144 -582 -107 callgsubr
          endchar
        </CharString>
        <CharString name="ae">
          229 313 271 -67 callgsubr
        </CharString>
        <CharString name="aeacute">
          229 317 565 rmoveto
          28 -30 -93 callsubr
          -113 -415 -67 callgsubr
        </CharString>
        <CharString name="agrave">
          -32 292 535 rmoveto
          28 30 -83 callsubr
          57 -662 -107 callgsubr
          endchar
        </CharString>
        <CharString name="amacron">
          -32 49 -13 callgsubr
          116 -670 -107 callgsubr
          endchar
        </CharString>
        <CharString name="ampersand">
          104 456 55 rmoveto
          25 -25 rlineto
          -23 23 26 -7 22 hhcurveto
          86 43 hlineto
          -77 17 -55 56 rlineto
          22 38 11 43 41 vvcurveto
          68 -7 42 -12 35 vhcurveto
          -136 -45 hlineto
          83 -16 rlineto
          4 -10 7 -29 -46 vvcurveto
          -29 -5 -26 -9 -22 vhcurveto
          -218 226 rlineto
          -59 61 -18 18 47 vvcurveto
          56 23 34 74 58 28 -16 0 vhcurveto
          20 -102 rlineto
          49 148 hlineto
          10 -23 -57 18 -66 hhcurveto
          -120 -63 -71 -88 -56 29 -45 49 -53 hvcurveto
          -39 -19 -87 -54 -105 vvcurveto
          -143 117 -36 112 78 61 26 39 44 vhcurveto
          -255 261 rmoveto
          216 -221 rlineto
          -28 -33 -46 -15 -52 hhcurveto
          -122 -32 46 85 78 46 40 23 15 hvcurveto
          endchar
        </CharString>
        <CharString name="aogonek">
          -32 347 -187 rmoveto
          57 44 51 0 hvcurveto
          -58 callsubr
          32 30 30 23 19 hvcurveto
          40 4 32 14 0 vvcurveto
          38 vlineto
          -71 14 rlineto
          321 vlineto
          63 -44 52 -87 -54 -150 -42 -83 -28 23 -18 23 23 9 7 0 vhcurveto
          15 92 rlineto
          0 27 8 35 63 35 -25 -59 vhcurveto
          -75 vlineto
          -90 -13 rlineto
          -120 -17 -59 -51 -83 vvcurveto
          -66 40 -58 102 64 53 37 12 11 vhcurveto
          4 hlineto
          1 -17 7 -20 21 -6 rrcurveto
          -37 -25 -35 -38 -49 vvcurveto
          -49 35 -25 48 vhcurveto
          -134 243 rmoveto
          -60 -32 35 41 64 57 28 124 9 hvcurveto
          -159 vlineto
          0 -39 -18 -50 vhcurveto
          endchar
        </CharString>
        <CharString name="approxequal">
          23 86 302 -35 callsubr
          19 -175 -35 callsubr
          endchar
        </CharString>
        <CharString name="aring">
          -32 219 -30 callsubr
          -48 -585 -107 callgsubr
          endchar
        </CharString>
        <CharString name="aringacute">
          -27 191 788 rmoveto
          28 -30 -93 callsubr
          -154 -287 -48 callgsubr
          -60 -585 -107 callgsubr
          endchar
        </CharString>
        <CharString name="asciicircum">
          23 235 649 rmoveto
          -191 -387 rlineto
          73 hlineto
          149 311 147 -311 rlineto
          74 hlineto
          -190 387 rlineto
          endchar
        </CharString>
        <CharString name="asciitilde">
          23 359 229 rmoveto
          23 22 9 20 16 hvcurveto
          36 47 -20 28 -76 -35 -101 23 rlineto
          7 -33 -33 7 -25 hhcurveto
          -26 -18 -11 -20 -15 hvcurveto
          -35 -46 21 -26 75 33 101 -23 rlineto
          -7 34 19 -6 35 hhcurveto
          endchar
        </CharString>
        <CharString name="asterisk">
          -123 186 712 rmoveto
          -19 hlineto
          -40 -9 -15 -17 -16 9 -19 8 -17 hvcurveto
          36 -78 38 14 rlineto
          158 37 rmoveto
          42 -13 -10 14 -19 hhcurveto
          -23 -15 -20 -15 -16 hvcurveto
          -62 -58 25 -33 rlineto
          -211 43 rmoveto
          -8 -20 -4 -15 -11 vvcurveto
          -27 24 -5 15 10 17 2 1 10 vhcurveto
          84 10 rlineto
          41 vlineto
          138 -59 rmoveto
          -75 40 -23 -34 108 -104 rlineto
          30 20 12 14 15 vvcurveto
          26 -31 11 -21 12 vhcurveto
          -203 -117 rmoveto
          -18 23 15 -9 12 hhcurveto
          33 3 44 23 4 hvcurveto
          15 83 -40 12 rlineto
          endchar
        </CharString>
        <CharString name="at">
          255 375 -108 rmoveto
          133 78 68 1 hvcurveto
          -15 27 rlineto
          1 -94 -40 -83 -174 -119 101 208 243 173 72 130 144 120 -83 -195 -136 -53 -50 -61 -31 -21 18 32 4 1 13 2 12 vhcurveto
          43 262 rlineto
          -34 hlineto
          -10 -12 -11 -11 -10 -12 rrcurveto
          0 -52 24 -42 -133 -44 -157 -83 -83 30 -53 67 64 67 67 0 vhcurveto
          -55 14 51 -18 39 hhcurveto
          118 77 94 164 161 -120 153 -205 -224 -164 -185 -192 -212 139 -148 210 hvcurveto
          -42 236 rmoveto
          -36 -14 26 72 53 19 67 19 21 hvcurveto
          7 6 26 8 24 hhcurveto
          59 29 -17 0 hvcurveto
          -33 -197 rlineto
          0 -53 -40 -46 vhcurveto
          endchar
        </CharString>
        <CharString name="atilde">
          -32 293 574 -34 callsubr
          -118 -581 -107 callgsubr
          endchar
        </CharString>
        <CharString name="b">
          11 267 -9 rmoveto
          113 98 97 188 161 -80 67 -105 -74 -47 -35 -17 -18 hvcurveto
          233 -2 callgsubr
          -623 41 vlineto
          28 38 rlineto
          8 hlineto
          -12 13 39 -32 66 hhcurveto
          -12 58 rmoveto
          -42 -42 13 7 -17 hvcurveto
          350 vlineto
          5 18 40 10 45 hhcurveto
          97 34 -58 -128 -148 -51 -51 -82 hvcurveto
          endchar
        </CharString>
        <CharString name="backslash">
          -157 -54 668 rmoveto
          363 -835 62 27 -365 835 rlineto
          endchar
        </CharString>
        <CharString name="bar">
          -146 150 699 rmoveto
          -855 60 855 vlineto
          endchar
        </CharString>
        <CharString name="braceleft">
          -300 165 -151 rmoveto
          17 42 rlineto
          -55 30 -14 15 62 vvcurveto
          16 218 rlineto
          52 -44 13 -7 2 vhcurveto
          5 1 46 12 54 vvcurveto
          -15 200 rlineto
          62 13 16 55 30 vhcurveto
          -18 41 rlineto
          -73 -22 -54 -53 -83 vvcurveto
          1 -5 0 -5 1 -5 28 -198 rcurveline
          -61 -27 rlineto
          -34 vlineto
          61 -27 -28 -218 -1 -5 0 -5 -1 -5 rlinecurve
          -83 55 -53 73 -22 vhcurveto
          endchar
        </CharString>
        <CharString name="braceright">
          -300 42 -151 rmoveto
          73 22 55 53 83 vvcurveto
          -1 5 0 6 -1 5 -28 217 rcurveline
          60 27 rlineto
          34 vlineto
          -60 27 29 202 rlineto
          1 6 0 2 3 vvcurveto
          83 -54 53 -73 22 vhcurveto
          -18 -41 rlineto
          55 -30 13 -16 -62 vvcurveto
          -15 -200 rlineto
          -54 44 -12 7 -1 vhcurveto
          -8 -2 -43 -13 -52 vvcurveto
          16 -218 rlineto
          -62 -14 -15 -55 -30 vhcurveto
          endchar
        </CharString>
        <CharString name="bracketleft">
          -255 70 699 rmoveto
          -850 158 43 vlineto
          -88 12 rlineto
          740 vlineto
          88 12 rlineto
          43 vlineto
          endchar
        </CharString>
        <CharString name="bracketright">
          -255 24 -108 rmoveto
          -43 158 850 -158 -43 vlineto
          88 -12 rlineto
          -740 vlineto
          endchar
        </CharString>
        <CharString name="breve">
          -205 51 706 -54 callgsubr
        </CharString>
        <CharString name="brokenbar">
          -146 150 699 rmoveto
          -365 60 365 vlineto
          -60 -490 rmoveto
          -365 60 365 vlineto
          endchar
        </CharString>
        <CharString name="bullet">
          -94 90 305 rmoveto
          -63 50 -50 63 63 51 50 63 63 -51 51 -63 -63 -50 -51 -63 vhcurveto
          endchar
        </CharString>
        <CharString name="c">
          -68 399 52 rmoveto
          -80 callgsubr
          102 58 61 0 vhcurveto
          endchar
        </CharString>
        <CharString name="cacute">
          -53 163 565 rmoveto
          28 -30 -93 callsubr
          142 -634 rmoveto
          -80 callgsubr
          102 58 61 0 vhcurveto
          endchar
        </CharString>
        <CharString name="cacute.loclPLK">
          -68 206 -51 callgsubr
          112 -633 rmoveto
          -80 callgsubr
          102 58 61 0 vhcurveto
          endchar
        </CharString>
        <CharString name="caron">
          -212 147 -93 callgsubr
          endchar
        </CharString>
        <CharString name="ccaron">
          -53 247 -93 callgsubr
          7 -553 rmoveto
          102 58 61 0 hvcurveto
          -80 callgsubr
          vhcurveto
          endchar
        </CharString>
        <CharString name="ccedilla">
          -53 234 -53 callsubr
          21 vlineto
          93 5 53 55 0 vvcurveto
          -13 30 rlineto
          0 -48 -21 -64 -104 -57 49 136 133 31 67 101 24 27 -5 -7 14 vhcurveto
          16 -94 rlineto
          -4 4 14 -3 14 hhcurveto
          29 17 25 21 65 -52 60 -101 -148 -78 -127 -143 -146 77 -82 107 -13 hvcurveto
          -22 -52 -72 callsubr
        </CharString>
        <CharString name="ccircumflex">
          -68 91 577 -101 callsubr
          202 -631 rmoveto
          -80 callgsubr
          102 58 61 0 vhcurveto
          endchar
        </CharString>
        <CharString name="cdotaccent">
          -68 236 -78 callgsubr
          163 -516 rmoveto
          -80 callgsubr
          102 58 61 0 vhcurveto
          endchar
        </CharString>
        <CharString name="cedilla">
          -348 55 -53 callsubr
          29 -41 vlineto
          -25 -59 -72 callsubr
        </CharString>
        <CharString name="cent">
          -7 259 60 -50 callsubr
        </CharString>
        <CharString name="cent.osf">
          -7 259 -6 -50 callsubr
        </CharString>
        <CharString name="circumflex">
          -211 577 vmoveto
          28 -32 115 83 118 -84 35 35 -106 110 rlineto
          15 -15 -12 6 -11 hhcurveto
          -12 -16 -9 -18 -18 hvcurveto
          endchar
        </CharString>
        <CharString name="colon">
          -286 109 322 rmoveto
          -66 callsubr
          -333 vmoveto
          -66 callsubr
          endchar
        </CharString>
        <CharString name="comma">
          -323 56 -129 -23 callsubr
        </CharString>
        <CharString name="copyright">
          140 -2 325 rmoveto
          -180 146 -146 180 180 146 146 180 180 -146 146 -180 -180 -146 -146 -180 vhcurveto
          326 -273 rmoveto
          -152 -111 122 150 150 111 122 152 151 115 -122 -150 -150 -115 -122 -151 hvcurveto
          83 218 rmoveto
          -10 -53 rlineto
          0 -12 -12 -51 -64 -36 28 89 98 30 24 69 39 20 -6 0 vhcurveto
          10 -52 rlineto
          33 94 hlineto
          9 -22 -43 6 -43 hhcurveto
          -103 -61 -80 -92 -108 49 -60 107 61 38 13 9 20 hvcurveto
          93 vlineto
          endchar
        </CharString>
        <CharString name="currency">
          23 101 201 rmoveto
          -87 -91 37 -37 92 88 rlineto
          -23 33 40 -13 44 hhcurveto
          46 42 15 26 34 hvcurveto
          97 -93 37 37 -94 97 rlineto
          24 33 15 41 45 vvcurveto
          43 -14 40 -23 32 vhcurveto
          92 96 -37 37 -95 -90 rlineto
          27 -34 -43 16 -47 hhcurveto
          -45 -41 -15 -24 -33 hvcurveto
          -90 86 -37 -37 85 -89 rlineto
          -25 -34 -15 -42 -46 vvcurveto
          -47 16 -44 26 -34 vhcurveto
          30 125 rmoveto
          69 60 60 69 69 60 -60 -69 -69 -60 -59 -69 -69 -60 59 69 vhcurveto
          endchar
        </CharString>
        <CharString name="d">
          31 224 -9 -76 callgsubr
          31 70 -63 callgsubr
          endchar
        </CharString>
        <CharString name="dagger">
          -73 187 433 rmoveto
          -14 -433 rlineto
          87 hlineto
          -13 433 -5 callgsubr
          12 182 rlineto
          -84 hlineto
          12 -182 -158 12 rlineto
          -78 vlineto
          endchar
        </CharString>
        <CharString name="daggerdbl">
          -73 175 hmoveto
          84 hlineto
          -12 167 -5 callgsubr
          rlineto
          227 vlineto
          -5 callgsubr
          12 167 rlineto
          -84 hlineto
          12 -167 -158 12 rlineto
          -78 vlineto
          158 12 rlineto
          -227 vlineto
          -158 12 rlineto
          -78 vlineto
          158 12 rlineto
          endchar
        </CharString>
        <CharString name="dcaron">
          38 493 542 -66 callgsubr
          -268 -551 -76 callgsubr
          31 70 -63 callgsubr
          endchar
        </CharString>
        <CharString name="dcroat">
          38 225 -9 rmoveto
          72 49 39 19 18 hvcurveto
          4 -1 13 -52 136 20 rlineto
          39 vlineto
          -71 15 rlineto
          482 38 48 -38 85 vlineto
          -28 14 -136 -17 rlineto
          -39 vlineto
          82 -13 rlineto
          -30 -181 -48 181 -87 vlineto
          13 -15 -36 26 -59 hhcurveto
          -91 -122 -73 -213 -161 87 -66 97 hvcurveto
          31 70 -63 callgsubr
          endchar
        </CharString>
        <CharString name="degree">
          -269 22 570 rmoveto
          -54 42 -42 54 54 43 42 54 54 -43 43 -54 -54 -42 -43 -54 vhcurveto
          44 -1 rmoveto
          30 23 23 29 30 23 -23 -30 -29 -23 -23 -30 -29 -23 23 29 vhcurveto
          endchar
        </CharString>
        <CharString name="dieresis">
          -190 51 575 -103 callgsubr
          endchar
        </CharString>
        <CharString name="divide">
          23 264 371 rmoveto
          -66 callsubr
          -197 -132 rmoveto
          395 63 -395 hlineto
          197 -265 rmoveto
          -66 callsubr
          endchar
        </CharString>
        <CharString name="dollar">
          -23 448 188 rmoveto
          111 -78 37 -96 41 vhcurveto
          -77 32 -50 21 74 vvcurveto
          62 35 28 74 44 33 -10 -13 23 vhcurveto
          19 -94 rlineto
          49 151 hlineto
          -25 9 -61 12 -51 3 -4 108 rcurveline
          -54 hlineto
          -4 -109 rlineto
          -102 -13 -63 -67 -92 vvcurveto
          -114 94 -40 72 -30 vhcurveto
          90 -37 46 -24 -76 vvcurveto
          -69 -38 -35 -76 -52 -46 17 22 -27 vhcurveto
          -14 100 rlineto
          -50 -143 hlineto
          28 -26 67 -22 63 -5 5 -114 rcurveline
          53 hlineto
          5 116 rlineto
          101 14 67 72 103 vvcurveto
          endchar
        </CharString>
        <CharString name="dollar.osf">
          -27 222 -117 rmoveto
          53 hlineto
          4 112 rlineto
          73 11 69 44 103 182 -274 -67 125 vvcurveto
          52 21 21 83 52 39 -15 0 vhcurveto
          16 -72 rlineto
          41 129 hlineto
          -17 7 -53 12 -50 3 -4 107 rcurveline
          -54 hlineto
          -4 -109 rlineto
          -90 -14 -57 -59 -83 -185 269 71 -121 vvcurveto
          -62 -13 -24 -89 -56 -39 20 5 -9 vhcurveto
          -14 85 rlineto
          -45 -128 hlineto
          23 -20 63 -18 58 -3 rrcurveto
          endchar
        </CharString>
        <CharString name="dotaccent">
          -390 56 -78 callgsubr
          endchar
        </CharString>
        <CharString name="dotbelowcomb">
          -61 -172 -103 callsubr
          endchar
        </CharString>
        <CharString name="dotlessi">
          -214 28 41 -77 callgsubr
        </CharString>
        <CharString name="e">
          -48 240 -9 -106 callsubr
          endchar
        </CharString>
        <CharString name="eacute">
          -36 183 535 rmoveto
          -93 callsubr
          -109 -121 rlineto
          97 -574 -106 callsubr
          endchar
        </CharString>
        <CharString name="ebreve">
          -48 143 706 -91 callgsubr
          97 -715 -106 callsubr
          endchar
        </CharString>
        <CharString name="ecaron">
          -36 242 -93 callgsubr
          10 -553 -106 callsubr
          endchar
        </CharString>
        <CharString name="ecircumflex">
          -36 348 544 -37 callgsubr
          22 -637 -106 callsubr
          endchar
        </CharString>
        <CharString name="edieresis">
          -36 140 575 -103 callgsubr
          -99 -584 -106 callsubr
          endchar
        </CharString>
        <CharString name="edotaccent">
          -36 246 -78 callgsubr
          6 -577 -106 callsubr
          endchar
        </CharString>
        <CharString name="egrave">
          -36 306 535 rmoveto
          28 30 -83 callsubr
          120 -664 -106 callsubr
          endchar
        </CharString>
        <CharString name="eight">
          -25 -10 58 546 66 hstem
          40 87 222 79 vstem
          240 -10 rmoveto
          151 61 96 93 83 -51 46 -73 39 hvcurveto
          59 33 43 57 69 vvcurveto
          90 -60 64 -119 -107 -86 -70 -106 -73 41 -49 65 -36 vhcurveto
          -68 -39 -54 -64 -79 vvcurveto
          -98 69 -56 129 vhcurveto
          49 376 rmoveto
          -13 6 -15 6 -14 7 rrcurveto
          -75 33 -34 28 59 vvcurveto
          52 26 37 78 76 33 -26 -75 -56 -21 -37 -41 -34 vhcurveto
          -40 -318 rmoveto
          -84 -36 40 80 48 21 51 52 40 hvcurveto
          18 -7 rlineto
          102 -40 47 -32 -62 vvcurveto
          -77 -38 -41 -82 vhcurveto
          endchar
        </CharString>
        <CharString name="eight.osf">
          -27 232 -10 rmoveto
          147 60 91 92 87 -49 49 -77 40 hvcurveto
          58 33 47 56 74 vvcurveto
          95 -57 62 -118 -107 -81 -80 -96 -73 28 -55 81 -41 vhcurveto
          -67 -36 -56 -63 -77 vvcurveto
          -93 65 -65 126 vhcurveto
          30 383 rmoveto
          -25 11 rlineto
          -73 30 -30 34 58 vvcurveto
          58 24 39 77 73 37 -34 -76 -64 -41 -28 -42 -28 vhcurveto
          -23 -321 rmoveto
          -85 -33 40 75 43 30 52 68 38 hvcurveto
          18 -6 rlineto
          77 -25 43 -41 -63 vvcurveto
          -72 -37 -41 -81 vhcurveto
          endchar
        </CharString>
        <CharString name="ellipsis">
          38 89 -11 rmoveto
          -26 callgsubr
          178 hmoveto
          -26 callgsubr
          176 hmoveto
          -26 callgsubr
          endchar
        </CharString>
        <CharString name="emacron">
          -36 79 -13 callgsubr
          163 -672 -106 callsubr
          endchar
        </CharString>
        <CharString name="emdash">
          493 296 vmoveto
          -59 1000 59 vlineto
          endchar
        </CharString>
        <CharString name="endash">
          -7 296 vmoveto
          -59 500 59 vlineto
          endchar
        </CharString>
        <CharString name="eng">
          45 369 -165 rmoveto
          69 38 29 53 hvcurveto
          450 vlineto
          87 -48 50 -83 -71 -76 -42 -7 -13 vhcurveto
          -1 4 -9 35 -149 -57 callgsubr
          -80 -14 rlineto
          -15 callgsubr
          367 vlineto
          7 23 44 5 34 hhcurveto
          74 31 -24 -57 hvcurveto
          -444 -6 callgsubr
        </CharString>
        <CharString name="eogonek">
          -36 306 -187 rmoveto
          57 44 51 0 hvcurveto
          -58 callsubr
          36 39 42 30 21 hvcurveto
          36 18 22 23 0 vvcurveto
          -14 28 rlineto
          0 -41 -24 -79 -117 -40 81 91 vhcurveto
          251 hlineto
          37 11 17 72 92 -47 90 -117 -129 -94 -111 -160 -133 69 -109 146 13 12 1 2 12 hvcurveto
          -35 -24 -31 -36 -47 vvcurveto
          -49 35 -25 48 vhcurveto
          -180 466 rmoveto
          108 1 36 59 82 hhcurveto
          77 21 -44 -75 -15 -1 -13 -2 -12 hvcurveto
          endchar
        </CharString>
        <CharString name="equal">
          23 65 317 rmoveto
          400 60 -400 hlineto
          -219 vmoveto
          400 60 -400 hlineto
          endchar
        </CharString>
        <CharString name="estimated">
          281 201 105 rmoveto
          210 530 vlineto
          198 -7 -131 143 -197 hhcurveto
          -185 -149 -150 -185 -185 149 -149 185 115 102 65 77 61 hvcurveto
          -48 hlineto
          -65 -57 -76 -42 -96 hhcurveto
          -83 -61 31 52 -52 hvcurveto
          390 244 rmoveto
          -390 190 hlineto
          51 52 62 31 82 hhcurveto
          80 62 -30 -50 52 hvcurveto
          endchar
        </CharString>
        <CharString name="eth">
          18 258 -9 rmoveto
          141 86 103 217 166 -51 103 -74 56 hvcurveto
          70 45 -26 41 -91 -59 rlineto
          17 -37 -40 8 -41 hhcurveto
          -55 -23 -7 0 hvcurveto
          -40 vlineto
          55 44 -5 -13 35 hvcurveto
          -81 -53 27 -39 102 66 48 -35 24 -54 12 -61 rlinecurve
          10 -20 -40 18 -46 hhcurveto
          -148 -89 -94 -143 -148 70 -99 148 hvcurveto
          9 58 rmoveto
          -128 -9 110 94 107 33 52 110 51 37 -13 -11 29 hvcurveto
          3 -34 1 -35 -35 vvcurveto
          -151 -24 -84 -103 vhcurveto
          endchar
        </CharString>
        <CharString name="exclam">
          -306 35 667 rmoveto
          34 -507 rlineto
          44 hlineto
          22 432 2 22 7 vvcurveto
          29 -7 27 -45 -37 -13 -10 0 vhcurveto
          53 -678 -10 callgsubr
        </CharString>
        <CharString name="exclamdown">
          -306 95 400 -7 callgsubr
          8 -566 rmoveto
          37 13 10 0 hvcurveto
          -34 507 rlineto
          -44 hlineto
          -22 -432 -2 -22 -7 vvcurveto
          -29 7 -27 45 vhcurveto
          endchar
        </CharString>
        <CharString name="f">
          -207 15 hmoveto
          255 41 hlineto
          -16 callsubr
          127 vlineto
          4 6 13 5 13 hhcurveto
          18 10 -3 -22 83 hvcurveto
          9 4 19 18 26 vvcurveto
          27 -18 21 -38 -101 -89 -85 -120 -8 -2 callsubr
          endchar
        </CharString>
        <CharString name="f_f">
          93 15 hmoveto
          255 41 hlineto
          -104 16 rlineto
          380 218 -382 vlineto
          -69 -14 rlineto
          -41 255 41 vlineto
          -16 callsubr
          127 vlineto
          -39 callgsubr
          -10 -2 rlineto
          -207 127 hlineto
          -39 callgsubr
          -60 -12 rlineto
          -47 61 -382 vlineto
          -69 -14 rlineto
          endchar
        </CharString>
        <CharString name="fi">
          65 27 41 rmoveto
          -41 244 41 vlineto
          -93 16 rlineto
          380 126 vlineto
          83 -25 rlineto
          -357 vlineto
          -81 -14 rlineto
          -41 241 41 vlineto
          -31 callsubr
          428 vlineto
          -28 11 rlineto
          -263 107 hlineto
          9 8 26 7 36 81 23 -24 33 hhcurveto
          30 16 25 23 48 -40 12 -74 -87 -129 -63 -142 -6 hvcurveto
          -25 callgsubr
          endchar
        </CharString>
        <CharString name="five">
          -66 -10 58 298 63 163 76 hstem
          74 58 233 93 vstem
          198 -10 rmoveto
          147 84 89 136 133 -80 61 -185 hvcurveto
          -61 163 293 76 -351 -302 101 hlineto
          145 45 -54 -92 -92 -35 -60 -100 -64 -34 18 6 -13 hvcurveto
          -9 96 rlineto
          -54 hlineto
          -7 -136 rlineto
          -23 38 57 -19 83 hhcurveto
          endchar
        </CharString>
        <CharString name="five.osf">
          -68 102 -166 rmoveto
          173 116 93 151 167 -174 29 -111 hvcurveto
          13 169 rlineto
          248 114 -44 hlineto
          -11 -38 rlineto
          -243 hlineto
          -26 -303 rlineto
          161 93 -40 -128 -105 -73 -61 -199 hvcurveto
          -41 vlineto
          0 27 -7 50 vhcurveto
          endchar
        </CharString>
        <CharString name="fl">
          83 27 41 rmoveto
          -41 255 41 vlineto
          -16 callsubr
          118 vlineto
          15 25 51 3 24 hhcurveto
          43 51 -5 -12 30 hvcurveto
          -558 vlineto
          -80 -14 rlineto
          -41 241 41 vlineto
          -79 14 rlineto
          609 vlineto
          0 -51 37 -106 -147 -85 -73 -132 -5 callsubr
          endchar
        </CharString>
        <CharString name="florin">
          -79 162 403 rmoveto
          -19 -377 rlineto
          -38 -3 -11 -40 -47 hhcurveto
          -29 -25 10 7 -18 hvcurveto
          0 -38 -5 -38 vvcurveto
          -39 27 -9 50 116 55 87 113 8 vhcurveto
          13 329 rlineto
          109 hlineto
          8 57 rlineto
          -112 hlineto
          6 63 rlineto
          38 6 12 25 47 hhcurveto
          29 25 -10 -7 18 hvcurveto
          0 38 5 38 vvcurveto
          39 -27 9 -50 -116 -56 -87 -113 -7 vhcurveto
          -82 -17 -5 -40 rlineto
          endchar
        </CharString>
        <CharString name="four">
          -25 0 244 -63 63 432 -20 hstemhm
          279 82 hintmask 10110000
          206 hmoveto
          248 44 hlineto
          -83 15 rlineto
          hintmask 01110000
          122 92 vlineto
          hintmask 10110000
          63 -92 410 vlineto
          -51 22 -324 -448 rlineto
          hintmask 01110000
          25 -47 rlineto
          268 -122 hlineto
          -83 -15 rlineto
          hintmask 10110000
          -120 200 rmoveto
          -3 6 197 275 9 17 rlineto
          -298 vlineto
          endchar
        </CharString>
        <CharString name="four.osf">
          2 303 -164 rmoveto
          78 195 92 62 -92 420 hlineto
          -51 21 -320 -450 24 -53 rlineto
          269 hlineto
          -215 62 rmoveto
          7 vlineto
          209 291 6 8 rlineto
          -306 vlineto
          endchar
        </CharString>
        <CharString name="fraction">
          -103 422 691 -1 callsubr
          endchar
        </CharString>
        <CharString name="g">
          -46 214 -166 -104 callgsubr
        </CharString>
        <CharString name="g_tilde.loclGUA">
          -46 91 647 rmoveto
          -29 callsubr
          68 34 -99 callsubr
          123 -813 -104 callgsubr
        </CharString>
        <CharString name="gbreve">
          -41 221 -27 callsubr
          -7 -719 -104 callgsubr
        </CharString>
        <CharString name="gcaron">
          -46 230 -93 callgsubr
          -16 -710 -104 callgsubr
        </CharString>
        <CharString name="gcircumflex">
          -46 83 577 -101 callsubr
          25 -849 -104 callgsubr
        </CharString>
        <CharString name="gcommaaccent">
          -41 221 547 rmoveto
          35 13 28 24 67 -57 58 0 hvcurveto
          -31 hlineto
          10 -29 11 -41 -28 vvcurveto
          -25 -12 -19 -14 -13 vhcurveto
          -16 14 18 -6 13 hhcurveto
          -7 -713 -104 callgsubr
        </CharString>
        <CharString name="gdotaccent">
          -46 228 -78 callgsubr
          -14 -734 -104 callgsubr
        </CharString>
        <CharString name="germandbls">
          97 386 -9 rmoveto
          88 83 42 106 91 -62 25 -75 22 hvcurveto
          -48 14 -38 10 43 vvcurveto
          60 75 21 40 41 vhcurveto
          22 23 16 31 41 vvcurveto
          90 -77 50 -102 -122 -91 -72 -133 -2 callsubr
          -41 151 527 vlineto
          69 39 41 85 77 25 -34 -41 -41 -24 -20 -34 -26 vhcurveto
          -38 -29 -51 -30 -82 vvcurveto
          -95 67 -16 55 -16 vhcurveto
          72 -20 28 -11 -49 vvcurveto
          -40 -20 -41 -69 -42 -24 15 13 -13 2 callsubr
          -41 hlineto
          -12 -122 rlineto
          -13 16 56 -26 70 hhcurveto
          endchar
        </CharString>
        <CharString name="grave">
          -305 655 vmoveto
          174 -120 28 30 -83 callsubr
          endchar
        </CharString>
        <CharString name="gravecomb">
          -202 655 rmoveto
          174 -120 28 30 -83 callsubr
          endchar
        </CharString>
        <CharString name="gravecomb.case">
          -22 681 rmoveto
          -80 callsubr
          endchar
        </CharString>
        <CharString name="greater">
          23 31 65 rmoveto
          31 -65 436 216 rlineto
          62 vlineto
          -435 224 -32 -66 383 -187 rlineto
          endchar
        </CharString>
        <CharString name="greaterequal">
          23 60 52 rmoveto
          436 216 rlineto
          62 vlineto
          -435 218 -27 -56 389 -194 -393 -189 rlineto
          8 -141 rmoveto
          457 63 -457 hlineto
          endchar
        </CharString>
        <CharString name="guillemotleft">
          -128 87 175 rmoveto
          -38 callgsubr
          151 hmoveto
          -38 callgsubr
          endchar
        </CharString>
        <CharString name="guillemotright">
          -128 107 245 -37 callsubr
          235 -156 -37 callsubr
          endchar
        </CharString>
        <CharString name="guilsinglleft">
          -279 87 175 rmoveto
          -38 callgsubr
          endchar
        </CharString>
        <CharString name="guilsinglright">
          -279 107 245 -37 callsubr
          endchar
        </CharString>
        <CharString name="h">
          68 24 hmoveto
          -65 callgsubr
          endchar
        </CharString>
        <CharString name="hbar">
          68 24 hmoveto
          242 41 hlineto
          -79 14 rlineto
          366 vlineto
          0 56 13 45 67 38 -19 -62 vhcurveto
          -68 callsubr
          312 vlineto
          102 -63 35 -68 -78 -79 -51 0 vhcurveto
          99 137 48 -137 85 vlineto
          -28 14 -136 -17 rlineto
          -39 vlineto
          82 -13 rlineto
          -30 -82 -48 82 -497 vlineto
          -81 -14 rlineto
          endchar
        </CharString>
        <CharString name="hcircumflex">
          68 -2 731 -101 callsubr
          -80 -837 rmoveto
          -65 callgsubr
          endchar
        </CharString>
        <CharString name="hookabovecomb">
          -155 536 -100 callgsubr
          endchar
        </CharString>
        <CharString name="hookabovecomb.case">
          -159 677 -101 callgsubr
          endchar
        </CharString>
        <CharString name="hungarumlaut">
          -188 58 669 rmoveto
          -58 -111 30 -22 -60 callgsubr
          161 hmoveto
          -58 -111 30 -22 -60 callgsubr
          endchar
        </CharString>
        <CharString name="hyphen">
          -3 callgsubr
        </CharString>
        <CharString name="i">
          -39 callsubr
          endchar
        </CharString>
        <CharString name="i.loclTRK">
          -214 146 -78 callgsubr
          -118 -18 callgsubr
          endchar
        </CharString>
        <CharString name="iacute">
          -214 66 535 rmoveto
          -93 callsubr
          -109 -121 rlineto
          -10 -565 -40 callgsubr
        </CharString>
        <CharString name="iacute_j.loclNLD">
          45 98 565 rmoveto
          28 -30 -93 callsubr
          171 -121 rmoveto
          28 -30 -93 callsubr
          -459 -645 -85 callgsubr
          172 -172 -43 callsubr
        </CharString>
        <CharString name="ibreve">
          -214 49 706 -91 callgsubr
          -21 -665 -77 callgsubr
        </CharString>
        <CharString name="icircumflex">
          -214 -15 584 rmoveto
          25 -28 108 76 99 -78 32 32 -70 81 rlineto
          19 -16 -28 33 -14 hhcurveto
          -14 -32 -36 -16 -14 hvcurveto
          -33 -626 -77 callgsubr
        </CharString>
        <CharString name="idieresis">
          -214 38 573 rmoveto
          35 20 29 33 33 -20 21 -31 -33 -22 -28 -32 -33 20 -23 31 hvcurveto
          171 hmoveto
          35 20 29 33 33 -20 21 -31 -33 -22 -28 -32 -33 20 -23 31 hvcurveto
          -181 -573 -40 callgsubr
        </CharString>
        <CharString name="igrave">
          -214 14 655 rmoveto
          174 -120 28 30 -83 callsubr
          14 -614 -77 callgsubr
        </CharString>
        <CharString name="ij">
          45 139 -78 callgsubr
          276 hmoveto
          39 22 32 36 37 -22 23 -34 -36 -25 -31 -35 -37 22 -25 34 hvcurveto
          -387 -18 callgsubr
          255 -220 -69 callgsubr
        </CharString>
        <CharString name="imacron">
          -214 -24 606 rmoveto
          276 hlineto
          8 60 rlineto
          -276 hlineto
          44 -666 -40 callgsubr
        </CharString>
        <CharString name="infinity">
          293 400 247 rmoveto
          -90 67 50 -30 70 hhcurveto
          97 76 71 112 112 -76 72 -97 -70 -48 -29 -91 -69 hvcurveto
          91 -69 -48 29 -70 hhcurveto
          -97 -76 -72 -112 -112 76 -71 97 70 50 30 90 67 hvcurveto
          -44 63 rmoveto
          -57 -39 -46 -57 -58 hhcurveto
          -55 -46 42 72 72 37 45 64 64 43 -62 -55 36 hvcurveto
          88 hmoveto
          55 36 43 62 64 hhcurveto
          64 37 -45 -72 -72 -46 -42 -55 -58 -46 57 57 -39 hvcurveto
          endchar
        </CharString>
        <CharString name="integral">
          -171 129 538 rmoveto
          -582 vlineto
          -28 -7 -19 -25 vhcurveto
          -47 -10 22 -18 hhcurveto
          -10 -10 -11 -12 -25 vvcurveto
          -26 31 -20 37 78 55 83 92 vhcurveto
          582 vlineto
          28 7 19 25 vhcurveto
          47 10 -22 18 hhcurveto
          10 10 11 12 25 vvcurveto
          26 -31 20 -37 -78 -55 -83 -92 vhcurveto
          endchar
        </CharString>
        <CharString name="iogonek">
          -214 140 -78 callgsubr
          -112 -527 rmoveto
          -41 170 vlineto
          -39 -24 -36 -38 -51 -41 callsubr
          -58 callsubr
          34 33 31 23 18 hvcurveto
          23 41 hlineto
          -81 callsubr
          endchar
        </CharString>
        <CharString name="itilde">
          -214 9 647 rmoveto
          -29 callsubr
          68 34 -99 callsubr
          19 -606 -77 callgsubr
        </CharString>
        <CharString name="j">
          -248 122 -78 callgsubr
          -52 -733 -69 callgsubr
        </CharString>
        <CharString name="jcircumflex">
          -248 -12 577 -101 callsubr
          -107 -800 -43 callsubr
        </CharString>
        <CharString name="k">
          -18 19 -70 callsubr
          395 hlineto
          -65 callsubr
          endchar
        </CharString>
        <CharString name="k.001">
          -18 19 -70 callsubr
          395 hlineto
          -65 callsubr
          endchar
        </CharString>
        <CharString name="kcommaaccent">
          -18 19 -70 callsubr
          395 hlineto
          -65 callsubr
          135 -242 -92 callsubr
        </CharString>
        <CharString name="kgreenlandic">
          -11 26 -70 callsubr
          190 hlineto
          -72 callgsubr
          -356 vlineto
          endchar
        </CharString>
        <CharString name="l">
          -224 19 -28 callsubr
          635 vlineto
          -65 callsubr
          endchar
        </CharString>
        <CharString name="lacute">
          -224 23 683 -95 callgsubr
          18 -718 rmoveto
          -36 callgsubr
          hlineto
          -31 callsubr
          635 vlineto
          -65 callsubr
          -80 -14 rlineto
          endchar
        </CharString>
        <CharString name="lcaron">
          -216 232 542 -66 callgsubr
          -213 -542 rmoveto
          -36 callgsubr
          hlineto
          -31 callsubr
          635 vlineto
          -65 callsubr
          -80 -14 rlineto
          endchar
        </CharString>
        <CharString name="lcommaaccent">
          -224 19 hmoveto
          -36 callgsubr
          hlineto
          -31 callsubr
          635 vlineto
          -65 callsubr
          -80 -14 rlineto
          80 -228 -92 callsubr
        </CharString>
        <CharString name="ldot">
          -224 19 -28 callsubr
          635 vlineto
          -65 callsubr
          176 240 rmoveto
          -66 callsubr
          endchar
        </CharString>
        <CharString name="less">
          23 32 278 rmoveto
          -62 vlineto
          436 -216 31 65 -383 184 383 187 -32 66 rlineto
          endchar
        </CharString>
        <CharString name="lessequal">
          23 470 52 rmoveto
          30 57 -393 189 389 194 -27 56 -435 -218 rlineto
          -62 vlineto
          1 -300 rmoveto
          457 63 -457 hlineto
          endchar
        </CharString>
        <CharString name="logicalnot">
          23 40 364 rmoveto
          -60 369 -182 53 242 vlineto
          endchar
        </CharString>
        <CharString name="longs">
          -207 15 hmoveto
          255 41 hlineto
          -104 16 rlineto
          564 vlineto
          -39 callgsubr
          -60 -12 rlineto
          -47 61 -382 vlineto
          -69 -14 rlineto
          endchar
        </CharString>
        <CharString name="lozenge">
          23 62 330 rmoveto
          171 -330 rlineto
          62 hlineto
          173 330 -173 319 rlineto
          -62 hlineto
          154 -321 rmoveto
          -120 -257 -125 258 122 239 rlineto
          endchar
        </CharString>
        <CharString name="lslash">
          -224 19 -28 callsubr
          279 vlineto
          103 37 rlineto
          63 vlineto
          -103 -39 rlineto
          295 vlineto
          -23 9 -139 -22 -75 callsubr
          -257 vlineto
          -100 -37 rlineto
          -59 vlineto
          100 36 rlineto
          -250 vlineto
          endchar
        </CharString>
        <CharString name="m">
          341 26 hmoveto
          241 41 hlineto
          -79 14 rlineto
          365 vlineto
          8 34 42 6 24 hhcurveto
          71 26 -22 -59 hvcurveto
          -298 vlineto
          -65 -15 rlineto
          -40 210 40 vlineto
          -63 15 rlineto
          341 vlineto
          25 vlineto
          7 30 45 6 26 hhcurveto
          71 27 -23 -58 hvcurveto
          -68 callsubr
          321 vlineto
          73 -56 55 -73 -52 -77 -25 -29 -39 vhcurveto
          32 -21 -46 22 -45 hhcurveto
          -42 -63 -21 -30 -46 hvcurveto
          -27 41 -135 -28 -50 callgsubr
          80 -16 rlineto
          -357 vlineto
          -80 -14 rlineto
          endchar
        </CharString>
        <CharString name="macron">
          -164 10 -32 callgsubr
          endchar
        </CharString>
        <CharString name="minus">
          23 67 302 rmoveto
          -63 395 63 vlineto
          endchar
        </CharString>
        <CharString name="multiply">
          23 86 138 rmoveto
          47 -48 133 133 132 -133 46 46 -131 133 132 132 -50 49 -132 -133 -131 133 -46 -46 132 -133 rlineto
          endchar
        </CharString>
        <CharString name="n">
          69 26 hmoveto
          -97 callgsubr
          endchar
        </CharString>
        <CharString name="nacute">
          69 227 535 rmoveto
          -93 callsubr
          -109 -121 rlineto
          -173 -565 rmoveto
          -97 callgsubr
          endchar
        </CharString>
        <CharString name="nacute.loclPLK">
          69 255 -51 callgsubr
          -310 -685 rmoveto
          -97 callgsubr
          endchar
        </CharString>
        <CharString name="napostrophe">
          93 19 542 -66 callgsubr
          7 -542 rmoveto
          -97 callgsubr
          endchar
        </CharString>
        <CharString name="ncaron">
          69 280 -93 callgsubr
          -254 -544 rmoveto
          -97 callgsubr
          endchar
        </CharString>
        <CharString name="ncommaaccent">
          69 26 hmoveto
          -97 callgsubr
          229 -228 -92 callsubr
        </CharString>
        <CharString name="nine">
          -22 -5 45 218 68 276 58 hstem
          33 92 246 94 vstem
          154 -5 rmoveto
          184 118 109 247 228 -73 81 -149 -112 -98 -67 -152 -116 76 -67 106 101 55 49 0 hvcurveto
          -195 -4 -67 -72 -215 hhcurveto
          -40 vlineto
          0 23 -5 55 vhcurveto
          97 331 rmoveto
          -64 -71 26 98 96 23 56 91 128 4 -118 -134 hvcurveto
          -2 -6 -47 -22 -58 hhcurveto
          endchar
        </CharString>
        <CharString name="nine.osf">
          -18 152 -166 rmoveto
          171 119 155 222 221 -66 99 -149 -124 -76 -86 -139 -117 68 -76 105 57 61 21 29 28 hvcurveto
          -195 -4 -83 -87 -185 hhcurveto
          -40 vlineto
          -4 14 32 -3 32 hhcurveto
          92 348 rmoveto
          -82 -44 44 81 119 30 47 76 75 34 -44 -127 10 hvcurveto
          2 -28 1 -32 -36 vvcurveto
          -14 -24 -42 -10 -36 hhcurveto
          endchar
        </CharString>
        <CharString name="notequal">
          23 177 158 rmoveto
          -87 -134 52 -33 107 167 rlineto
          214 60 -175 hlineto
          64 99 rlineto
          111 60 -73 hlineto
          70 108 -49 32 -92 -140 rlineto
          -256 -60 217 hlineto
          -64 -99 rlineto
          -153 -60 hlineto
          endchar
        </CharString>
        <CharString name="ntilde">
          69 355 581 -34 callsubr
          -329 -581 rmoveto
          -97 callgsubr
          endchar
        </CharString>
        <CharString name="numbersign">
          23 106 124 rmoveto
          1 callgsubr
          134 hlineto
          1 callgsubr
          128 59 -117 hlineto
          26 136 rlineto
          114 59 -102 -4 callsubr
          -4 callsubr
          -59 122 hlineto
          -26 -136 rlineto
          -119 -59 hlineto
          313 59 rmoveto
          -134 hlineto
          26 136 rlineto
          134 hlineto
          endchar
        </CharString>
        <CharString name="o">
          -10 236 -9 -104 callsubr
          endchar
        </CharString>
        <CharString name="oacute">
          14 181 565 rmoveto
          28 -30 -93 callsubr
          -39 -695 -104 callsubr
          endchar
        </CharString>
        <CharString name="oacute.loclPLK">
          -10 216 -51 callgsubr
          -61 -694 -104 callsubr
          endchar
        </CharString>
        <CharString name="obreve">
          -10 149 706 -91 callgsubr
          87 -715 -104 callsubr
          endchar
        </CharString>
        <CharString name="ocircumflex">
          14 115 577 -101 callsubr
          30 -692 -104 callsubr
          endchar
        </CharString>
        <CharString name="odieresis">
          14 155 575 -103 callgsubr
          -115 -584 -104 callsubr
          endchar
        </CharString>
        <CharString name="oe">
          320 778 57 rmoveto
          -14 28 rlineto
          0 -41 -24 -79 -117 -40 81 91 vhcurveto
          251 hlineto
          37 11 17 72 92 -47 90 -117 -71 -61 -34 -56 -40 hvcurveto
          57 -35 -59 33 -84 -47 callsubr
          82 62 35 57 39 hvcurveto
          -56 34 59 -36 84 hhcurveto
          103 61 66 0 hvcurveto
          -505 -8 rmoveto
          -108 -32 77 119 128 21 73 112 99 32 -65 -136 -123 -29 -73 -95 hvcurveto
          429 238 rmoveto
          -214 -8 rlineto
          108 1 36 59 82 hhcurveto
          77 21 -44 -75 -15 -1 -13 -2 -12 hvcurveto
          endchar
        </CharString>
        <CharString name="ogonek">
          -323 184 -136 rmoveto
          -58 callsubr
          50 78 49 0 hvcurveto
          -40 hlineto
          -47 -22 -57 -44 -63 -41 callsubr
          endchar
        </CharString>
        <CharString name="ograve">
          14 149 655 rmoveto
          174 -120 28 30 -83 callsubr
          102 -664 -104 callsubr
          endchar
        </CharString>
        <CharString name="ohorn">
          -10 545 500 -88 callsubr
        </CharString>
        <CharString name="ohungarumlaut">
          14 199 669 rmoveto
          -58 -111 30 -22 -60 callgsubr
          161 hmoveto
          -58 -111 30 -22 -60 callgsubr
          -109 -678 -104 callsubr
          endchar
        </CharString>
        <CharString name="omacron">
          14 108 -32 callgsubr
          -189 -672 -104 callsubr
          endchar
        </CharString>
        <CharString name="one">
          -117 21 -21 658 -20 hstem
          31 210 vstem
          55 hmoveto
          316 49 hlineto
          -117 11 rlineto
          598 -44 vlineto
          -166 -30 rlineto
          -49 125 -519 vlineto
          -114 -11 rlineto
          endchar
        </CharString>
        <CharString name="one.osf">
          -124 49 49 rmoveto
          -49 293 49 vlineto
          -107 11 rlineto
          461 -41 vlineto
          -156 -30 rlineto
          -50 115 -381 vlineto
          endchar
        </CharString>
        <CharString name="onehalf">
          212 108 -44 -13 callsubr
          -22 322 rmoveto
          190 40 hlineto
          -7 callsubr
          -61 -4 rlineto
          373 -351 rmoveto
          271 103 -39 hlineto
          -35 callgsubr
          -89 -85 rlineto
          endchar
        </CharString>
        <CharString name="onequarter">
          240 561 690 -1 callsubr
          -576 -307 rmoveto
          -40 190 40 vlineto
          -7 callsubr
          407 -315 rmoveto
          -40 190 40 vlineto
          -14 callgsubr
          94 vmoveto
          -99 hlineto
          -1 3 100 138 rlineto
          endchar
        </CharString>
        <CharString name="ordfeminine">
          -131 123 355 rmoveto
          33 38 12 19 21 hvcurveto
          2 1 rlineto
          -18 4 19 -12 25 hhcurveto
          21 31 6 8 22 hvcurveto
          26 vlineto
          -51 15 rlineto
          216 vlineto
          48 -42 31 -64 -68 -81 -47 -39 -21 11 -11 22 10 12 2 3 6 vhcurveto
          15 60 rlineto
          3 13 16 2 10 hhcurveto
          46 23 -19 -39 hvcurveto
          -47 vlineto
          -79 -11 rlineto
          -71 -9 -44 -39 -54 vvcurveto
          -53 38 -33 62 vhcurveto
          36 50 rmoveto
          -39 -23 17 29 41 35 19 85 5 hvcurveto
          -100 vlineto
          -6 -15 -25 -5 -18 hhcurveto
          endchar
        </CharString>
        <CharString name="ordmasculine">
          -121 185 355 rmoveto
          112 57 88 98 100 -58 66 -99 -104 -63 -87 -95 -103 53 -67 102 hvcurveto
          13 53 rmoveto
          -74 -21 35 86 74 13 46 77 66 22 -33 -87 -79 -18 -42 -65 hvcurveto
          endchar
        </CharString>
        <CharString name="oslash">
          14 155 -77 -59 callgsubr
        </CharString>
        <CharString name="oslashacute">
          14 200 565 rmoveto
          28 -30 -93 callsubr
          -154 -763 -59 callgsubr
        </CharString>
        <CharString name="otilde">
          14 121 647 rmoveto
          -29 callsubr
          68 34 -99 callsubr
          130 -656 -104 callsubr
          endchar
        </CharString>
        <CharString name="p">
          -1 callgsubr
          143 vlineto
          -21 28 40 -13 37 hhcurveto
          134 85 107 169 148 -65 80 -120 -46 -55 -21 -33 -39 hvcurveto
          -1 3 -11 41 -149 -28 -75 callsubr
          -520 vlineto
          -69 -14 rlineto
          250 181 rmoveto
          -34 -40 10 15 -25 hvcurveto
          336 vlineto
          10 35 32 5 36 hhcurveto
          94 37 -53 -133 -132 -41 -58 -94 hvcurveto
          endchar
        </CharString>
        <CharString name="paragraph">
          133 308 196 rmoveto
          -253 65 650 141 vlineto
          78 14 rlineto
          41 -284 vlineto
          -125 -101 -101 -125 -125 101 -101 125 hvcurveto
          -78 -320 rmoveto
          -41 149 vlineto
          103 32 68 55 hvcurveto
          590 -65 -569 vlineto
          -54 -10 -25 -76 -9 vhcurveto
          endchar
        </CharString>
        <CharString name="parenleft">
          -249 240 -151 rmoveto
          18 42 rlineto
          -114 30 -21 109 249 vvcurveto
          223 13 123 121 33 vhcurveto
          -18 41 rlineto
          -169 -33 -33 -205 -182 vvcurveto
          -182 31 -214 172 -34 vhcurveto
          endchar
        </CharString>
        <CharString name="parenright">
          -249 -109 vmoveto
          18 -42 rlineto
          172 34 31 214 182 vvcurveto
          182 -33 205 -169 33 vhcurveto
          -18 -41 rlineto
          121 -33 13 -123 -223 vvcurveto
          -249 -21 -109 -114 -30 vhcurveto
          endchar
        </CharString>
        <CharString name="partialdiff">
          23 91 629 rmoveto
          20 -26 rlineto
          18 36 43 12 33 hhcurveto
          131 44 -124 -115 0 -47 32 -73 -131 -106 -82 -143 -118 70 -92 132 157 86 133 225 244 -108 95 -131 -99 -57 -59 0 hvcurveto
          308 -289 rmoveto
          -212 -48 -79 -99 -92 -29 84 79 98 41 52 110 78 39 -22 0 vhcurveto
          endchar
        </CharString>
        <CharString name="percent">
          177 125 -45 rmoveto
          466 680 -49 32 -469 -679 rlineto
          83 360 -49 callsubr
          358 -407 -49 callsubr
          endchar
        </CharString>
        <CharString name="period">
          -316 94 -11 rmoveto
          -66 callsubr
          endchar
        </CharString>
        <CharString name="periodcentered">
          -316 94 198 rmoveto
          -66 callsubr
          endchar
        </CharString>
        <CharString name="perthousand">
          486 99 -45 -13 callsubr
          117 360 -49 callsubr
          325 -407 rmoveto
          111 39 65 91 95 -34 61 -106 -104 -47 -64 -94 -88 31 -66 110 hvcurveto
          327 hmoveto
          111 39 65 91 95 -34 61 -106 -104 -47 -64 -94 -88 31 -66 110 hvcurveto
          -322 51 rmoveto
          -66 -13 37 68 73 22 32 56 58 21 -22 -83 -70 -13 -35 -65 hvcurveto
          327 hmoveto
          -66 -13 37 68 73 22 32 56 58 21 -22 -83 -70 -13 -35 -65 hvcurveto
          endchar
        </CharString>
        <CharString name="pi">
          23 65 41 rmoveto
          -41 65 vlineto
          -1 49 43 76 hvcurveto
          308 161 -358 vlineto
          -45 8 -28 51 47 47 31 0 vhcurveto
          39 -72 361 vlineto
          22 27 4 19 23 hvcurveto
          47 39 -25 39 -90 -34 rlineto
          -318 hlineto
          -38 -27 -9 -25 -25 hvcurveto
          -43 -38 24 -36 100 41 rlineto
          -330 vlineto
          endchar
        </CharString>
        <CharString name="plus">
          23 231 69 -12 callsubr
          endchar
        </CharString>
        <CharString name="plusminus">
          23 230 125 -12 callsubr
          -166 -297 rmoveto
          400 59 -400 hlineto
          endchar
        </CharString>
        <CharString name="product">
          23 -20 44 rmoveto
          1 callsubr
          237 -15 callsubr
          -83 -15 rlineto
          1 callsubr
          vlineto
          83 15 rlineto
          44 -569 -44 vlineto
          83 -15 rlineto
          -15 callsubr
          endchar
        </CharString>
        <CharString name="q">
          11 290 -165 rmoveto
          220 42 hlineto
          -64 14 rlineto
          603 -31 vlineto
          -40 -28 rlineto
          -5 hlineto
          24 -29 -41 14 -41 hhcurveto
          -127 -92 -120 -166 -139 68 -79 121 52 52 19 31 31 hvcurveto
          -159 vlineto
          -74 -14 rlineto
          -30 185 rmoveto
          -92 -39 56 133 124 49 66 91 33 39 -7 -9 23 hvcurveto
          -334 vlineto
          -18 -31 -41 -11 -32 hhcurveto
          endchar
        </CharString>
        <CharString name="question">
          -146 86 335 rmoveto
          6 -172 rlineto
          49 hlineto
          21 122 53 17 rlineto
          64 20 52 49 82 vvcurveto
          125 -81 85 -134 -72 -9 -20 -32 -17 11 -20 0 vhcurveto
          93 hlineto
          83 33 -6 -86 -68 -24 -26 -55 -20 hvcurveto
          -66 -379 -10 callgsubr
        </CharString>
        <CharString name="questiondown">
          -145 241 392 -7 callgsubr
          5 -552 rmoveto
          72 9 20 32 17 -11 20 0 hvcurveto
          -93 hlineto
          -83 -33 6 86 68 24 26 55 20 hvcurveto
          90 33 -6 172 rlineto
          -49 hlineto
          -21 -122 -53 -17 rlineto
          -64 -20 -52 -49 -82 vvcurveto
          -125 81 -85 134 vhcurveto
          endchar
        </CharString>
        <CharString name="quotedbl">
          -173 59 705 rmoveto
          -36 callsubr
          133 hmoveto
          -36 callsubr
          endchar
        </CharString>
        <CharString name="quotedblbase">
          -160 69 -122 -52 callsubr
          180 -14 -52 callsubr
          endchar
        </CharString>
        <CharString name="quotedblleft">
          -177 121 717 -20 callgsubr
          120 14 -20 callgsubr
          endchar
        </CharString>
        <CharString name="quotedblright">
          -177 57 486 -52 callsubr
          180 -14 -52 callsubr
          endchar
        </CharString>
        <CharString name="quoteleft">
          -315 139 718 rmoveto
          -18 -18 -79 -89 -68 vvcurveto
          -35 21 -28 37 30 17 19 21 14 vhcurveto
          -12 16 -12 26 28 vvcurveto
          30 14 42 22 42 vhcurveto
          endchar
        </CharString>
        <CharString name="quoteright">
          -319 57 473 -23 callgsubr
        </CharString>
        <CharString name="quotesinglbase">
          -315 61 -129 -23 callgsubr
        </CharString>
        <CharString name="quotesingle">
          -300 59 705 rmoveto
          -36 callsubr
          endchar
        </CharString>
        <CharString name="r">
          -148 30 41 -69 callsubr
        </CharString>
        <CharString name="racute">
          -166 89 565 rmoveto
          28 -30 -93 callsubr
          -168 -645 -69 callsubr
        </CharString>
        <CharString name="radical">
          23 263 -5 rmoveto
          49 hlineto
          224 718 79 16 rlineto
          41 -117 vlineto
          -179 -595 -13 -45 -15 44 -107 320 rlineto
          -150 -41 hlineto
          70 -16 rlineto
          endchar
        </CharString>
        <CharString name="rcaron">
          -166 183 -93 callgsubr
          -153 -544 rmoveto
          243 43 hlineto
          -79 callgsubr
          -69 -14 rlineto
          endchar
        </CharString>
        <CharString name="rcommaaccent">
          -166 30 hmoveto
          243 43 hlineto
          -79 callgsubr
          -69 -14 rlineto
          80 -228 -92 callsubr
        </CharString>
        <CharString name="registered">
          184 331 230 rmoveto
          151 122 122 151 151 -122 122 -151 -151 -122 -122 -151 -151 122 -122 151 hvcurveto
          52 vmoveto
          -121 -94 97 124 124 94 97 121 120 95 -97 -124 -124 -95 -97 -120 hvcurveto
          -143 76 rmoveto
          138 24 hlineto
          -37 7 rlineto
          83 28 vlineto
          65 -101 rlineto
          -8 4 9 -5 11 hhcurveto
          71 25 hlineto
          -36 9 -62 90 rlineto
          38 13 25 36 43 vvcurveto
          45 -37 29 -57 vhcurveto
          -160 -28 hlineto
          37 -6 rlineto
          -225 vlineto
          -37 -7 rlineto
          101 123 rmoveto
          106 vlineto
          2 11 13 1 10 hhcurveto
          38 13 -12 -33 -43 -19 -21 -38 hvcurveto
          endchar
        </CharString>
        <CharString name="ring">
          -327 -4 622 -48 callgsubr
          endchar
        </CharString>
        <CharString name="s">
          -94 42 152 -84 callgsubr
          endchar
        </CharString>
        <CharString name="sacute">
          -101 111 565 rmoveto
          28 -30 -93 callsubr
          -182 -534 -84 callgsubr
          endchar
        </CharString>
        <CharString name="sacute.loclPLK">
          -94 174 -51 callgsubr
          -213 -533 -84 callgsubr
          endchar
        </CharString>
        <CharString name="scaron">
          -101 198 -93 callgsubr
          -14 -553 rmoveto
          -85 callsubr
          -41 hlineto
          -12 -122 rlineto
          -13 18 67 -26 73 hhcurveto
          endchar
        </CharString>
        <CharString name="scedilla">
          -101 176 -53 callsubr
          21 vlineto
          87 6 72 39 109 -87 callsubr
          -41 hlineto
          -12 -122 16 -12 58 -22 65 -4 rlinecurve
          -21 -51 -72 callsubr
        </CharString>
        <CharString name="scircumflex">
          -94 59 577 -101 callsubr
          -123 -531 -84 callgsubr
          endchar
        </CharString>
        <CharString name="scommaaccent">
          -101 38 152 -84 callgsubr
          84 -339 -92 callsubr
        </CharString>
        <CharString name="section">
          44 317 306 rmoveto
          139 -94 43 62 -149 106 rlineto
          -108 76 -56 32 57 vvcurveto
          67 27 19 74 61 36 -13 0 vhcurveto
          19 -94 rlineto
          49 147 hlineto
          10 -23 -70 15 -66 hhcurveto
          -132 -62 -63 -98 -105 106 -49 112 -75 hvcurveto
          -216 -271 rmoveto
          -153 vlineto
          -27 30 79 -21 73 hhcurveto
          102 94 53 113 81 -68 56 -111 70 hvcurveto
          -174 111 -43 -62 149 -101 rlineto
          80 -55 86 -46 -65 vvcurveto
          -69 -37 -28 -81 -55 -40 27 9 -11 vhcurveto
          -19 107 rlineto
          endchar
        </CharString>
        <CharString name="semicolon">
          -281 114 322 rmoveto
          -66 callsubr
          -33 -451 -23 callsubr
        </CharString>
        <CharString name="seven">
          -74 21 -21 572 76 hstem
          89 hmoveto
          75 hlineto
          274 572 rlineto
          76 -417 vlineto
          9 -155 rlineto
          54 hlineto
          8 79 rlineto
          274 -17 hlineto
          -277 -514 rlineto
          endchar
        </CharString>
        <CharString name="seven.osf">
          -73 353 428 rmoveto
          -281 -592 rlineto
          96 hlineto
          249 609 rlineto
          76 -397 vlineto
          8 -155 rlineto
          54 hlineto
          8 79 rlineto
          263 hlineto
          endchar
        </CharString>
        <CharString name="six">
          5 -10 58 277 69 263 -20 hstem
          40 97 244 91 vstem
          253 -10 rmoveto
          136 88 89 135 107 -71 73 -104 -56 -57 -18 -32 -46 hvcurveto
          5 158 103 96 185 19 rrcurveto
          40 vlineto
          -248 -9 -143 -148 -246 vvcurveto
          -180 66 -84 142 vhcurveto
          14 58 rmoveto
          -93 -32 60 171 hvcurveto
          26 vlineto
          12 40 46 8 34 hhcurveto
          79 45 -45 -80 -103 -38 -49 -81 hvcurveto
          endchar
        </CharString>
        <CharString name="six.osf">
          -9 255 -10 rmoveto
          105 105 63 161 94 -57 88 -106 -87 -72 -49 0 hvcurveto
          16 140 101 107 162 23 rrcurveto
          40 vlineto
          -202 -179 -149 -266 -182 93 -70 121 hvcurveto
          5 62 rmoveto
          -99 -25 49 163 11 1 27 1 11 hvcurveto
          3 6 55 11 58 hhcurveto
          55 63 -28 -86 -114 -28 -47 -87 hvcurveto
          endchar
        </CharString>
        <CharString name="slash">
          -11 callsubr
        </CharString>
        <CharString name="space">
          -306 endchar
        </CharString>
        <CharString name="sterling">
          9 38 43 rmoveto
          -43 435 178 -49 vlineto
          -22 -107 rlineto
          -265 5 hlineto
          32 13 20 39 46 vvcurveto
          140 129 57 -129 95 vlineto
          97 27 34 78 32 38 -5 -8 14 vhcurveto
          23 -92 rlineto
          49 141 hlineto
          14 -35 -66 11 -49 hhcurveto
          -125 -67 -73 -119 hvcurveto
          -95 -69 -57 69 -140 vlineto
          -42 -32 -60 -38 -29 vhcurveto
          endchar
        </CharString>
        <CharString name="sterling.osf">
          -31 38 43 rmoveto
          -43 400 178 -49 vlineto
          -22 -107 rlineto
          -230 5 hlineto
          40 17 12 47 34 vvcurveto
          60 109 57 -109 48 vlineto
          65 1 66 87 47 23 -13 0 vhcurveto
          19 -92 rlineto
          49 141 hlineto
          0 -59 25 -71 -117 -60 -73 -119 vhcurveto
          -48 -69 -57 69 -60 vlineto
          -23 -14 -66 -56 -42 vhcurveto
          endchar
        </CharString>
        <CharString name="summation">
          23 40 hmoveto
          425 179 -46 hlineto
          -30 -107 rlineto
          -269 11 hlineto
          172 255 -155 247 rlineto
          8 239 vlineto
          32 -108 rlineto
          49 163 -417 -50 hlineto
          174 -285 -174 -263 rlineto
          endchar
        </CharString>
        <CharString name="t">
          -164 91 442 rmoveto
          -335 vlineto
          -65 22 -46 86 vhcurveto
          57 -67 callsubr
          vlineto
          endchar
        </CharString>
        <CharString name="tbar">
          -204 300 442 rmoveto
          14 25 rlineto
          28 -141 114 -58 vlineto
          -24 -104 -78 -21 rlineto
          -42 78 -120 -81 -48 81 -167 vlineto
          -65 22 -46 86 vhcurveto
          57 58 49 -1 hhcurveto
          -10 32 rlineto
          0 -42 -13 -38 -33 -17 8 42 vhcurveto
          160 122 48 -122 120 vlineto
          endchar
        </CharString>
        <CharString name="tcaron">
          -199 240 542 -66 callgsubr
          -157 -100 rmoveto
          -335 vlineto
          -65 22 -46 86 vhcurveto
          57 -67 callsubr
          vlineto
          endchar
        </CharString>
        <CharString name="thorn">
          -1 callgsubr
          146 vlineto
          -22 24 45 -15 44 hhcurveto
          128 83 108 168 145 -67 83 -118 -47 -55 -20 -31 -37 hvcurveto
          232 -2 callgsubr
          -729 vlineto
          -69 -14 rlineto
          252 182 rmoveto
          -33 -41 11 16 -27 hvcurveto
          335 vlineto
          10 35 32 5 36 hhcurveto
          93 38 -54 -134 -132 -40 -57 -93 hvcurveto
          endchar
        </CharString>
        <CharString name="three">
          -65 -10 64 254 64 221 67 hstemhm
          336 83 -58 95 hintmask 11101000
          193 -10 rmoveto
          142 96 65 138 111 -88 39 -61 14 hvcurveto
          3 1 rlineto
          52 21 57 48 85 vvcurveto
          85 -41 63 -152 -91 -58 -21 -10 -24 vhcurveto
          8 -137 rlineto
          51 hlineto
          9 85 rlineto
          0 35 16 60 94 26 -36 -71 -78 -77 -36 -73 vhcurveto
          -50 -36 hlineto
          15 -28 rlineto
          52 hlineto
          hintmask 11110000
          91 67 -23 -100 -96 -48 -35 -94 -46 -34 16 15 -25 hvcurveto
          -10 80 rlineto
          -52 hlineto
          -7 -129 rlineto
          -21 32 72 -25 69 hhcurveto
          endchar
        </CharString>
        <CharString name="three.osf">
          -48 39 -118 rmoveto
          -41 vlineto
          -2 20 13 -5 43 hhcurveto
          152 142 70 164 103 -72 45 -79 10 hvcurveto
          9 vlineto
          47 23 61 52 78 vvcurveto
          63 -38 77 -127 -113 -68 -90 0 vhcurveto
          23 -26 rlineto
          0 54 45 76 67 37 -33 -52 -77 -63 -43 -100 -19 vhcurveto
          -28 vlineto
          19 -27 rlineto
          32 hlineto
          85 68 -40 -86 -138 -111 -32 -168 hvcurveto
          endchar
        </CharString>
        <CharString name="threequarters">
          172 135 -45 -13 callsubr
          57 317 rmoveto
          -46 callsubr
          -40 hlineto
          -4 -81 rlineto
          -12 23 49 -12 38 hhcurveto
          321 -305 rmoveto
          190 40 hlineto
          -14 callgsubr
          -61 -4 rlineto
          -38 98 rmoveto
          -1 3 100 138 rlineto
          -141 vlineto
          endchar
        </CharString>
        <CharString name="tilde">
          -171 28 647 rmoveto
          -29 callsubr
          68 34 -99 callsubr
          endchar
        </CharString>
        <CharString name="tildecomb">
          -308 647 rmoveto
          -29 callsubr
          68 34 -99 callsubr
          endchar
        </CharString>
        <CharString name="tildecomb.case">
          -98 698 -100 callsubr
          endchar
        </CharString>
        <CharString name="trademark">
          350 96 391 rmoveto
          -30 164 30 vlineto
          -44 7 rlineto
          256 66 vlineto
          15 -58 rlineto
          39 103 -318 -103 39 hlineto
          15 58 rlineto
          67 -256 hlineto
          221 -9 rmoveto
          -28 135 28 vlineto
          -43 8 rlineto
          241 6 vlineto
          93 -277 rlineto
          56 hlineto
          97 275 rlineto
          6 -238 hlineto
          -43 -7 rlineto
          -30 164 30 vlineto
          -44 7 rlineto
          260 vlineto
          44 7 rlineto
          34 -157 vlineto
          -74 -216 -8 -39 -8 39 -71 216 rlineto
          -148 -34 hlineto
          39 -5 rlineto
          -263 vlineto
          endchar
        </CharString>
        <CharString name="two">
          -21 0 76 517 67 hstem
          358 93 vstem
          29 hmoveto
          437 163 -50 hlineto
          -20 -87 rlineto
          -259 6 hlineto
          115 114 rlineto
          139 137 49 65 84 vvcurveto
          127 -72 51 -147 -87 -65 -26 -11 -24 vhcurveto
          -144 50 vlineto
          16 95 rlineto
          7 14 34 12 62 hhcurveto
          99 27 -37 -80 -76 -42 -57 -90 -93 hvcurveto
          -186 -195 rlineto
          endchar
        </CharString>
        <CharString name="two.osf">
          4 44 58 rmoveto
          -58 425 144 -44 vlineto
          -20 -72 rlineto
          -253 6 hlineto
          70 53 rlineto
          102 77 90 65 104 vvcurveto
          95 -63 56 -109 -113 -83 -96 0 vhcurveto
          21 -25 rlineto
          0 57 44 82 85 29 -34 -53 -56 -13 -34 -116 -95 vhcurveto
          endchar
        </CharString>
        <CharString name="u">
          50 237 -9 -106 callgsubr
          endchar
        </CharString>
        <CharString name="uacute">
          50 208 535 rmoveto
          -93 callsubr
          -109 -121 rlineto
          57 -574 -106 callgsubr
          endchar
        </CharString>
        <CharString name="ubreve">
          50 165 706 -91 callgsubr
          72 -715 -106 callgsubr
          endchar
        </CharString>
        <CharString name="ucircumflex">
          50 373 539 -37 callgsubr
          -18 -632 -106 callgsubr
          endchar
        </CharString>
        <CharString name="udieresis">
          50 159 575 -103 callgsubr
          -133 -584 -106 callgsubr
          endchar
        </CharString>
        <CharString name="ugrave">
          50 320 535 rmoveto
          28 30 -83 callsubr
          91 -664 -106 callgsubr
          endchar
        </CharString>
        <CharString name="uhorn">
          50 590 500 -96 callgsubr
          endchar
        </CharString>
        <CharString name="uhungarumlaut">
          50 149 536 rmoveto
          -60 callgsubr
          -58 -111 rlineto
          191 -22 rmoveto
          -60 callgsubr
          -58 -111 rlineto
          -43 -567 -106 callgsubr
          endchar
        </CharString>
        <CharString name="umacron">
          50 101 -13 callgsubr
          126 -672 -106 callgsubr
          endchar
        </CharString>
        <CharString name="underscore">
          -57 -1 vmoveto
          -59 450 59 vlineto
          endchar
        </CharString>
        <CharString name="uni00A0">
          -306 endchar
        </CharString>
        <CharString name="uni00AD">
          -3 callgsubr
        </CharString>
        <CharString name="uni00B2">
          -164 36 398 rmoveto
          -37 271 103 -39 vlineto
          -35 callgsubr
          endchar
        </CharString>
        <CharString name="uni00B3">
          -164 53 460 rmoveto
          -4 -81 rlineto
          -12 23 49 -12 38 hhcurveto
          -46 callsubr
          endchar
        </CharString>
        <CharString name="uni00B5">
          -52 callgsubr
        </CharString>
        <CharString name="uni00B9">
          -164 56 401 rmoveto
          -40 250 40 vlineto
          -91 4 rlineto
          296 -54 vlineto
          -109 -10 rlineto
          -41 95 -245 vlineto
          endchar
        </CharString>
        <CharString name="uni0162">
          34 259 -53 callsubr
          29 103 -53 callgsubr
          -82 -15 rlineto
          -44 107 vlineto
          -25 -59 -72 callsubr
        </CharString>
        <CharString name="uni0163">
          -204 156 -53 callsubr
          25 vlineto
          58 -67 callsubr
          78 -335 vlineto
          -54 14 -40 52 -13 vhcurveto
          -25 -59 -72 callsubr
        </CharString>
        <CharString name="uni018F">
          158 328 -13 rmoveto
          206 86 158 188 217 -98 110 -197 -122 -58 -26 -17 -40 hvcurveto
          -152 49 vlineto
          20 102 rlineto
          0 39 37 100 124 73 -98 -146 8 vhcurveto
          -471 hlineto
          -1 -15 -1 -15 -20 vvcurveto
          -196 98 -127 185 vhcurveto
          11 57 rmoveto
          -119 -71 76 185 -3 hvcurveto
          373 hlineto
          -174 -3 -49 -87 -128 hhcurveto
          endchar
        </CharString>
        <CharString name="uni019D">
          220 89 -165 rmoveto
          63 33 30 52 hvcurveto
          599 9 vlineto
          9 -15 316 -501 -47 callgsubr
          -15 23 -313 496 rlineto
          -153 -44 hlineto
          65 -14 rlineto
          -681 vlineto
          -108 -26 -50 callgsubr
          0 30 -10 42 vhcurveto
          endchar
        </CharString>
        <CharString name="uni01C4">
          755 858 834 -84 callsubr
          -925 -769 rmoveto
          -60 callsubr
        </CharString>
        <CharString name="uni01C5">
          630 915 -93 callgsubr
          -860 -544 rmoveto
          -81 callgsubr
          403 -51 rmoveto
          -89 callgsubr
          endchar
        </CharString>
        <CharString name="uni01C6">
          465 751 -93 callgsubr
          -527 -553 -76 callgsubr
          333 9 rmoveto
          -89 callgsubr
          -302 11 -63 callgsubr
          endchar
        </CharString>
        <CharString name="uni01C7">
          416 55 43 rmoveto
          -43 431 162 -49 vlineto
          -22 -107 rlineto
          -93 hlineto
          -98 8 rlineto
          523 vlineto
          91 15 rlineto
          47 -260 -43 vlineto
          83 -17 rlineto
          -528 vlineto
          395 97 -75 callgsubr
        </CharString>
        <CharString name="uni01C8">
          275 645 -78 callgsubr
          -590 -525 rmoveto
          -43 451 162 -49 vlineto
          -63 callsubr
          455 -225 -69 callgsubr
        </CharString>
        <CharString name="uni01C9">
          35 19 -28 callsubr
          635 vlineto
          -65 callsubr
          306 513 -103 callsubr
          -52 -733 -69 callgsubr
        </CharString>
        <CharString name="uni01CA">
          620 55 hmoveto
          -76 callsubr
          682 115 -75 callgsubr
        </CharString>
        <CharString name="uni01CB">
          479 849 -78 callgsubr
          -794 -568 rmoveto
          -76 callsubr
          742 -207 -69 callgsubr
        </CharString>
        <CharString name="uni01CC">
          328 698 -78 callgsubr
          -672 -568 rmoveto
          -97 callgsubr
          620 -206 -69 callgsubr
        </CharString>
        <CharString name="uni01CD">
          101 184 834 -84 callsubr
          -315 -728 -107 callsubr
          endchar
        </CharString>
        <CharString name="uni01CE">
          -27 239 -93 callgsubr
          -59 -551 -107 callgsubr
          endchar
        </CharString>
        <CharString name="uni01CF">
          -138 65 834 -84 callsubr
          -128 -725 -83 callgsubr
          endchar
        </CharString>
        <CharString name="uni01D0">
          -214 148 -93 callgsubr
          -120 -503 -77 callgsubr
        </CharString>
        <CharString name="uni01D1">
          189 228 834 -84 callsubr
          -6 -782 -105 callsubr
          endchar
        </CharString>
        <CharString name="uni01D2">
          -10 248 -93 callgsubr
          -12 -553 -104 callsubr
          endchar
        </CharString>
        <CharString name="uni01D3">
          225 246 834 -84 callsubr
          -241 -180 -102 callgsubr
          endchar
        </CharString>
        <CharString name="uni01D4">
          50 264 -93 callgsubr
          -27 -553 -106 callgsubr
          endchar
        </CharString>
        <CharString name="uni01D5">
          225 207 935 rmoveto
          -10 -58 rlineto
          332 hlineto
          10 58 rlineto
          -281 -249 -103 callgsubr
          -342 -97 -102 callgsubr
          endchar
        </CharString>
        <CharString name="uni01D6">
          50 106 860 rmoveto
          -10 -57 rlineto
          332 hlineto
          10 57 rlineto
          -281 -285 -103 callgsubr
          -131 -584 -106 callgsubr
          endchar
        </CharString>
        <CharString name="uni01D7">
          225 332 835 -95 callgsubr
          -52 -184 -103 callgsubr
          -342 -97 -102 callgsubr
          endchar
        </CharString>
        <CharString name="uni01D8">
          50 216 762 rmoveto
          28 -30 -93 callsubr
          -168 -308 -103 callgsubr
          -131 -584 -106 callgsubr
          endchar
        </CharString>
        <CharString name="uni01D9">
          225 248 988 -84 callsubr
          -112 -237 -103 callgsubr
          -342 -97 -102 callgsubr
          endchar
        </CharString>
        <CharString name="uni01DA">
          50 266 741 rmoveto
          17 17 14 18 17 hvcurveto
          97 100 -25 33 -116 -88 -120 87 -34 -35 96 -97 rlineto
          -15 15 19 -17 17 hhcurveto
          -109 -166 -103 callgsubr
          -131 -584 -106 callgsubr
          endchar
        </CharString>
        <CharString name="uni01DB">
          225 418 835 rmoveto
          -80 callsubr
          33 -235 -103 callgsubr
          -342 -97 -102 callgsubr
          endchar
        </CharString>
        <CharString name="uni01DC">
          50 126 852 rmoveto
          174 -120 28 30 -83 callsubr
          31 -277 -103 callgsubr
          -131 -584 -106 callgsubr
          endchar
        </CharString>
        <CharString name="uni01EA">
          189 485 15 rmoveto
          115 54 51 123 146 vvcurveto
          193 -105 129 -180 -206 -115 -156 -191 -201 103 -125 196 21 20 2 2 19 vhcurveto
          -33 -24 -29 -35 -45 -41 callsubr
          -58 callsubr
          46 66 45 11 7 hvcurveto
          -339 304 rmoveto
          258 94 23 112 115 83 -47 -234 -172 -52 -103 -134 -142 -76 74 201 vhcurveto
          endchar
        </CharString>
        <CharString name="uni01EB">
          -10 343 15 rmoveto
          83 43 43 94 111 vvcurveto
          146 -72 95 -143 -142 -87 -123 -141 -151 73 -98 138 9 10 0 1 9 vhcurveto
          -34 -24 -30 -36 -45 -41 callsubr
          -58 callsubr
          46 66 45 11 7 hvcurveto
          -228 230 rmoveto
          128 21 73 112 99 32 -65 -136 -123 -29 -73 -95 -108 -32 77 119 vhcurveto
          endchar
        </CharString>
        <CharString name="uni01F1">
          755 55 hmoveto
          -60 callsubr
        </CharString>
        <CharString name="uni01F2">
          630 55 hmoveto
          -81 callgsubr
          403 -51 rmoveto
          -89 callgsubr
          endchar
        </CharString>
        <CharString name="uni01F3">
          465 224 -9 -76 callgsubr
          333 9 rmoveto
          -89 callgsubr
          -302 11 -63 callgsubr
          endchar
        </CharString>
        <CharString name="uni01F4">
          138 309 681 -95 callgsubr
          198 -456 -98 callsubr
          endchar
        </CharString>
        <CharString name="uni01F5">
          -46 180 565 rmoveto
          28 -30 -93 callsubr
          -75 -852 -104 callgsubr
        </CharString>
        <CharString name="uni0200">
          101 210 -79 callsubr
          -259 -737 -107 callsubr
          endchar
        </CharString>
        <CharString name="uni0201">
          -27 140 -82 callsubr
          -179 -565 -107 callgsubr
          endchar
        </CharString>
        <CharString name="uni0202">
          101 383 -71 callgsubr
          -392 -651 -107 callsubr
          endchar
        </CharString>
        <CharString name="uni0203">
          -27 340 -71 callsubr
          -160 -562 -107 callgsubr
          endchar
        </CharString>
        <CharString name="uni0204">
          65 226 -79 callsubr
          -211 -735 -105 callgsubr
          endchar
        </CharString>
        <CharString name="uni0205">
          -48 143 -82 callsubr
          -122 -567 -106 callsubr
          endchar
        </CharString>
        <CharString name="uni0206">
          65 399 -71 callgsubr
          -344 -649 -105 callgsubr
          endchar
        </CharString>
        <CharString name="uni0207">
          -48 343 -71 callsubr
          -103 -564 -106 callsubr
          endchar
        </CharString>
        <CharString name="uni0208">
          -138 91 -79 callsubr
          -72 -734 -83 callgsubr
          endchar
        </CharString>
        <CharString name="uni0209">
          -214 49 -82 callsubr
          -240 -517 -77 callgsubr
        </CharString>
        <CharString name="uni020A">
          -138 264 -71 callgsubr
          -205 -648 -83 callgsubr
          endchar
        </CharString>
        <CharString name="uni020B">
          -214 249 -71 callsubr
          -221 -514 -77 callgsubr
        </CharString>
        <CharString name="uni020C">
          189 254 -79 callsubr
          50 -791 -105 callsubr
          endchar
        </CharString>
        <CharString name="uni020D">
          -10 149 -82 callsubr
          -132 -567 -104 callsubr
          endchar
        </CharString>
        <CharString name="uni020E">
          189 427 -71 callgsubr
          -83 -705 -105 callsubr
          endchar
        </CharString>
        <CharString name="uni020F">
          -10 349 -71 callsubr
          -113 -564 -104 callsubr
          endchar
        </CharString>
        <CharString name="uni0210">
          104 212 -79 callsubr
          -197 -778 rmoveto
          -96 callsubr
          endchar
        </CharString>
        <CharString name="uni0211">
          -148 67 -82 callsubr
          -256 -517 -69 callsubr
        </CharString>
        <CharString name="uni0212">
          104 385 -71 callgsubr
          -330 -692 rmoveto
          -96 callsubr
          endchar
        </CharString>
        <CharString name="uni0213">
          -148 267 -71 callsubr
          -237 -514 -69 callsubr
        </CharString>
        <CharString name="uni0214">
          225 272 -79 callsubr
          -185 -189 -102 callgsubr
          endchar
        </CharString>
        <CharString name="uni0215">
          50 165 -82 callsubr
          -147 -567 -106 callgsubr
          endchar
        </CharString>
        <CharString name="uni0216">
          225 445 -71 callgsubr
          -318 -103 -102 callgsubr
          endchar
        </CharString>
        <CharString name="uni0217">
          50 365 -71 callsubr
          -128 -564 -106 callgsubr
          endchar
        </CharString>
        <CharString name="uni021A">
          34 145 hmoveto
          251 44 hlineto
          -51 callsubr
          -82 -15 rlineto
          89 -231 -92 callsubr
        </CharString>
        <CharString name="uni021B">
          -204 83 442 rmoveto
          -335 vlineto
          -65 22 -46 86 vhcurveto
          57 -67 callsubr
          vlineto
          127 -629 -92 callsubr
        </CharString>
        <CharString name="uni0232">
          77 153 -32 callsubr
          -306 -737 -89 callsubr
        </CharString>
        <CharString name="uni0232.loclGUA">
          206 537 781 rmoveto
          -332 hlineto
          -10 -58 rlineto
          332 hlineto
          -114 -75 -99 callgsubr
        </CharString>
        <CharString name="uni0233">
          -52 409 663 rmoveto
          -332 hlineto
          -10 -57 rlineto
          332 hlineto
          -109 -112 -97 callsubr
          endchar
        </CharString>
        <CharString name="uni0233.loclGUA">
          30 104 -32 callgsubr
          -185 -829 -98 callgsubr
        </CharString>
        <CharString name="uni0237">
          -248 -13 -117 -43 callsubr
        </CharString>
        <CharString name="uni0259">
          -48 219 503 rmoveto
          -103 -61 -66 0 hvcurveto
          14 -28 rlineto
          0 41 24 79 117 40 -81 -91 vhcurveto
          -251 hlineto
          -37 -11 -17 -72 -92 47 -90 117 129 94 111 160 133 -69 109 -146 hvcurveto
          126 -288 rmoveto
          -108 -1 -36 -59 -82 hhcurveto
          -77 -21 44 75 15 1 13 2 12 hvcurveto
          endchar
        </CharString>
        <CharString name="uni0272">
          58 70 -165 rmoveto
          69 38 29 53 hvcurveto
          505 vlineto
          7 23 44 5 34 hhcurveto
          74 31 -24 -57 hvcurveto
          -68 callsubr
          312 vlineto
          87 -48 50 -83 -71 -76 -42 -7 -13 vhcurveto
          -1 3 -9 36 -149 -28 -75 callsubr
          -502 -6 callgsubr
        </CharString>
        <CharString name="uni02BC">
          -392 19 542 -66 callgsubr
          endchar
        </CharString>
        <CharString name="uni02C9">
          -164 10 -32 callgsubr
          endchar
        </CharString>
        <CharString name="uni0302">
          -296 577 -101 callsubr
          endchar
        </CharString>
        <CharString name="uni0302.case">
          -306 716 -102 callsubr
          endchar
        </CharString>
        <CharString name="uni03020300">
          -211 778 rmoveto
          174 -120 28 30 -83 callsubr
          -119 -201 -101 callsubr
          endchar
        </CharString>
        <CharString name="uni03020300.case">
          33 809 rmoveto
          -80 callsubr
          -146 -179 -102 callsubr
          endchar
        </CharString>
        <CharString name="uni03020301">
          -211 688 rmoveto
          28 -30 -93 callsubr
          -340 -232 -101 callsubr
          endchar
        </CharString>
        <CharString name="uni03020301.case">
          -88 809 -95 callgsubr
          -196 -128 -102 callsubr
          endchar
        </CharString>
        <CharString name="uni03020303">
          -317 803 rmoveto
          -29 callsubr
          68 34 -99 callsubr
          -10 -226 -101 callsubr
          endchar
        </CharString>
        <CharString name="uni03020303.case">
          -74 854 -100 callsubr
          -232 -138 -102 callsubr
          endchar
        </CharString>
        <CharString name="uni03020309">
          -141 659 -100 callgsubr
          -251 -82 -101 callsubr
          endchar
        </CharString>
        <CharString name="uni03020309.case">
          -59 794 -101 callgsubr
          -247 -78 -102 callsubr
          endchar
        </CharString>
        <CharString name="uni0304">
          -333 -32 callgsubr
          endchar
        </CharString>
        <CharString name="uni0304.case">
          -332 -32 callsubr
          endchar
        </CharString>
        <CharString name="uni0306">
          -251 706 -54 callgsubr
        </CharString>
        <CharString name="uni0306.case">
          -219 821 -24 callsubr
        </CharString>
        <CharString name="uni03060300">
          -299 799 rmoveto
          174 -120 28 30 -83 callsubr
          39 -93 -54 callgsubr
        </CharString>
        <CharString name="uni03060300.case">
          -87 814 rmoveto
          -80 callsubr
          61 -79 -24 callsubr
        </CharString>
        <CharString name="uni03060301">
          -211 709 rmoveto
          28 -30 -93 callsubr
          -160 -124 -54 callgsubr
        </CharString>
        <CharString name="uni03060301.case">
          -173 814 -95 callgsubr
          -24 -28 -24 callsubr
        </CharString>
        <CharString name="uni03060303">
          -317 801 rmoveto
          -29 callsubr
          68 34 -99 callsubr
          38 -95 -54 callgsubr
        </CharString>
        <CharString name="uni03060303.case">
          -60 841 -100 callsubr
          -159 -20 -24 callsubr
        </CharString>
        <CharString name="uni03060309">
          -183 680 -100 callgsubr
          -77 26 -54 callgsubr
        </CharString>
        <CharString name="uni03060309.case">
          -166 800 -101 callgsubr
          -53 21 -24 callsubr
        </CharString>
        <CharString name="uni0307">
          -61 -78 callgsubr
          endchar
        </CharString>
        <CharString name="uni0307.case">
          -61 -48 callsubr
          endchar
        </CharString>
        <CharString name="uni0308">
          -266 575 -103 callgsubr
          endchar
        </CharString>
        <CharString name="uni0308.case">
          -266 686 -103 callgsubr
          endchar
        </CharString>
        <CharString name="uni030A">
          -184 622 -48 callgsubr
          endchar
        </CharString>
        <CharString name="uni030A.case">
          -182 -30 callgsubr
          endchar
        </CharString>
        <CharString name="uni030B">
          -261 669 rmoveto
          -58 -111 30 -22 -60 callgsubr
          161 hmoveto
          -58 -111 30 -22 -60 callgsubr
          endchar
        </CharString>
        <CharString name="uni030B.case">
          -328 676 -56 callgsubr
          212 -27 -56 callgsubr
          endchar
        </CharString>
        <CharString name="uni030C">
          -148 -93 callgsubr
          endchar
        </CharString>
        <CharString name="uni030C.case">
          -273 834 -84 callsubr
          endchar
        </CharString>
        <CharString name="uni030F">
          -219 -82 callsubr
          endchar
        </CharString>
        <CharString name="uni030F.case">
          -212 -79 callsubr
          endchar
        </CharString>
        <CharString name="uni0311">
          -51 -71 callsubr
          endchar
        </CharString>
        <CharString name="uni0311.case">
          -60 -71 callgsubr
          endchar
        </CharString>
        <CharString name="uni031B">
          -199 317 rmoveto
          129 74 39 66 43 -56 callsubr
          -51 -62 -48 -42 -28 vhcurveto
          endchar
        </CharString>
        <CharString name="uni0326">
          -84 -187 -92 callsubr
        </CharString>
        <CharString name="uni0327">
          -104 -53 callsubr
          29 -41 vlineto
          -25 -59 -72 callsubr
        </CharString>
        <CharString name="uni0328">
          -136 vmoveto
          -58 callsubr
          50 78 49 0 hvcurveto
          -40 hlineto
          -47 -22 -57 -44 -63 -41 callsubr
          endchar
        </CharString>
        <CharString name="uni0335">
          -404 305 rmoveto
          347 57 -347 hlineto
          endchar
        </CharString>
        <CharString name="uni0336">
          -693 439 rmoveto
          638 55 -638 hlineto
          endchar
        </CharString>
        <CharString name="uni0394">
          -29 callgsubr
        </CharString>
        <CharString name="uni03A9">
          -55 callgsubr
        </CharString>
        <CharString name="uni03BC">
          -52 callgsubr
        </CharString>
        <CharString name="uni1E0C">
          196 55 hmoveto
          -81 callgsubr
          30 -223 -103 callsubr
          endchar
        </CharString>
        <CharString name="uni1E0D">
          31 224 -9 -76 callgsubr
          31 70 -63 callgsubr
          11 -233 -103 callsubr
          endchar
        </CharString>
        <CharString name="uni1E24">
          246 55 44 -64 callsubr
          236 -231 -103 callsubr
          endchar
        </CharString>
        <CharString name="uni1E25">
          68 24 hmoveto
          -65 callgsubr
          261 -213 -103 callsubr
          endchar
        </CharString>
        <CharString name="uni1E44">
          220 361 -48 callsubr
          -306 -694 rmoveto
          -76 callsubr
          endchar
        </CharString>
        <CharString name="uni1E45">
          69 285 -78 callgsubr
          -259 -568 rmoveto
          -97 callgsubr
          endchar
        </CharString>
        <CharString name="uni1E5A">
          -54 callsubr
          48 -500 -103 callsubr
          endchar
        </CharString>
        <CharString name="uni1E5B">
          -148 30 41 -68 callgsubr
          38 -227 -103 callsubr
          endchar
        </CharString>
        <CharString name="uni1E62">
          7 250 -10 -94 callgsubr
          4 -162 -103 callsubr
          endchar
        </CharString>
        <CharString name="uni1E63">
          -94 42 152 -84 callgsubr
          121 -324 -103 callsubr
          endchar
        </CharString>
        <CharString name="uni1E6C">
          34 145 44 rmoveto
          -44 251 -53 callgsubr
          41 -231 -103 callsubr
          endchar
        </CharString>
        <CharString name="uni1E6D">
          -164 91 442 rmoveto
          -335 vlineto
          -65 22 -46 86 vhcurveto
          57 -67 callsubr
          vlineto
          174 -614 -103 callsubr
          endchar
        </CharString>
        <CharString name="uni1E92">
          52 35 59 -73 callsubr
          -118 -742 -103 callsubr
          endchar
        </CharString>
        <CharString name="uni1E93">
          -73 19 hmoveto
          -89 callgsubr
          195 -222 -103 callsubr
          endchar
        </CharString>
        <CharString name="uni1E9E">
          229 505 -10 rmoveto
          91 95 64 123 125 -97 45 -102 4 hvcurveto
          10 vlineto
          149 209 rlineto
          62 vlineto
          20 -74 -85 8 -52 hhcurveto
          -209 -94 -127 -191 hvcurveto
          -283 vlineto
          -82 -15 rlineto
          -44 callsubr
          -83 15 rlineto
          311 vlineto
          140 46 91 151 39 44 -6 -10 38 vhcurveto
          -17 vlineto
          -149 -219 rlineto
          -59 48 vlineto
          94 81 -29 -107 -62 -27 -44 -66 -44 -28 19 10 -11 hvcurveto
          -15 100 rlineto
          -54 -143 hlineto
          -22 24 68 -22 53 hhcurveto
          endchar
        </CharString>
        <CharString name="uni1EA0">
          101 -9 41 -107 callsubr
          13 -672 -103 callsubr
          endchar
        </CharString>
        <CharString name="uni1EA1">
          -27 180 -7 -107 callgsubr
          19 -228 -103 callsubr
          endchar
        </CharString>
        <CharString name="uni1EA2">
          101 275 677 -101 callgsubr
          -284 -636 -107 callsubr
          endchar
        </CharString>
        <CharString name="uni1EA3">
          -27 215 536 -100 callgsubr
          -35 -543 -107 callgsubr
          endchar
        </CharString>
        <CharString name="uni1EA4">
          101 366 809 -95 callgsubr
          -196 -128 -102 callsubr
          -236 -739 -107 callsubr
          endchar
        </CharString>
        <CharString name="uni1EA5">
          -27 294 688 rmoveto
          28 -30 -93 callsubr
          -340 -232 -101 callsubr
          11 -690 -107 callgsubr
          endchar
        </CharString>
        <CharString name="uni1EA6">
          101 489 809 rmoveto
          -80 callsubr
          -146 -179 -102 callsubr
          -238 -739 -107 callsubr
          endchar
        </CharString>
        <CharString name="uni1EA7">
          -27 198 778 rmoveto
          174 -120 28 30 -83 callsubr
          -119 -201 -101 callsubr
          -5 -690 -107 callgsubr
          endchar
        </CharString>
        <CharString name="uni1EA8">
          101 389 794 -101 callgsubr
          -247 -78 -102 callsubr
          -230 -739 -107 callsubr
          endchar
        </CharString>
        <CharString name="uni1EA9">
          -27 319 659 -100 callgsubr
          -251 -82 -101 callsubr
          6 -690 -107 callgsubr
          endchar
        </CharString>
        <CharString name="uni1EAA">
          101 381 854 -100 callsubr
          -232 -138 -102 callsubr
          -237 -739 -107 callsubr
          endchar
        </CharString>
        <CharString name="uni1EAB">
          -27 100 803 rmoveto
          -29 callsubr
          68 34 -99 callsubr
          -10 -226 -101 callsubr
          -16 -690 -107 callgsubr
          endchar
        </CharString>
        <CharString name="uni1EAC">
          101 151 716 -102 callsubr
          -239 -739 -107 callsubr
          13 -672 -103 callsubr
          endchar
        </CharString>
        <CharString name="uni1EAD">
          -27 92 577 -101 callsubr
          -18 -690 -107 callgsubr
          19 -228 -103 callsubr
          endchar
        </CharString>
        <CharString name="uni1EAE">
          101 260 814 -95 callgsubr
          -24 -28 -94 callsubr
          -223 -780 -107 callsubr
          endchar
        </CharString>
        <CharString name="uni1EAF">
          -27 190 709 rmoveto
          28 -30 -93 callsubr
          -160 -124 -91 callgsubr
          41 -713 -107 callgsubr
          endchar
        </CharString>
        <CharString name="uni1EB0">
          101 357 814 rmoveto
          -80 callsubr
          61 -79 -94 callsubr
          -234 -780 -107 callsubr
          endchar
        </CharString>
        <CharString name="uni1EB1">
          -27 101 799 rmoveto
          174 -120 28 30 -83 callsubr
          39 -93 -91 callgsubr
          40 -713 -107 callgsubr
          endchar
        </CharString>
        <CharString name="uni1EB2">
          101 277 800 -101 callgsubr
          -53 21 -94 callsubr
          -233 -780 -107 callsubr
          endchar
        </CharString>
        <CharString name="uni1EB3">
          -27 217 680 -100 callgsubr
          -77 26 -91 callgsubr
          40 -713 -107 callgsubr
          endchar
        </CharString>
        <CharString name="uni1EB4">
          101 381 841 -100 callsubr
          -159 -20 -94 callsubr
          -231 -780 -107 callsubr
          endchar
        </CharString>
        <CharString name="uni1EB5">
          -27 100 801 rmoveto
          -29 callsubr
          68 34 -99 callsubr
          38 -95 -91 callgsubr
          42 -713 -107 callgsubr
          endchar
        </CharString>
        <CharString name="uni1EB6">
          101 224 821 -94 callsubr
          -233 -780 -107 callsubr
          13 -672 -103 callsubr
          endchar
        </CharString>
        <CharString name="uni1EB7">
          -27 140 706 -91 callgsubr
          40 -713 -107 callgsubr
          19 -228 -103 callsubr
          endchar
        </CharString>
        <CharString name="uni1EB8">
          65 55 43 -105 callgsubr
          145 -232 -103 callsubr
          endchar
        </CharString>
        <CharString name="uni1EB9">
          -48 240 -9 -106 callsubr
          -88 -459 -103 callsubr
          endchar
        </CharString>
        <CharString name="uni1EBA">
          65 291 677 -101 callgsubr
          -236 -634 -105 callgsubr
          endchar
        </CharString>
        <CharString name="uni1EBB">
          -48 218 536 -100 callgsubr
          22 -545 -106 callsubr
          endchar
        </CharString>
        <CharString name="uni1EBC">
          65 397 698 -100 callsubr
          -342 -655 -105 callgsubr
          endchar
        </CharString>
        <CharString name="uni1EBD">
          -48 103 647 rmoveto
          -29 callsubr
          68 34 -99 callsubr
          137 -656 -106 callsubr
          endchar
        </CharString>
        <CharString name="uni1EBE">
          65 382 809 -95 callgsubr
          -196 -128 -102 callsubr
          -188 -737 -105 callgsubr
          endchar
        </CharString>
        <CharString name="uni1EBF">
          -48 297 688 rmoveto
          28 -30 -93 callsubr
          -340 -232 -101 callsubr
          68 -692 -106 callsubr
          endchar
        </CharString>
        <CharString name="uni1EC0">
          65 505 809 rmoveto
          -80 callsubr
          -146 -179 -102 callsubr
          -190 -737 -105 callgsubr
          endchar
        </CharString>
        <CharString name="uni1EC1">
          -48 201 778 rmoveto
          174 -120 28 30 -83 callsubr
          -119 -201 -101 callsubr
          52 -692 -106 callsubr
          endchar
        </CharString>
        <CharString name="uni1EC2">
          65 405 794 -101 callgsubr
          -247 -78 -102 callsubr
          -182 -737 -105 callgsubr
          endchar
        </CharString>
        <CharString name="uni1EC3">
          -48 322 659 -100 callgsubr
          -251 -82 -101 callsubr
          63 -692 -106 callsubr
          endchar
        </CharString>
        <CharString name="uni1EC4">
          65 397 854 -100 callsubr
          -232 -138 -102 callsubr
          -189 -737 -105 callgsubr
          endchar
        </CharString>
        <CharString name="uni1EC5">
          -48 103 803 rmoveto
          -29 callsubr
          68 34 -99 callsubr
          -10 -226 -101 callsubr
          41 -692 -106 callsubr
          endchar
        </CharString>
        <CharString name="uni1EC6">
          65 167 716 -102 callsubr
          -191 -737 -105 callgsubr
          145 -232 -103 callsubr
          endchar
        </CharString>
        <CharString name="uni1EC7">
          -48 95 577 -101 callsubr
          39 -692 -106 callsubr
          -88 -459 -103 callsubr
          endchar
        </CharString>
        <CharString name="uni1EC8">
          -138 156 677 -101 callgsubr
          -97 -633 -83 callgsubr
          endchar
        </CharString>
        <CharString name="uni1EC9">
          -214 124 536 -100 callgsubr
          -96 -495 -77 callgsubr
        </CharString>
        <CharString name="uni1ECA">
          -138 59 44 -83 callgsubr
          41 -231 -103 callsubr
          endchar
        </CharString>
        <CharString name="uni1ECB">
          -39 callsubr
          38 -227 -103 callsubr
          endchar
        </CharString>
        <CharString name="uni1ECC">
          189 344 -13 -105 callsubr
          -19 -216 -103 callsubr
          endchar
        </CharString>
        <CharString name="uni1ECD">
          -10 236 -9 -104 callsubr
          -9 -221 -103 callsubr
          endchar
        </CharString>
        <CharString name="uni1ECE">
          189 319 677 -101 callgsubr
          25 -690 -105 callsubr
          endchar
        </CharString>
        <CharString name="uni1ECF">
          -10 224 536 -100 callgsubr
          12 -545 -104 callsubr
          endchar
        </CharString>
        <CharString name="uni1ED0">
          189 410 809 -95 callgsubr
          -196 -128 -102 callsubr
          73 -793 -105 callsubr
          endchar
        </CharString>
        <CharString name="uni1ED1">
          -10 303 688 rmoveto
          28 -30 -93 callsubr
          -340 -232 -101 callsubr
          58 -692 -104 callsubr
          endchar
        </CharString>
        <CharString name="uni1ED2">
          189 533 809 rmoveto
          -80 callsubr
          -146 -179 -102 callsubr
          71 -793 -105 callsubr
          endchar
        </CharString>
        <CharString name="uni1ED3">
          -10 207 778 rmoveto
          174 -120 28 30 -83 callsubr
          -119 -201 -101 callsubr
          42 -692 -104 callsubr
          endchar
        </CharString>
        <CharString name="uni1ED4">
          189 433 794 -101 callgsubr
          -247 -78 -102 callsubr
          79 -793 -105 callsubr
          endchar
        </CharString>
        <CharString name="uni1ED5">
          -10 328 659 -100 callgsubr
          -251 -82 -101 callsubr
          53 -692 -104 callsubr
          endchar
        </CharString>
        <CharString name="uni1ED6">
          189 425 854 -100 callsubr
          -232 -138 -102 callsubr
          72 -793 -105 callsubr
          endchar
        </CharString>
        <CharString name="uni1ED7">
          -10 109 803 rmoveto
          -29 callsubr
          68 34 -99 callsubr
          -10 -226 -101 callsubr
          31 -692 -104 callsubr
          endchar
        </CharString>
        <CharString name="uni1ED8">
          189 195 716 -102 callsubr
          70 -793 -105 callsubr
          -19 -216 -103 callsubr
          endchar
        </CharString>
        <CharString name="uni1ED9">
          -10 101 577 -101 callsubr
          29 -692 -104 callsubr
          -9 -221 -103 callsubr
          endchar
        </CharString>
        <CharString name="uni1EDA">
          189 505 767 -28 callgsubr
          417 -27 -91 callsubr
        </CharString>
        <CharString name="uni1EDB">
          -10 400 -33 callsubr
          319 -35 -88 callsubr
        </CharString>
        <CharString name="uni1EDC">
          189 420 716 rmoveto
          -131 98 rlineto
          12 -17 -14 10 -11 hhcurveto
          -19 -19 -22 -47 -4 hvcurveto
          193 -86 rlineto
          331 -27 -91 callsubr
        </CharString>
        <CharString name="uni1EDD">
          -10 310 565 rmoveto
          -83 callsubr
          174 -120 rlineto
          263 -35 -88 callsubr
        </CharString>
        <CharString name="uni1EDE">
          189 338 785 rmoveto
          35 14 -7 -13 -14 -9 -10 -26 -10 hvcurveto
          -27 -10 -11 -11 -15 vvcurveto
          -5 2 -6 3 -7 vhcurveto
          51 hlineto
          10 2 8 25 8 vhcurveto
          38 12 20 23 31 vvcurveto
          46 -50 24 -79 -53 -7 -12 -18 -10 2 -9 7 -13 vhcurveto
          5 21 23 3 19 hhcurveto
          391 -131 -91 callsubr
        </CharString>
        <CharString name="uni1EDF">
          -10 239 -64 callgsubr
          306 -170 -88 callsubr
        </CharString>
        <CharString name="uni1EE0">
          189 276 -34 callgsubr
          533 -48 -91 callsubr
        </CharString>
        <CharString name="uni1EE1">
          -10 171 614 rmoveto
          -99 callsubr
          -28 -47 22 -20 rlineto
          442 -80 -88 callsubr
        </CharString>
        <CharString name="uni1EE2">
          189 729 654 rmoveto
          -88 callgsubr
          -35 -28 -33 -32 -26 vhcurveto
          79 -47 -82 47 -108 hhcurveto
          -206 -115 -156 -191 -201 103 -125 196 216 91 156 195 64 -12 57 -22 48 hvcurveto
          85 59 27 52 36 vvcurveto
          -365 -610 rmoveto
          -142 -76 74 201 258 94 23 112 115 83 -47 -234 -172 -52 -103 -134 hvcurveto
          -14 -88 -38 callsubr
        </CharString>
        <CharString name="uni1EE3">
          -10 545 500 rmoveto
          -88 callgsubr
          -26 -17 -26 -21 -22 vhcurveto
          65 -34 -62 39 -91 -47 callsubr
          152 81 120 152 39 -5 35 -10 31 hvcurveto
          68 53 23 46 33 vvcurveto
          -290 -451 rmoveto
          -108 -32 77 119 128 21 73 112 99 32 -65 -136 -123 -29 -73 -95 hvcurveto
          -4 -93 -38 callsubr
        </CharString>
        <CharString name="uni1EE4">
          225 127 589 -102 callgsubr
          318 -776 -103 callsubr
          endchar
        </CharString>
        <CharString name="uni1EE5">
          50 237 -9 -106 callgsubr
          39 -163 -103 callsubr
          endchar
        </CharString>
        <CharString name="uni1EE6">
          225 337 677 -101 callgsubr
          -210 -88 -102 callgsubr
          endchar
        </CharString>
        <CharString name="uni1EE7">
          50 240 536 -100 callgsubr
          -3 -545 -106 callgsubr
          endchar
        </CharString>
        <CharString name="uni1EE8">
          225 330 681 -95 callgsubr
          51 -729 -95 callsubr
          endchar
        </CharString>
        <CharString name="uni1EE9">
          50 416 -33 callsubr
          348 -35 -96 callgsubr
          endchar
        </CharString>
        <CharString name="uni1EEA">
          225 416 681 rmoveto
          -80 callsubr
          136 -780 -95 callsubr
          endchar
        </CharString>
        <CharString name="uni1EEB">
          50 326 565 rmoveto
          -83 callsubr
          174 -120 rlineto
          292 -35 -96 callgsubr
          endchar
        </CharString>
        <CharString name="uni1EEC">
          225 337 677 -101 callgsubr
          22 -690 -95 callsubr
          endchar
        </CharString>
        <CharString name="uni1EED">
          50 255 -64 callgsubr
          335 -170 -96 callgsubr
          endchar
        </CharString>
        <CharString name="uni1EEE">
          225 443 698 -100 callsubr
          -84 -711 -95 callsubr
          endchar
        </CharString>
        <CharString name="uni1EEF">
          50 187 614 rmoveto
          -99 callsubr
          -28 -47 22 -20 rlineto
          471 -80 -96 callgsubr
          endchar
        </CharString>
        <CharString name="uni1EF0">
          225 359 -13 -95 callsubr
          4 -159 -103 callsubr
          endchar
        </CharString>
        <CharString name="uni1EF1">
          50 590 500 -96 callgsubr
          -309 -544 -38 callsubr
        </CharString>
        <CharString name="uni1EF4">
          77 179 44 -87 callgsubr
          41 -231 -103 callsubr
          endchar
        </CharString>
        <CharString name="uni1EF5">
          -52 290 494 -97 callsubr
          -142 -538 -38 callsubr
        </CharString>
        <CharString name="uni1EF6">
          77 285 677 -101 callgsubr
          -106 -633 -89 callsubr
        </CharString>
        <CharString name="uni1EF7">
          -52 228 -64 callgsubr
          62 -176 -97 callsubr
          endchar
        </CharString>
        <CharString name="uni1EF8">
          77 391 698 -100 callsubr
          -212 -654 -89 callsubr
        </CharString>
        <CharString name="uni1EF8.loclGUA">
          206 294 -34 callgsubr
          199 -54 -99 callgsubr
        </CharString>
        <CharString name="uni1EF9">
          -52 160 614 rmoveto
          -99 callsubr
          -28 -47 22 -20 rlineto
          198 -86 -97 callsubr
          endchar
        </CharString>
        <CharString name="uni1EF9.loclGUA">
          30 125 647 rmoveto
          -29 callsubr
          68 34 -99 callsubr
          126 -813 -98 callgsubr
        </CharString>
        <CharString name="uni20B2">
          78 354 331 rmoveto
          -43 vlineto
          72 -18 rlineto
          -183 vlineto
          -23 -35 -30 -9 -37 hhcurveto
          -133 -45 113 170 163 42 90 141 33 32 -5 -12 28 hvcurveto
          29 -110 rlineto
          48 156 hlineto
          -28 13 -69 15 -60 2 -4 107 rcurveline
          -56 hlineto
          -4 -111 rlineto
          -152 -26 -81 -132 -178 vvcurveto
          -171 75 -118 138 -19 vhcurveto
          5 -119 rlineto
          55 hlineto
          5 117 43 3 38 13 28 21 rlinecurve
          13 hlineto
          28 -27 rlineto
          37 263 hlineto
          41 8 rlineto
          50 vlineto
          endchar
        </CharString>
        <CharString name="uni20B2.osf">
          78 353 257 rmoveto
          -43 vlineto
          72 -18 rlineto
          -119 vlineto
          -20 -35 -26 -12 -60 hhcurveto
          -116 -42 76 141 137 43 73 127 67 38 -17 0 hvcurveto
          29 -110 rlineto
          48 156 hlineto
          -16 11 -57 17 -83 2 -4 106 rcurveline
          -56 hlineto
          -4 -110 rlineto
          -149 -22 -84 -119 -134 vvcurveto
          -176 77 -80 137 -7 vhcurveto
          4 -106 rlineto
          55 hlineto
          4 108 53 6 29 17 18 13 rlinecurve
          14 hlineto
          32 -27 rlineto
          41 199 hlineto
          41 8 rlineto
          50 vlineto
          endchar
        </CharString>
        <CharString name="uni2113">
          -105 207 -12 rmoveto
          91 66 68 -1 hhcurveto
          -15 31 rlineto
          -1 -1 -55 -34 -45 hhcurveto
          -53 -15 8 94 hvcurveto
          56 vlineto
          69 52 118 106 114 vvcurveto
          74 -43 48 -61 -136 -29 -112 -139 vhcurveto
          -135 vlineto
          -78 -67 25 -36 53 38 rlineto
          -43 vlineto
          -87 31 -35 79 vhcurveto
          -28 288 rmoveto
          92 vlineto
          139 19 59 44 34 21 -33 -51 -65 -48 -79 -70 -62 vhcurveto
          endchar
        </CharString>
        <CharString name="uni2126">
          -55 callgsubr
        </CharString>
        <CharString name="uni2206">
          -29 callgsubr
        </CharString>
        <CharString name="uni2215">
          -11 callsubr
        </CharString>
        <CharString name="uni2219">
          -316 94 198 rmoveto
          -66 callsubr
          endchar
        </CharString>
        <CharString name="uniA78B">
          -381 19 646 -17 callgsubr
        </CharString>
        <CharString name="uniA78C">
          -381 19 705 -17 callgsubr
        </CharString>
        <CharString name="uogonek">
          50 405 -187 rmoveto
          33 42 21 30 26 hvcurveto
          -18 30 rlineto
          -13 -21 -22 -8 -14 hhcurveto
          -29 -14 15 29 26 25 35 37 27 hvcurveto
          82 12 rlineto
          38 vlineto
          -71 16 rlineto
          419 vlineto
          -28 14 -137 -28 -50 callgsubr
          82 -14 rlineto
          -340 vlineto
          -16 -28 -41 -12 -28 hhcurveto
          -82 -27 29 87 hvcurveto
          318 vlineto
          -28 14 -137 -28 -50 callgsubr
          83 -14 rlineto
          -295 vlineto
          -88 54 -50 93 52 56 21 31 30 vhcurveto
          3 4 15 -49 rlineto
          -46 -31 -25 -39 -41 vvcurveto
          -46 32 -28 51 vhcurveto
          endchar
        </CharString>
        <CharString name="uring">
          50 256 -30 callsubr
          -23 -587 -106 callgsubr
          endchar
        </CharString>
        <CharString name="utilde">
          50 125 647 rmoveto
          -29 callsubr
          68 34 -99 callsubr
          112 -656 -106 callgsubr
          endchar
        </CharString>
        <CharString name="v">
          -50 34 438 rmoveto
          180 -443 rlineto
          36 hlineto
          174 441 53 15 rlineto
          43 -185 -42 vlineto
          63 -15 rlineto
          -14 vlineto
          -100 -264 -10 -47 -10 38 -102 274 rlineto
          14 vlineto
          64 14 rlineto
          42 -219 -44 vlineto
          endchar
        </CharString>
        <CharString name="w">
          219 204 -5 -82 callgsubr
        </CharString>
        <CharString name="wacute">
          219 330 565 rmoveto
          28 -30 -93 callsubr
          -235 -691 -82 callgsubr
        </CharString>
        <CharString name="wcircumflex">
          219 233 577 -101 callsubr
          -135 -688 -82 callgsubr
        </CharString>
        <CharString name="wdieresis">
          219 273 575 -103 callgsubr
          -280 -580 -82 callgsubr
        </CharString>
        <CharString name="wgrave">
          219 240 655 rmoveto
          174 -120 28 30 -83 callsubr
          -36 -660 -82 callgsubr
        </CharString>
        <CharString name="x">
          -14 -5 hmoveto
          203 41 hlineto
          -64 11 rlineto
          14 vlineto
          97 131 93 -134 rlineto
          -14 vlineto
          -51 -9 rlineto
          -40 225 40 vlineto
          -68 15 -144 205 129 177 55 15 rlineto
          42 -182 -45 vlineto
          55 -10 rlineto
          -14 vlineto
          -88 -119 -86 121 rlineto
          14 vlineto
          55 8 rlineto
          45 -219 -43 vlineto
          59 -14 135 -194 -138 -187 -66 -16 rlineto
          endchar
        </CharString>
        <CharString name="y">
          -52 290 494 -97 callsubr
          endchar
        </CharString>
        <CharString name="y.loclGUA">
          30 251 -166 -98 callgsubr
        </CharString>
        <CharString name="yacute">
          -39 372 -33 callsubr
          92 -41 -97 callsubr
          endchar
        </CharString>
        <CharString name="yacute.loclGUA">
          30 214 565 rmoveto
          28 -30 -93 callsubr
          -72 -852 -98 callgsubr
        </CharString>
        <CharString name="ycircumflex">
          -52 233 628 rmoveto
          118 -84 35 35 -106 110 rlineto
          15 -15 -12 6 -11 hhcurveto
          -12 -16 -9 -18 -18 hvcurveto
          -106 -106 28 -32 rlineto
          172 -51 -97 callsubr
          endchar
        </CharString>
        <CharString name="ycircumflex.loclGUA">
          30 117 577 -101 callsubr
          28 -849 -98 callgsubr
        </CharString>
        <CharString name="ydieresis">
          -39 134 575 -103 callgsubr
          -55 -81 -97 callsubr
          endchar
        </CharString>
        <CharString name="ydieresis.loclGUA">
          30 157 575 -103 callgsubr
          -117 -741 -98 callgsubr
        </CharString>
        <CharString name="yen">
          43 387 648 rmoveto
          -41 vlineto
          79 -16 rlineto
          -18 vlineto
          -142 -274 rlineto
          -14 hlineto
          -145 274 rlineto
          18 -42 callsubr
          -241 -41 vlineto
          62 -16 126 -226 -101 -4 rlineto
          -46 vlineto
          132 -5 35 -63 -167 -6 rlineto
          -45 vlineto
          175 -6 rlineto
          -131 -3 callsubr
          131 vlineto
          181 6 rlineto
          45 vlineto
          -179 6 34 63 145 5 rlineto
          46 vlineto
          -115 4 124 226 60 16 rlineto
          41 vlineto
          endchar
        </CharString>
        <CharString name="yen.osf">
          43 151 hmoveto
          -4 callgsubr
          73 vlineto
          179 6 rlineto
          45 vlineto
          -179 6 rlineto
          10 vlineto
          32 53 147 5 rlineto
          46 vlineto
          -114 4 93 155 60 16 rlineto
          41 -181 -41 vlineto
          49 -16 rlineto
          -18 vlineto
          -110 -192 rlineto
          -14 hlineto
          -95 192 -22 callgsubr
          45 -25 callsubr
          63 -18 83 -153 -111 -4 rlineto
          -46 vlineto
          141 -5 34 -63 -175 -6 rlineto
          -45 vlineto
          177 -6 rlineto
          -73 vlineto
          -82 -15 rlineto
          endchar
        </CharString>
        <CharString name="ygrave">
          -52 299 565 rmoveto
          -83 callsubr
          174 -120 rlineto
          19 -41 -97 callsubr
          endchar
        </CharString>
        <CharString name="ygrave.loclGUA">
          30 124 655 rmoveto
          174 -120 28 30 -83 callsubr
          127 -821 -98 callgsubr
        </CharString>
        <CharString name="z">
          -73 19 hmoveto
          -89 callgsubr
          endchar
        </CharString>
        <CharString name="zacute">
          -83 159 535 rmoveto
          -93 callsubr
          -109 -121 rlineto
          -112 -565 rmoveto
          -89 callgsubr
          endchar
        </CharString>
        <CharString name="zacute.loclPLK">
          -73 184 -51 callgsubr
          -246 -685 rmoveto
          -89 callgsubr
          endchar
        </CharString>
        <CharString name="zcaron">
          -83 218 -93 callgsubr
          -199 -544 rmoveto
          -89 callgsubr
          endchar
        </CharString>
        <CharString name="zdotaccent">
          -83 209 -78 callgsubr
          -190 -568 rmoveto
          -89 callgsubr
          endchar
        </CharString>
        <CharString name="zero">
          85 -8 59 551 59 hstem
          45 94 310 94 vstem
          289 -8 rmoveto
          183 74 132 203 203 -56 131 -183 -183 -76 -131 -203 -203 58 -132 183 hvcurveto
          8 59 rmoveto
          -125 -30 97 179 179 30 96 125 125 30 -96 -179 -179 -30 -97 -125 hvcurveto
          endchar
        </CharString>
        <CharString name="zero.osf">
          76 292 -9 rmoveto
          148 102 109 160 148 -69 120 -181 -149 -102 -120 -148 -148 69 -121 182 hvcurveto
          -1 65 rmoveto
          -94 -63 75 128 133 45 71 112 97 61 -55 -149 -130 -42 -73 -116 hvcurveto
          endchar
        </CharString>
      <CharString index="0">
        rmoveto
        64 53 37 12 11 hvcurveto
        4 hlineto
        -21 2 9 -25 37 hhcurveto
        54 46 20 0 hvcurveto
        38 vlineto
        -71 14 rlineto
        321 vlineto
        63 -44 52 -87 -54 -150 -42 -83 -28 23 -18 23 23 9 7 0 vhcurveto
        15 92 rlineto
        0 27 8 35 63 35 -25 -59 vhcurveto
        -75 vlineto
        -90 -13 rlineto
        -120 -17 -59 -51 -83 vvcurveto
        -66 40 -58 102 vhcurveto
        38 63 rmoveto
        -60 -32 35 41 64 57 28 124 9 hvcurveto
        -159 vlineto
        0 -39 -18 -50 vhcurveto
        return
      </CharString>
      <CharString index="1">
        rmoveto
        53 58 22 33 29 hvcurveto
        -40 callsubr
        419 vlineto
        -28 14 -137 -28 -50 callgsubr
        82 -14 rlineto
        -340 vlineto
        -16 -28 -41 -12 -28 hhcurveto
        -82 -27 29 87 hvcurveto
        318 vlineto
        -28 14 -137 -28 -50 callgsubr
        83 -14 rlineto
        -295 vlineto
        -88 54 -50 93 vhcurveto
        return
      </CharString>
      <CharString index="2">
        rmoveto
        -43 467 -14 callsubr
        vlineto
        -22 -107 rlineto
        -120 hlineto
        -37 -45 4 6 -25 hvcurveto
        238 158 vlineto
        15 -59 rlineto
        42 171 -42 hlineto
        -15 -59 rlineto
        -158 229 hlineto
        98 6 rlineto
        121 hlineto
        21 -109 rlineto
        49 164 -458 -70 callgsubr
        return
      </CharString>
      <CharString index="3">
        rmoveto
        132 107 60 98 72 -59 27 -88 17 hvcurveto
        -106 21 rlineto
        56 13 vlineto
        100 87 63 98 29 -8 37 -22 30 hvcurveto
        18 9 -3 -3 19 hvcurveto
        37 -8 rlineto
        6 7 12 16 21 vvcurveto
        29 -16 14 -28 -39 -46 -40 -2 -3 vhcurveto
        19 -25 -35 12 -47 hhcurveto
        -108 -85 -73 -98 -64 35 -61 87 -18 hvcurveto
        -22 -15 -23 -24 -26 vvcurveto
        -22 9 -20 11 -10 vhcurveto
        -37 -19 -77 -40 -69 vvcurveto
        -80 91 -31 101 vhcurveto
        7 409 rmoveto
        -64 -35 28 70 71 27 34 74 70 26 -37 -63 -81 -37 -22 -61 hvcurveto
        15 -357 rmoveto
        -92 -39 20 52 36 33 41 31 22 hvcurveto
        138 -26 rlineto
        59 -11 10 -26 -26 vvcurveto
        -49 -51 -33 -89 vhcurveto
        endchar
      </CharString>
      <CharString index="4">
        rmoveto
        35 20 29 33 33 -20 21 -31 -33 -22 -28 -32 -33 20 -23 31 hvcurveto
        211 hmoveto
        35 20 29 33 33 -20 21 -31 -33 -22 -28 -32 -33 20 -23 31 hvcurveto
        return
      </CharString>
      <CharString index="5">
        rmoveto
        -311 vlineto
        -193 43 -98 189 208 48 101 190 vhcurveto
        309 vlineto
        82 16 rlineto
        45 -229 -45 vlineto
        82 -16 rlineto
        -309 -16 callgsubr
        -35 -79 -125 -142 -34 48 177 vhcurveto
        311 -90 callsubr
        return
      </CharString>
      <CharString index="6">
        rmoveto
        51 hlineto
        10 2 8 25 8 vhcurveto
        38 12 20 23 31 vvcurveto
        46 -50 24 -79 -53 -7 -12 -18 -10 2 -9 7 -13 vhcurveto
        5 21 23 3 19 hhcurveto
        35 14 -7 -13 -14 -9 -10 -26 -10 hvcurveto
        -27 -10 -11 -11 -15 vvcurveto
        -5 2 -6 3 -7 vhcurveto
        return
      </CharString>
      <CharString index="7">
        rmoveto
        47 6 rlineto
        5 vlineto
        12 1 8 26 11 vhcurveto
        37 16 21 18 30 vvcurveto
        54 -50 28 -79 -53 -7 -12 -18 -10 2 -9 7 -13 vhcurveto
        5 21 23 3 19 hhcurveto
        35 14 -9 -17 -15 -10 -8 -25 -13 hvcurveto
        -27 -12 -11 -11 -17 vvcurveto
        -9 3 -10 6 -13 vhcurveto
        return
      </CharString>
      <CharString index="8">
        rmoveto
        -44 vlineto
        95 -17 rlineto
        -250 vlineto
        -48 -43 -50 -27 -63 hhcurveto
        -113 -25 84 119 hvcurveto
        124 -77 callsubr
        -144 vlineto
        -150 44 -96 160 70 53 19 41 54 vhcurveto
        -20 vlineto
        -108 -39 -94 -128 -47 -45 13 27 -49 vhcurveto
        -29 110 rlineto
        -48 -144 hlineto
        -40 74 68 -17 76 hhcurveto
        158 96 73 192 hvcurveto
        338 vlineto
        73 15 rlineto
        44 vlineto
        endchar
      </CharString>
      <CharString index="9">
        rmoveto
        141 69 77 158 hvcurveto
        421 vlineto
        -28 14 -137 -28 -50 callgsubr
        82 -14 rlineto
        -290 vlineto
        -17 -30 -38 -11 -29 hhcurveto
        -82 -27 29 87 hvcurveto
        268 vlineto
        -28 14 -137 -28 -50 callgsubr
        83 -14 rlineto
        -245 vlineto
        -88 54 -50 93 56 53 21 35 32 vhcurveto
        -40 vlineto
        -112 -45 -60 -82 -36 -32 6 14 -33 vhcurveto
        -29 110 rlineto
        -48 -144 hlineto
        -26 60 55 -11 63 hhcurveto
        endchar
      </CharString>
      <CharString index="10">
        -36 callgsubr
        hlineto
        -31 callsubr
        367 vlineto
        7 23 44 5 34 hhcurveto
        74 31 -24 -57 hvcurveto
        -68 callsubr
        312 vlineto
        87 -48 50 -83 -71 -76 -42 -7 -13 vhcurveto
        -2 6 -8 33 -149 -57 callgsubr
        -80 -14 rlineto
        return
      </CharString>
      <CharString index="11">
        rmoveto
        -88 callgsubr
        -36 -30 -34 -33 -27 vhcurveto
        113 vlineto
        -28 14 -137 -28 -50 callgsubr
        82 -14 rlineto
        -340 vlineto
        -16 -28 -41 -12 -28 hhcurveto
        -82 -27 29 87 hvcurveto
        318 vlineto
        -28 14 -137 -28 -50 callgsubr
        83 -14 rlineto
        -295 vlineto
        -88 54 -50 93 53 58 22 33 29 vhcurveto
        -40 callsubr
        270 vlineto
        98 64 31 57 38 vvcurveto
        return
      </CharString>
      <CharString index="12">
        rmoveto
        193 86 rlineto
        -18 callsubr
        rlineto
        return
      </CharString>
      <CharString index="13">
        rmoveto
        102 117 53 141 116 -82 39 -82 31 hvcurveto
        -80 30 -79 24 81 vvcurveto
        55 23 41 101 61 43 -23 0 vhcurveto
        19 -94 rlineto
        49 151 hlineto
        10 -23 -80 15 -66 hhcurveto
        -132 -82 -73 -110 -124 100 -31 89 -32 hvcurveto
        71 -26 64 -27 -75 vvcurveto
        -87 -41 -27 -98 -37 -51 17 22 -29 vhcurveto
        -15 100 rlineto
        -54 -143 hlineto
        -27 30 83 -27 79 hhcurveto
        return
      </CharString>
      <CharString index="14">
        544 rmoveto
        17 17 14 18 17 hvcurveto
        97 100 -25 33 -116 -88 -120 87 -34 -35 96 -97 rlineto
        -15 15 19 -17 17 hhcurveto
        return
      </CharString>
      <CharString index="15">
        rmoveto
        59 hlineto
        148 407 7 19 rlineto
        7 hlineto
        6 -16 160 -410 rlineto
        59 hlineto
        184 596 59 -25 callsubr
        80 -16 rlineto
        -18 vlineto
        -119 -420 -9 -31 rlineto
        -5 hlineto
        -11 31 -152 420 rlineto
        18 -42 callsubr
        -253 -41 vlineto
        74 -16 28 -76 -127 -362 -11 -33 rlineto
        -3 hlineto
        -10 32 -126 421 rlineto
        18 -42 callsubr
        -240 -41 vlineto
        61 -16 rlineto
        endchar
      </CharString>
      <CharString index="16">
        rmoveto
        -51 -13 rlineto
        0 9 -140 144 144 5 147 0 vhcurveto
        -34 8 rlineto
        0 -9 -90 -99 -101 -8 88 0 vhcurveto
        return
      </CharString>
      <CharString index="17">
        -8 callsubr
        185 vlineto
        190 347 60 -25 callsubr
        79 -16 rlineto
        -18 vlineto
        -142 -274 rlineto
        -14 hlineto
        -145 274 rlineto
        18 -42 callsubr
        -241 -41 vlineto
        62 -16 200 -359 rlineto
        -173 vlineto
        return
      </CharString>
      <CharString index="18">
        392 hlineto
        -14 137 rlineto
        -41 hlineto
        -14 -85 rlineto
        -209 16 hlineto
        256 352 rlineto
        74 -360 vlineto
        14 -136 rlineto
        41 hlineto
        14 83 rlineto
        195 -13 hlineto
        -274 -378 rlineto
        return
      </CharString>
      <CharString index="19">
        41 -19 11 -13 10 vhcurveto
        -55 -39 rlineto
        -15 vlineto
        13 -9 8 -8 -17 vvcurveto
        return
      </CharString>
      <CharString index="20">
        rmoveto
        -44 callsubr
        -90 callgsubr
        return
      </CharString>
      <CharString index="21">
        rmoveto
        -20 -102 rlineto
        0 -38 -37 -98 -132 -74 111 163 197 56 84 146 79 56 -16 0 vhcurveto
        21 -110 rlineto
        49 157 hlineto
        18 -45 -65 11 -88 hhcurveto
        -191 -119 -162 -182 -212 94 -115 201 120 58 26 17 39 hvcurveto
        152 vlineto
        endchar
      </CharString>
      <CharString index="22">
        rmoveto
        -41 240 41 vlineto
        -81 callsubr
        return
      </CharString>
      <CharString index="23">
        rmoveto
        -12 -122 rlineto
        -13 18 67 -26 73 hhcurveto
        -85 callsubr
        return
      </CharString>
      <CharString index="24">
        rmoveto
        -86 callsubr
        -530 vlineto
        return
      </CharString>
      <CharString index="25">
        rmoveto
        38 hlineto
        125 398 126 -398 rlineto
        41 hlineto
        144 438 58 19 rlineto
        42 -184 -45 vlineto
        63 -11 rlineto
        -15 vlineto
        -76 -238 -11 -56 -9 46 -95 319 rlineto
        -87 hlineto
        -98 -309 -11 -56 -10 46 -83 251 rlineto
        12 vlineto
        66 11 rlineto
        45 -218 -43 vlineto
        58 -15 rlineto
        endchar
      </CharString>
      <CharString index="26">
        255 hlineto
        229 119 116 224 198 -110 110 -197 hvcurveto
        -296 -43 hlineto
        83 -18 rlineto
        -527 vlineto
        -12 callgsubr
        264 8 rmoveto
        -35 -41 5 6 -19 hvcurveto
        521 vlineto
        5 26 32 2 38 hhcurveto
        163 74 -79 -174 -203 -69 -83 -169 hvcurveto
        return
      </CharString>
      <CharString index="27">
        -13 30 rlineto
        0 -48 -21 -64 -104 -57 49 136 133 31 67 101 41 24 -12 0 vhcurveto
        16 -94 rlineto
        0 7 -7 25 29 17 25 21 65 -52 60 -101 -148 -78 -127 -143 -159 92 -84 122 return
      </CharString>
      <CharString index="28">
        -92 13 rlineto
        355 vlineto
        1 5 24 6 16 hhcurveto
        16 4 -1 -4 16 hvcurveto
        46 -12 rlineto
        0 30 19 35 vvcurveto
        29 -17 20 -27 -45 -68 -61 0 vhcurveto
        -16 55 -144 -27 rlineto
        -41 vlineto
        78 -14 rlineto
        -361 vlineto
        return
      </CharString>
      <CharString index="29">
        568 -103 callsubr
        return
      </CharString>
      <CharString index="30">
        -85 callgsubr
        endchar
      </CharString>
      <CharString index="31">
        rmoveto
        72 49 39 19 18 hvcurveto
        4 -1 13 -52 136 20 rlineto
        39 vlineto
        -71 15 rlineto
        615 vlineto
        -28 14 -136 -17 rlineto
        -39 vlineto
        82 -23 rlineto
        -155 vlineto
        13 -15 -36 26 -59 hhcurveto
        -91 -122 -73 -213 -161 87 -66 97 hvcurveto
        return
      </CharString>
      <CharString index="32">
        rmoveto
        -144 vlineto
        0 51 -27 74 92 55 34 91 vhcurveto
        478 vlineto
        73 15 rlineto
        44 -255 -44 vlineto
        95 -17 rlineto
        -488 vlineto
        -33 -13 -29 -45 -28 -22 10 0 vhcurveto
        -29 110 rlineto
        endchar
      </CharString>
      <CharString index="33">
        -73 callgsubr
        vhcurveto
        return
      </CharString>
      <CharString index="34">
        82 -16 rlineto
        -309 -16 callgsubr
        -35 -79 -125 -142 -34 48 177 vhcurveto
        311 -77 callsubr
        -311 vlineto
        -193 43 -98 189 return
      </CharString>
      <CharString index="35">
        -23 9 -139 -28 -75 callsubr
        return
      </CharString>
      <CharString index="36">
        692 rmoveto
        60 13 rlineto
        0 -11 116 -130 -113 -25 -121 0 vhcurveto
        31 -8 rlineto
        0 26 68 78 66 18 -68 0 vhcurveto
        return
      </CharString>
      <CharString index="37">
        -43 hlineto
        83 -17 rlineto
        -528 vlineto
        return
      </CharString>
      <CharString index="38">
        rmoveto
        70 37 30 52 hvcurveto
        -62 callgsubr
        -108 -26 -50 callgsubr
        0 35 -10 48 vhcurveto
        endchar
      </CharString>
      <CharString index="39">
        rmoveto
        -41 243 43 vlineto
        -79 callgsubr
        return
      </CharString>
      <CharString index="40">
        rmoveto
        -89 -5 rlineto
        -112 -6 -67 -58 -85 vvcurveto
        -66 40 -58 102 86 53 29 36 39 vhcurveto
        -43 33 51 -24 74 hhcurveto
        103 56 53 0 hvcurveto
        -9 33 rlineto
        0 -57 -16 -91 -116 -8 89 73 vhcurveto
        269 10 rlineto
        19 1 10 8 18 vvcurveto
        149 -35 95 -136 -58 -50 -25 -43 -36 vhcurveto
        40 -20 -43 28 -56 hhcurveto
        -54 -151 -41 -85 -35 19 -10 24 20 10 7 0 hvcurveto
        22 87 rlineto
        0 26 7 35 63 34 -25 -59 vhcurveto
        300 -63 rmoveto
        -212 -12 rlineto
        89 27 73 86 73 29 -19 -89 -15 -1 -15 -2 -12 vhcurveto
        -300 -68 rmoveto
        -137 vlineto
        0 -40 -27 -50 -64 -26 40 41 59 54 23 126 1 vhcurveto
        endchar
      </CharString>
      <CharString index="41">
        rmoveto
        32 hlineto
        0 54 78 45 vvcurveto
        29 -15 25 -35 -24 -14 -13 -10 -7 vhcurveto
        14 -17 11 -18 -24 vvcurveto
        -28 -6 -38 -10 -29 vhcurveto
        return
      </CharString>
      <CharString index="42">
        242 41 hlineto
        -79 14 rlineto
        366 vlineto
        7 30 43 6 28 hhcurveto
        67 38 -19 -62 hvcurveto
        -68 callsubr
        312 vlineto
        102 -63 35 -68 -45 -66 -21 -30 -46 vhcurveto
        237 vlineto
        -65 callsubr
        -81 -14 rlineto
        return
      </CharString>
      <CharString index="43">
        670 rmoveto
        35 14 -9 -17 -15 -10 -8 -25 -13 hvcurveto
        -27 -12 -11 -11 -17 vvcurveto
        -9 3 -10 6 -13 vhcurveto
        47 6 rlineto
        5 vlineto
        12 1 8 26 11 vhcurveto
        37 16 21 18 30 vvcurveto
        54 -50 28 -79 -53 -7 -12 -18 -10 2 -9 7 -13 vhcurveto
        5 21 23 3 19 hhcurveto
        return
      </CharString>
      <CharString index="44">
        rmoveto
        -96 -30 62 128 148 58 42 82 41 37 -10 -6 16 hvcurveto
        -338 vlineto
        -9 -19 -44 -17 -45 hhcurveto
        return
      </CharString>
      <CharString index="45">
        568 -78 callsubr
        -502 vlineto
        return
      </CharString>
      <CharString index="46">
        rmoveto
        -31 -72 62 -27 31 72 rlineto
        -8 31 34 -5 38 hhcurveto
        216 91 156 195 134 -51 103 -91 51 hvcurveto
        29 67 -60 27 -31 -70 rlineto
        6 -25 -27 4 -29 hhcurveto
        -206 -115 -156 -191 -134 45 -100 89 -52 hvcurveto
        243 565 rmoveto
        -213 -494 rlineto
        -41 43 -22 71 107 vvcurveto
        258 94 23 112 25 24 -2 -6 21 vhcurveto
        -156 -532 rmoveto
        215 500 rlineto
        43 -38 26 -72 -131 vvcurveto
        -172 -52 -103 -134 -37 -33 5 11 -28 vhcurveto
        endchar
      </CharString>
      <CharString index="47">
        128 137 rlineto
        33 -20 -19 14 -13 hhcurveto
        -27 -9 -29 -22 -12 hvcurveto
        return
      </CharString>
      <CharString index="48">
        rmoveto
        33 76 rlineto
        -5 19 21 -3 23 hhcurveto
        152 81 120 152 94 -31 73 -60 40 hvcurveto
        34 78 -54 24 -34 -77 rlineto
        6 -21 -24 3 -25 hhcurveto
        -142 -87 -123 -141 -100 31 -76 61 -41 hvcurveto
        -33 -76 rlineto
        65 149 rmoveto
        -25 34 -9 51 64 vvcurveto
        128 21 73 112 19 17 -3 -5 15 vhcurveto
        -44 -389 rmoveto
        -22 -19 3 6 -16 hvcurveto
        150 343 rlineto
        22 -33 9 -52 -71 vvcurveto
        -123 -29 -73 -95 vhcurveto
        endchar
      </CharString>
      <CharString index="49">
        rmoveto
        -46 callgsubr
        -74 16 -22 callgsubr
        93 196 rlineto
        170 hlineto
        18 -211 -12 callgsubr
        -43 447 -14 callsubr
        vlineto
        -22 -107 rlineto
        -100 hlineto
        -38 -43 4 6 -22 hvcurveto
        -19 204 rlineto
        137 hlineto
        17 -49 rlineto
        42 155 -42 hlineto
        -17 -49 rlineto
        -142 hlineto
        -21 259 94 6 rlineto
        94 hlineto
        21 -109 rlineto
        49 164 -378 hlineto
        -280 -591 rlineto
        332 271 rmoveto
        -136 hlineto
        115 255 rlineto
        endchar
      </CharString>
      <CharString index="50">
        -28 -75 callsubr
        -356 vlineto
        return
      </CharString>
      <CharString index="51">
        rmoveto
        144 102 rlineto
        39 -10 -18 21 -18 hhcurveto
        -15 -12 -6 -26 -20 hvcurveto
        -79 -103 rlineto
        return
      </CharString>
      <CharString index="52">
        274 53 hmoveto
        280 55 hlineto
        -112 92 -22 102 110 vvcurveto
        209 83 28 112 115 72 -60 -178 -111 -31 -100 -112 -92 vhcurveto
        -55 300 153 -40 vlineto
        -20 -77 rlineto
        -154 5 hlineto
        73 46 83 116 116 vvcurveto
        168 -96 133 -180 -206 -97 -149 -151 -127 68 -104 72 -46 vhcurveto
        -7 -128 vlineto
        -20 77 rlineto
        -40 hlineto
        endchar
      </CharString>
      <CharString index="53">
        -91 callgsubr
        endchar
      </CharString>
      <CharString index="54">
        44 vlineto
        -51 callsubr
        return
      </CharString>
      <CharString index="55">
        23 100 -163 rmoveto
        54 10 -11 125 -1 9 -2 10 -4 15 rlinecurve
        -10 20 25 -5 30 hhcurveto
        43 61 21 30 43 hvcurveto
        2 1 rlineto
        -29 6 21 -18 27 hhcurveto
        32 46 8 12 31 hvcurveto
        38 vlineto
        -80 13 rlineto
        423 vlineto
        -28 14 -55 -10 rlineto
        -414 vlineto
        -13 -30 -42 -10 -25 hhcurveto
        -83 -26 26 85 hvcurveto
        322 vlineto
        -28 14 -54 -10 rlineto
        -643 vlineto
        endchar
      </CharString>
      <CharString index="56">
        544 rmoveto
        33 -24 145 154 rlineto
        34 -18 -23 17 -17 hhcurveto
        -16 -9 -16 -24 -14 hvcurveto
        return
      </CharString>
      <CharString index="57">
        rlineto
        -38 vlineto
        return
      </CharString>
      <CharString index="58">
        205 59 43 rmoveto
        -43 281 vlineto
        194 128 131 199 204 -106 114 -189 hvcurveto
        -308 -43 hlineto
        83 -18 rlineto
        -225 -85 -57 85 -245 vlineto
        86 2 rmoveto
        243 176 57 -176 221 vlineto
        5 35 33 2 40 hhcurveto
        156 69 -81 -182 -196 -67 -80 -165 -42 -34 4 7 -25 hvcurveto
        endchar
      </CharString>
      <CharString index="59">
        rmoveto
        -51 29 -36 61 61 36 42 51 50 -30 39 -60 -64 -33 -45 -50 vhcurveto
        94 -44 rmoveto
        -29 -12 9 39 32 8 14 31 28 13 -9 -37 -33 -8 -15 -31 hvcurveto
        return
      </CharString>
      <CharString index="60">
        rlineto
        92 590 hlineto
        69 16 rlineto
        42 -199 -45 callgsubr
        return
      </CharString>
      <CharString index="61">
        -41 211 41 vlineto
        return
      </CharString>
      <CharString index="62">
        -42 vlineto
        69 -16 rlineto
        -461 -9 vlineto
        return
      </CharString>
      <CharString index="63">
        -70 callgsubr
        -12 callgsubr
        169 return
      </CharString>
      <CharString index="64">
        -83 15 rlineto
        253 33 vlineto
        193 -283 rlineto
        -25 17 12 -4 32 hhcurveto
        94 45 hlineto
        -64 15 -209 298 196 234 57 12 rlineto
        44 -204 -43 vlineto
        58 -12 rlineto
        -11 vlineto
        -184 -223 rlineto
        -31 230 hlineto
        83 15 rlineto
        44 -252 -44 vlineto
        83 -15 rlineto
        -15 callsubr
        return
      </CharString>
      <CharString index="65">
        716 rmoveto
        22 -35 193 86 rlineto
        47 -4 -19 22 -19 hhcurveto
        -11 -14 -10 -12 -17 hvcurveto
        return
      </CharString>
      <CharString index="66">
        678 rmoveto
        14 16 17 37 46 hvcurveto
        79 64 -25 36 -126 -63 -122 65 -33 -41 74 -61 rlineto
        -32 39 22 -22 16 hhcurveto
        return
      </CharString>
      <CharString index="67">
        rmoveto
        -36 callgsubr
        hlineto
        -81 callsubr
        -80 -14 rlineto
        endchar
      </CharString>
      <CharString index="68">
        5 9 13 4 10 hhcurveto
        18 16 -5 -20 77 hvcurveto
        15 7 13 22 19 vvcurveto
        30 -21 18 -35 -104 -86 -89 -116 -8 vhcurveto
        return
      </CharString>
      <CharString index="69">
        93 -104 25 16 -84 158 84 156 -25 16 -102 -114 rlineto
        -14 -16 -25 -29 -13 vvcurveto
        -17 33 -34 15 -19 vhcurveto
        return
      </CharString>
      <CharString index="70">
        rmoveto
        35 35 -106 110 rlineto
        15 -15 -12 6 -11 hhcurveto
        -12 -16 -9 -18 -18 hvcurveto
        -106 -106 28 -32 115 83 rlineto
        return
      </CharString>
      <CharString index="71">
        240 41 return
      </CharString>
      <CharString index="72">
        -11 -54 rlineto
        -132 4 hlineto
        53 45 rlineto
        78 67 31 36 53 vvcurveto
        70 -55 22 -76 -47 -44 -20 -12 -17 vhcurveto
        -85 40 vlineto
        10 55 rlineto
        0 23 10 29 38 24 -8 -42 -39 -40 -39 -47 -44 vhcurveto
        return
      </CharString>
      <CharString index="73">
        738 rmoveto
        -62 callsubr
        25 21 8 21 15 hvcurveto
        37 49 -23 26 -80 -36 -79 25 rlineto
        8 -25 -25 7 -20 hhcurveto
        -25 -21 -8 -21 -15 hvcurveto
        -37 -49 23 -26 rlineto
        return
      </CharString>
      <CharString index="74">
        44 hlineto
        -11 callgsubr
        return
      </CharString>
      <CharString index="75">
        663 rmoveto
        -10 -57 rlineto
        332 hlineto
        10 57 rlineto
        return
      </CharString>
      <CharString index="76">
        15 rlineto
        530 return
      </CharString>
      <CharString index="77">
        733 rmoveto
        -61 36 -23 51 50 45 27 64 -9 callsubr
        vhcurveto
        92 -41 rmoveto
        -39 -5 16 29 -26 callsubr
        hvcurveto
        return
      </CharString>
      <CharString index="78">
        95 28 hmoveto
        548 41 hlineto
        -247 607 rlineto
        -49 hlineto
        -160 -600 rmoveto
        25 vlineto
        164 431 6 16 1 -1 5 -15 168 -434 rlineto
        -22 vlineto
        endchar
      </CharString>
      <CharString index="79">
        rmoveto
        -18 callsubr
        22 -35 rlineto
        return
      </CharString>
      <CharString index="80">
        251 44 return
      </CharString>
      <CharString index="81">
        35 20 30 32 34 -20 21 -31 -33 -23 -28 -32 -34 20 -23 32 hvcurveto
        return
      </CharString>
      <CharString index="82">
        -60 -12 rlineto
        -47 61 -382 vlineto
        return
      </CharString>
      <CharString index="83">
        26 24 14 22 13 hvcurveto
        28 47 -22 20 -68 -34 -84 25 rlineto
        7 -25 -26 8 -20 hhcurveto
        -26 -24 -14 -22 -13 hvcurveto
        -29 callsubr
        return
      </CharString>
      <CharString index="84">
        rmoveto
        18 18 79 89 68 vvcurveto
        35 -21 28 -37 -30 -17 -19 -21 -14 vhcurveto
        12 -16 12 -26 -28 vvcurveto
        -30 -14 -42 -22 -42 vhcurveto
        endchar
      </CharString>
      <CharString index="85">
        rlineto
        18 vlineto
        return
      </CharString>
      <CharString index="86">
        41 -12 -22 21 -17 hhcurveto
        -14 -12 -13 -18 -16 hvcurveto
        -109 -121 return
      </CharString>
      <CharString index="87">
        rmoveto
        -18 -19 -73 -84 -66 vvcurveto
        -34 20 -28 35 29 16 18 20 13 vhcurveto
        -16 13 -14 20 31 vvcurveto
        35 17 35 21 45 vhcurveto
        return
      </CharString>
      <CharString index="88">
        rmoveto
        91 255 6 18 2 -5 4 -11 97 -257 rlineto
        endchar
      </CharString>
      <CharString index="89">
        -527 -85 callgsubr
        return
      </CharString>
      <CharString index="90">
        rmoveto
        -291 40 vlineto
        36 176 rlineto
        9 44 3 27 19 vvcurveto
        15 -2 23 -33 -14 -18 -4 -9 -21 vhcurveto
        endchar
      </CharString>
      <CharString index="91">
        vlineto
        -146 return
      </CharString>
      <CharString index="92">
        -61 callsubr
        -31 callsubr
        return
      </CharString>
      <CharString index="93">
        -61 4 rlineto
        51 53 43 -53 200 vlineto
        -62 22 -170 -231 19 -34 rlineto
        145 -51 hlineto
        return
      </CharString>
      <CharString index="94">
        606 rmoveto
        332 hlineto
        10 57 rlineto
        -332 hlineto
        return
      </CharString>
      <CharString index="95">
        -83 -17 rlineto
        return
      </CharString>
      <CharString index="96">
        -82 -31 callgsubr
        -77 callsubr
        -15 callsubr
        return
      </CharString>
      <CharString index="97">
        rmoveto
        38 21 31 33 36 -21 22 -33 -35 -23 -30 -33 -35 21 -24 32 hvcurveto
        endchar
      </CharString>
      <CharString index="98">
        -82 -15 rlineto
        -44 callsubr
        -8 callsubr
        return
      </CharString>
      <CharString index="99">
        -44 252 44 vlineto
        -83 15 rlineto
        return
      </CharString>
      <CharString index="100">
        rmoveto
        35 23 30 33 35 -21 24 -32 -38 -21 -31 -33 -36 21 -22 33 hvcurveto
        return
      </CharString>
      <CharString index="101">
        vlineto
        -108 -26 0 callsubr
        22 34 -4 27 hhcurveto
        endchar
      </CharString>
      <CharString index="102">
        158 -12 rlineto
        78 vlineto
        -158 -12 return
      </CharString>
      <CharString index="103">
        -27 callgsubr
        hlineto
        -8 callsubr
        return
      </CharString>
      <CharString index="104">
        -194 41 297 rmoveto
        -60 215 77 vlineto
        endchar
      </CharString>
      <CharString index="105">
        vlineto
        -27 14 -137 -27 rlineto
        -39 vlineto
        82 -13 rlineto
        return
      </CharString>
      <CharString index="106">
        33 25 -165 rmoveto
        238 44 hlineto
        -87 12 rlineto
        return
      </CharString>
      <CharString index="107">
        16 rlineto
        42 vlineto
        return
      </CharString>
      <CharString index="108">
        -30 -156 rlineto
        60 hlineto
        30 156 rlineto
        return
      </CharString>
      <CharString index="109">
        -70 callgsubr
        endchar
      </CharString>
</ttFont>
